<svg width="469" height="512" viewBox="0 0 469 512" fill="none" xmlns="http://www.w3.org/2000/svg">
<circle cx="238.837" cy="242.993" r="176.386" stroke="white" stroke-width="2.39438"/>
<circle cx="239.236" cy="243.392" r="166.809" stroke="white" stroke-width="1.59626"/>
<circle cx="239.236" cy="243.392" r="114.531" stroke="white" stroke-width="2.39438"/>
<path d="M154.651 264.32V216.409H175.985C178.044 216.409 179.911 216.72 181.587 217.342C183.264 217.917 184.676 218.755 185.826 219.857C186.975 220.91 187.861 222.203 188.483 223.735C189.106 225.22 189.417 226.848 189.417 228.62C189.417 230.152 189.178 231.541 188.699 232.786C188.268 234.031 187.645 235.133 186.831 236.091C186.065 237 185.179 237.767 184.173 238.389C183.168 238.964 182.114 239.371 181.013 239.61C182.306 239.802 183.503 240.257 184.604 240.975C185.754 241.693 186.735 242.579 187.549 243.633C188.411 244.686 189.082 245.884 189.561 247.224C190.088 248.565 190.351 249.954 190.351 251.391C190.351 253.306 190.04 255.054 189.417 256.634C188.795 258.215 187.885 259.579 186.688 260.729C185.49 261.878 184.03 262.764 182.306 263.387C180.63 264.009 178.69 264.32 176.487 264.32H154.651ZM174.979 237.168C177.709 237.168 179.768 236.45 181.156 235.013C182.545 233.529 183.24 231.685 183.24 229.482C183.24 227.327 182.545 225.507 181.156 224.023C179.768 222.49 177.709 221.724 174.979 221.724H160.613V237.168H174.979ZM175.266 259.005C178.092 259.005 180.271 258.286 181.803 256.85C183.383 255.365 184.173 253.33 184.173 250.744C184.173 249.643 183.982 248.589 183.599 247.584C183.216 246.578 182.641 245.716 181.875 244.998C181.156 244.231 180.247 243.633 179.145 243.202C178.044 242.723 176.751 242.484 175.266 242.484H160.613V259.005H175.266ZM199.826 264.32V216.409H219.077C221.471 216.409 223.602 216.792 225.47 217.558C227.337 218.324 228.894 219.378 230.139 220.719C231.432 222.012 232.414 223.544 233.084 225.316C233.754 227.04 234.09 228.883 234.09 230.847C234.09 232.81 233.754 234.678 233.084 236.45C232.414 238.174 231.432 239.706 230.139 241.047C228.846 242.34 227.266 243.369 225.398 244.136C223.53 244.902 221.423 245.285 219.077 245.285H205.788V264.32H199.826ZM218.358 239.969C221.232 239.969 223.53 239.131 225.254 237.455C227.026 235.779 227.912 233.576 227.912 230.847C227.912 228.117 227.026 225.914 225.254 224.238C223.53 222.562 221.232 221.724 218.358 221.724H205.788V239.969H218.358ZM270.635 264.32L266.397 253.689H242.549L238.311 264.32H231.487L250.738 216.409H258.136L277.459 264.32H270.635ZM254.473 222.586L244.273 248.374H264.601L254.473 222.586ZM283.408 228.907C283.408 232.595 284.342 235.372 286.21 237.24C288.125 239.06 290.903 239.969 294.542 239.969C296.553 239.969 298.517 239.826 300.432 239.538C302.348 239.251 304.072 238.844 305.604 238.317V216.409H311.566V264.32H305.604V243.633C304.024 244.064 302.276 244.447 300.36 244.782C298.445 245.117 296.338 245.285 294.039 245.285C291.214 245.285 288.748 244.902 286.641 244.136C284.581 243.322 282.857 242.196 281.469 240.76C280.128 239.323 279.122 237.599 278.452 235.588C277.781 233.529 277.446 231.278 277.446 228.836V216.409H283.408V228.907Z" fill="white"/>
<path d="M136.344 486.527C137.203 489.369 141.472 501.537 146.982 496.846C149.629 494.592 150.378 487.241 150.633 484.78C152.151 470.171 151.861 455.134 151.983 440.484C152.21 413.18 153.127 385.525 151.745 358.243C151.731 357.977 151.351 345.328 148.728 343.636C147.567 342.888 145.768 343.884 144.759 344.827C138.263 350.898 134.148 363.8 131.82 370.786C117.724 413.073 98.9899 545.889 104.115 501.609C107.815 469.637 121.904 439.857 133.566 410.239C136.107 403.787 171.576 324.967 158.731 320.139C155.675 318.99 152.025 321.377 149.522 323.473C143.031 328.908 137.404 335.397 132.375 342.208C118.604 360.858 96.868 397.928 87.4443 418.574C81.6393 431.293 70.6311 455.826 76.4894 472.237C83.3871 491.56 106.666 487.589 119.436 479.938C129.213 474.08 150.841 454.58 158.969 447.867C171.488 437.527 184.443 427.916 197.47 418.257C204.931 412.724 210.605 406.315 214.299 397.697C221.403 381.121 224.621 362.453 228.588 344.986C232.019 329.878 234.267 319.359 237.479 304.262C239.236 296.002 240.331 276.717 245.417 268.857C248.564 263.994 244.54 280.414 243.829 286.163C239.247 323.244 235.27 360.253 232.636 397.538C230.409 429.068 229.009 460.659 227.794 492.242" stroke="#C8CFE8" stroke-width="2.39438" stroke-linecap="round"/>
<g clip-path="url(#clip0_0_76)">
<path d="M107.693 215.991C107.693 215.163 108.362 214.494 109.189 214.494H110.686C111.514 214.494 112.182 215.163 112.182 215.991V222.58L117.888 219.288C118.603 218.876 119.52 219.119 119.931 219.835L120.68 221.13C121.091 221.846 120.848 222.762 120.132 223.174L114.427 226.466L120.132 229.758C120.848 230.17 121.091 231.086 120.68 231.802L119.931 233.097C119.52 233.813 118.603 234.061 117.888 233.645L112.182 230.352V236.941C112.182 237.769 111.514 238.438 110.686 238.438H109.189C108.362 238.438 107.693 237.769 107.693 236.941V230.352L101.988 233.649C101.272 234.061 100.355 233.818 99.9439 233.102L99.1956 231.807C98.7841 231.091 99.0273 230.175 99.7428 229.763L105.448 226.466L99.7428 223.174C99.0273 222.762 98.7841 221.846 99.1956 221.13L99.9439 219.835C100.355 219.115 101.272 218.871 101.988 219.283L107.693 222.575V215.991Z" fill="white"/>
</g>
<g clip-path="url(#clip1_0_76)">
<path d="M380.652 215.991C380.652 215.163 381.32 214.494 382.148 214.494H383.645C384.472 214.494 385.141 215.163 385.141 215.991V222.58L390.847 219.288C391.562 218.876 392.479 219.119 392.89 219.835L393.638 221.13C394.05 221.846 393.807 222.762 393.091 223.174L387.386 226.466L393.091 229.758C393.807 230.17 394.05 231.086 393.638 231.802L392.89 233.097C392.479 233.813 391.562 234.061 390.847 233.645L385.141 230.352V236.941C385.141 237.769 384.472 238.438 383.645 238.438H382.148C381.32 238.438 380.652 237.769 380.652 236.941V230.352L374.946 233.649C374.231 234.061 373.314 233.818 372.903 233.102L372.154 231.807C371.743 231.091 371.986 230.175 372.702 229.763L378.407 226.466L372.702 223.174C371.986 222.762 371.743 221.846 372.154 221.13L372.903 219.835C373.314 219.115 374.231 218.871 374.946 219.283L380.652 222.575V215.991Z" fill="white"/>
</g>
<path d="M112.546 319.979L132.302 310.508L108.63 311.811L108.043 310.587L123.9 292.983L104.144 302.455L102.713 299.468L126.714 287.961L128.767 292.243L114.274 308.352L135.927 307.177L137.98 311.459L113.978 322.966L112.546 319.979Z" fill="white"/>
<path d="M126.259 339.902L128.015 338.585C125.616 338.356 123.625 337.189 122.045 335.082C121.55 334.422 121.17 333.693 120.904 332.895C120.637 332.097 120.526 331.283 120.568 330.453C120.632 329.606 120.863 328.784 121.262 327.986C121.661 327.188 122.276 326.478 123.106 325.855C123.957 325.217 124.822 324.817 125.7 324.658C126.578 324.498 127.421 324.514 128.23 324.705C129.039 324.897 129.778 325.24 130.449 325.735C131.14 326.214 131.734 326.783 132.229 327.443C133.027 328.507 133.575 329.592 133.873 330.699C134.187 331.827 134.214 332.971 133.953 334.131L136.73 332.048C137.773 331.265 138.292 330.294 138.287 329.134C138.318 327.98 137.911 326.839 137.065 325.711C135.708 323.902 133.814 322.861 131.382 322.59L132.204 320.228C135.136 320.589 137.528 322.005 139.38 324.473C139.986 325.282 140.465 326.12 140.816 326.987C141.168 327.855 141.33 328.714 141.303 329.565C141.314 330.422 141.109 331.257 140.689 332.071C140.269 332.886 139.59 333.644 138.654 334.346L128.055 342.296L126.259 339.902ZM124.415 334.65C125.054 335.502 125.812 336.18 126.69 336.685C127.584 337.212 128.526 337.47 129.516 337.459L132.421 335.28C132.708 334.333 132.724 333.357 132.468 332.351C132.229 331.367 131.79 330.449 131.151 329.598C130.305 328.47 129.3 327.794 128.134 327.571C126.99 327.331 125.918 327.587 124.918 328.337C123.939 329.072 123.394 330.029 123.282 331.211C123.191 332.376 123.569 333.522 124.415 334.65Z" fill="white"/>
<path d="M139.829 355.395C138.875 354.469 138.201 353.406 137.806 352.208C137.412 351.01 137.318 349.751 137.524 348.431L130.381 355.79L128.233 353.705L146.773 334.606L148.92 336.69L146.919 338.752C148.101 338.527 149.316 338.594 150.563 338.952C151.828 339.29 152.948 339.932 153.921 340.877C154.838 341.767 155.501 342.745 155.912 343.811C156.361 344.877 156.547 345.984 156.47 347.133C156.43 348.281 156.118 349.443 155.534 350.618C154.968 351.812 154.139 352.972 153.046 354.098C151.952 355.224 150.818 356.088 149.641 356.688C148.484 357.308 147.323 357.664 146.158 357.756C145.012 357.867 143.89 357.724 142.793 357.327C141.734 356.928 140.746 356.285 139.829 355.395ZM141.148 352.949C141.835 353.616 142.585 354.084 143.398 354.354C144.211 354.624 145.04 354.706 145.885 354.6C146.73 354.493 147.563 354.208 148.384 353.744C149.243 353.28 150.042 352.666 150.784 351.902C151.525 351.138 152.105 350.33 152.525 349.477C152.965 348.643 153.225 347.802 153.306 346.954C153.388 346.106 153.281 345.28 152.987 344.475C152.693 343.671 152.202 342.935 151.515 342.268C150.656 341.434 149.632 340.866 148.442 340.564C147.29 340.261 146.226 340.23 145.251 340.47L139.192 346.713C138.981 347.694 139.035 348.766 139.353 349.927C139.69 351.108 140.288 352.115 141.148 352.949Z" fill="white"/>
<path d="M151.64 365.23L162.654 349.412L165.11 351.123L156.696 363.207L173.396 356.892L175.82 358.579L164.806 374.397L162.349 372.687L170.923 360.373L153.998 366.872L151.64 365.23Z" fill="white"/>
<path d="M171.21 378.185L179.129 373.571C177.914 372.782 177.105 371.731 176.702 370.417C176.31 369.079 176.465 367.678 177.166 366.214C177.522 365.47 177.976 364.832 178.526 364.299C179.076 363.766 179.694 363.369 180.38 363.108C181.09 362.858 181.844 362.762 182.642 362.82C183.476 362.865 184.336 363.1 185.224 363.526L194.402 367.922L186.074 385.305L183.375 384.012L186.599 377.282L181.848 375.006L174.377 379.702L171.21 378.185ZM187.737 374.907L190.564 369.004L184.374 366.039C183.414 365.579 182.538 365.499 181.746 365.798C180.954 366.097 180.351 366.678 179.937 367.542C179.523 368.406 179.436 369.234 179.676 370.027C179.915 370.821 180.539 371.459 181.547 371.941L187.737 374.907Z" fill="white"/>
<path d="M223.377 395.553L222.229 389.3L209.238 386.698L205.769 392.026L202.052 391.282L217.766 367.283L221.797 368.091L227.094 396.298L223.377 395.553ZM219.127 371.056L210.757 383.99L221.83 386.208L219.127 371.056Z" fill="white"/>
<path d="M230.896 394.529C231.801 394.548 232.557 393.978 233.167 392.82C233.776 391.661 234.296 389.663 234.726 386.825L236.158 377.354L249.564 377.629L249.169 396.9L246.176 396.839L246.517 380.201L238.737 380.042L237.711 387.245C237.462 389.049 237.138 390.573 236.74 391.815C236.342 393.058 235.855 394.072 235.28 394.859C234.732 395.619 234.082 396.178 233.33 396.535C232.605 396.866 231.776 397.022 230.845 397.003L230.896 394.529Z" fill="white"/>
<path d="M265.884 395.71C264.462 395.915 263.124 395.865 261.871 395.562C260.614 395.233 259.488 394.696 258.494 393.952C257.522 393.178 256.699 392.221 256.024 391.082C255.372 389.913 254.938 388.578 254.722 387.077C254.525 385.708 254.576 384.383 254.875 383.104C255.171 381.798 255.662 380.638 256.35 379.625C257.063 378.609 257.949 377.755 259.005 377.066C260.088 376.372 261.314 375.927 262.683 375.73C264.131 375.521 265.46 375.598 266.668 375.962C267.876 376.326 268.941 376.911 269.864 377.719C270.787 378.527 271.537 379.534 272.114 380.741C272.713 381.918 273.116 383.218 273.32 384.64L273.428 385.39L257.984 387.615C258.166 388.503 258.487 389.33 258.947 390.097C259.403 390.838 259.964 391.469 260.631 391.991C261.32 392.483 262.099 392.855 262.968 393.106C263.834 393.331 264.78 393.369 265.807 393.221C266.913 393.062 267.949 392.698 268.916 392.128C269.882 391.559 270.692 390.838 271.346 389.964L273.046 391.695C272.235 392.779 271.233 393.663 270.041 394.345C268.849 395.027 267.464 395.482 265.884 395.71ZM270.193 383.639C270.09 382.928 269.854 382.223 269.485 381.523C269.138 380.794 268.657 380.164 268.043 379.634C267.452 379.074 266.733 378.654 265.886 378.373C265.039 378.091 264.076 378.029 262.996 378.184C261.969 378.332 261.102 378.659 260.396 379.164C259.689 379.668 259.116 380.262 258.676 380.943C258.263 381.621 257.967 382.363 257.787 383.168C257.63 383.943 257.592 384.701 257.671 385.442L270.193 383.639Z" fill="white"/>
<path d="M294.005 388.439L284.813 382.218L282.694 386.173L284.322 391.434L281.462 392.319L275.767 373.905L278.626 373.02L281.657 382.818L288.31 370.025L291.931 368.905L286.355 379.777L297.665 387.307L294.005 388.439Z" fill="white"/>
<path d="M310.766 381.843C309.471 382.464 308.174 382.806 306.876 382.867C305.591 382.894 304.369 382.683 303.21 382.235C302.075 381.776 301.027 381.098 300.066 380.202C299.118 379.27 298.333 378.156 297.712 376.861C297.091 375.565 296.72 374.268 296.599 372.969C296.502 371.659 296.629 370.417 296.982 369.245C297.358 368.061 297.965 366.988 298.802 366.027C299.652 365.029 300.724 364.22 302.02 363.599C303.603 362.84 305.025 362.512 306.284 362.617C307.568 362.709 308.752 363.027 309.838 363.568L308.833 366.086C307.877 365.57 306.942 365.311 306.025 365.308C305.133 365.293 304.231 365.504 303.32 365.941C302.384 366.39 301.625 366.96 301.042 367.652C300.484 368.333 300.084 369.1 299.844 369.953C299.604 370.806 299.535 371.709 299.638 372.663C299.765 373.605 300.059 374.556 300.519 375.515C300.979 376.475 301.542 377.311 302.209 378.024C302.888 378.702 303.635 379.214 304.45 379.561C305.265 379.907 306.113 380.076 306.994 380.067C307.899 380.046 308.819 379.812 309.755 379.363C311.578 378.489 312.691 377.026 313.094 374.974L315.687 375.767C315.429 376.953 314.934 378.075 314.203 379.134C313.495 380.181 312.35 381.084 310.766 381.843Z" fill="white"/>
<path d="M329.541 370.902C328.355 371.713 327.133 372.259 325.875 372.54C324.601 372.798 323.354 372.813 322.134 372.584C320.92 372.318 319.76 371.823 318.651 371.099C317.55 370.337 316.572 369.33 315.715 368.079C314.934 366.937 314.396 365.726 314.1 364.445C313.789 363.143 313.719 361.886 313.889 360.673C314.081 359.446 314.499 358.29 315.142 357.205C315.808 356.105 316.712 355.164 317.854 354.383C319.061 353.557 320.288 353.04 321.532 352.834C322.777 352.627 323.991 352.683 325.176 353C326.36 353.318 327.478 353.892 328.528 354.72C329.585 355.512 330.52 356.501 331.331 357.686L331.759 358.312L318.881 367.122C319.435 367.839 320.088 368.44 320.839 368.925C321.575 369.388 322.358 369.707 323.186 369.882C324.022 370.02 324.885 370.009 325.776 369.851C326.652 369.671 327.518 369.288 328.374 368.702C329.297 368.071 330.066 367.287 330.682 366.35C331.298 365.413 331.706 364.408 331.908 363.336L334.197 364.138C333.948 365.47 333.439 366.704 332.67 367.843C331.901 368.981 330.858 370.001 329.541 370.902ZM328.082 358.168C327.677 357.575 327.154 357.046 326.514 356.582C325.881 356.08 325.172 355.727 324.387 355.522C323.609 355.281 322.778 355.221 321.894 355.342C321.01 355.463 320.118 355.832 319.218 356.448C318.361 357.034 317.728 357.709 317.316 358.474C316.905 359.239 316.652 360.024 316.558 360.83C316.487 361.62 316.548 362.416 316.742 363.218C316.943 363.983 317.243 364.681 317.641 365.311L328.082 358.168Z" fill="white"/>
<path d="M349.439 354.691C348.405 355.689 347.291 356.43 346.097 356.917C344.884 357.384 343.657 357.607 342.416 357.584C341.175 357.524 339.948 357.229 338.735 356.7C337.522 356.132 336.389 355.303 335.336 354.211C334.376 353.215 333.643 352.111 333.138 350.898C332.615 349.665 332.336 348.437 332.302 347.214C332.286 345.972 332.506 344.762 332.96 343.585C333.433 342.389 334.167 341.311 335.163 340.351C336.216 339.335 337.339 338.621 338.532 338.21C339.725 337.799 340.931 337.651 342.152 337.767C343.373 337.883 344.57 338.262 345.744 338.904C346.919 339.509 348.005 340.328 349.002 341.362L349.528 341.908L338.298 352.74C338.964 353.355 339.708 353.838 340.53 354.192C341.333 354.526 342.157 354.71 343.003 354.744C343.85 354.741 344.699 354.587 345.552 354.282C346.385 353.959 347.176 353.437 347.922 352.716C348.727 351.941 349.354 351.039 349.806 350.013C350.257 348.986 350.492 347.927 350.512 346.836L352.904 347.246C352.879 348.601 352.583 349.903 352.015 351.153C351.446 352.404 350.588 353.583 349.439 354.691ZM345.879 342.378C345.38 341.861 344.777 341.427 344.068 341.076C343.36 340.687 342.602 340.457 341.795 340.386C340.988 340.277 340.158 340.356 339.307 340.623C338.455 340.89 337.637 341.402 336.852 342.159C336.105 342.879 335.593 343.651 335.314 344.474C335.036 345.297 334.918 346.113 334.96 346.923C335.021 347.714 335.214 348.489 335.539 349.248C335.864 349.968 336.276 350.606 336.774 351.161L345.879 342.378Z" fill="white"/>
<path d="M360.16 342.819L344.719 331.283L351.072 322.779C352.091 321.415 353.26 320.628 354.58 320.418C355.877 320.192 357.112 320.517 358.285 321.393C359.222 322.093 359.799 322.922 360.013 323.88C360.244 324.816 360.219 325.694 359.938 326.514C360.332 326.21 360.773 325.975 361.262 325.809C361.751 325.643 362.262 325.56 362.794 325.559C363.326 325.558 363.85 325.634 364.367 325.787C364.883 325.94 365.365 326.184 365.813 326.519C367.07 327.458 367.788 328.609 367.966 329.971C368.144 331.332 367.7 332.727 366.633 334.155L360.16 342.819ZM364.165 333.058C364.738 332.291 364.989 331.532 364.919 330.782C364.827 330.016 364.408 329.355 363.662 328.797C363.044 328.336 362.33 328.135 361.522 328.195C360.713 328.255 360.006 328.69 359.401 329.5L355.078 335.286L359.842 338.845L364.165 333.058ZM357.22 328.019C357.777 327.273 357.996 326.557 357.878 325.871C357.776 325.164 357.415 324.579 356.797 324.117C356.115 323.608 355.431 323.412 354.745 323.53C354.053 323.611 353.429 324.025 352.872 324.771L348.62 330.462L352.968 333.71L357.22 328.019Z" fill="white"/>
<path d="M374.097 323.178L357.007 314.264L358.392 311.61L365.503 315.32L370.154 306.403L363.043 302.694L364.427 300.04L381.516 308.954L380.132 311.608L372.49 307.622L367.839 316.538L375.481 320.524L374.097 323.178Z" fill="white"/>
<path d="M388.336 290.65L386.256 289.949C387.428 292.056 387.594 294.358 386.753 296.854C386.49 297.635 386.105 298.362 385.598 299.033C385.092 299.705 384.484 300.258 383.776 300.694C383.043 301.121 382.235 301.396 381.351 301.52C380.467 301.643 379.534 301.539 378.55 301.208C377.542 300.869 376.723 300.383 376.094 299.75C375.465 299.117 375 298.413 374.699 297.638C374.399 296.863 374.262 296.059 374.29 295.227C374.292 294.385 374.425 293.574 374.688 292.792C375.113 291.532 375.696 290.465 376.439 289.592C377.191 288.694 378.118 288.024 379.222 287.581L375.931 286.474C374.696 286.058 373.602 286.181 372.649 286.842C371.68 287.47 370.97 288.453 370.52 289.789C369.799 291.932 370.015 294.082 371.17 296.24L368.758 296.901C367.394 294.281 367.205 291.508 368.189 288.583C368.512 287.625 368.931 286.756 369.446 285.975C369.962 285.194 370.578 284.573 371.294 284.113C371.994 283.618 372.798 283.314 373.707 283.198C374.616 283.083 375.625 283.213 376.735 283.586L389.291 287.813L388.336 290.65ZM385.055 295.145C385.394 294.136 385.523 293.127 385.442 292.117C385.37 291.082 385.048 290.16 384.479 289.351L381.037 288.192C380.094 288.492 379.28 289.033 378.597 289.813C377.921 290.568 377.414 291.45 377.074 292.459C376.625 293.795 376.638 295.006 377.114 296.093C377.565 297.171 378.383 297.91 379.568 298.309C380.728 298.699 381.826 298.606 382.863 298.028C383.874 297.443 384.605 296.481 385.055 295.145Z" fill="white"/>
<path d="M363.006 152.821L358.954 167.948L362.971 168.409L370.306 163.299L372.199 166.017L350.358 181.231L348.465 178.514L359.762 170.644L341.736 168.854L339.364 165.448L356.085 167.321L360.657 149.448L363.006 152.821Z" fill="white"/>
<path d="M350.771 138.287C351.801 139.326 352.548 140.458 353.012 141.683C353.458 142.89 353.65 144.104 353.587 145.326C353.506 146.568 353.19 147.779 352.639 148.962C352.069 150.126 351.283 151.204 350.281 152.196C349.299 153.17 348.223 153.936 347.054 154.495C345.847 155.053 344.632 155.358 343.409 155.408C342.186 155.459 340.974 155.256 339.772 154.799C338.551 154.322 337.426 153.565 336.396 152.525C335.367 151.485 334.629 150.363 334.183 149.157C333.719 147.932 333.518 146.708 333.58 145.485C333.642 144.263 333.968 143.06 334.556 141.878C335.108 140.695 335.875 139.617 336.857 138.644C337.859 137.651 338.954 136.885 340.142 136.345C341.311 135.787 342.516 135.473 343.758 135.403C344.981 135.353 346.203 135.565 347.423 136.041C348.625 136.499 349.741 137.247 350.771 138.287ZM348.871 140.168C348.141 139.431 347.363 138.929 346.536 138.662C345.672 138.394 344.817 138.305 343.97 138.395C343.085 138.485 342.228 138.754 341.398 139.201C340.549 139.63 339.775 140.191 339.076 140.884C338.377 141.576 337.818 142.336 337.4 143.161C336.945 143.987 336.678 144.832 336.598 145.697C336.481 146.562 336.562 147.418 336.84 148.266C337.08 149.114 337.566 149.906 338.296 150.643C339.026 151.381 339.823 151.883 340.687 152.15C341.533 152.437 342.397 152.535 343.282 152.445C344.129 152.355 344.977 152.095 345.825 151.667C346.636 151.238 347.392 150.677 348.091 149.985C348.79 149.292 349.368 148.533 349.823 147.707C350.26 146.863 350.537 146.008 350.654 145.143C350.733 144.278 350.643 143.412 350.384 142.546C350.106 141.698 349.601 140.905 348.871 140.168Z" fill="white"/>
<path d="M338.161 127.236L326.888 142.871L324.461 141.121L329.152 134.614L320.994 128.733L316.303 135.239L313.876 133.489L325.148 117.854L327.576 119.604L322.535 126.596L330.692 132.478L335.733 125.486L338.161 127.236Z" fill="white"/>
<path d="M310.93 109.445C312.209 110.099 313.266 110.924 314.101 111.92C314.9 112.927 315.473 114.027 315.818 115.22C316.14 116.401 316.235 117.646 316.104 118.953C315.937 120.272 315.526 121.571 314.871 122.85C314.216 124.129 313.409 125.21 312.448 126.093C311.464 126.964 310.399 127.614 309.253 128.043C308.083 128.461 306.862 128.627 305.589 128.544C304.281 128.472 302.988 128.109 301.709 127.454C300.146 126.654 299.025 125.721 298.345 124.655C297.641 123.578 297.176 122.443 296.95 121.251L299.562 120.526C299.73 121.599 300.091 122.501 300.643 123.232C301.171 123.951 301.886 124.54 302.786 125.001C303.709 125.474 304.623 125.733 305.527 125.777C306.407 125.809 307.259 125.663 308.083 125.337C308.907 125.012 309.667 124.52 310.364 123.86C311.036 123.188 311.615 122.379 312.1 121.431C312.585 120.484 312.91 119.529 313.074 118.567C313.202 117.617 313.157 116.712 312.939 115.853C312.721 114.994 312.342 114.217 311.801 113.522C311.237 112.815 310.493 112.225 309.569 111.752C307.769 110.83 305.931 110.831 304.054 111.753L303.115 109.209C304.214 108.696 305.407 108.41 306.693 108.351C307.954 108.28 309.367 108.644 310.93 109.445Z" fill="white"/>
<path d="M295.607 103.338L290.029 119.016L295.293 120.889L294.41 123.37L281.025 118.609L281.908 116.127L287.209 118.013L292.787 102.335L295.607 103.338Z" fill="white"/>
<path d="M269.853 96.2732L269.401 98.4211C271.356 97.0108 273.623 96.5766 276.2 97.1187C277.007 97.2884 277.774 97.5856 278.5 98.0102C279.226 98.4348 279.847 98.9732 280.362 99.6253C280.872 100.303 281.24 101.074 281.467 101.937C281.693 102.8 281.699 103.74 281.486 104.755C281.267 105.796 280.88 106.667 280.325 107.365C279.77 108.064 279.126 108.608 278.391 108.998C277.657 109.387 276.875 109.617 276.044 109.687C275.209 109.783 274.387 109.746 273.58 109.576C272.278 109.303 271.151 108.848 270.197 108.212C269.217 107.571 268.443 106.729 267.874 105.685L267.159 109.082C266.891 110.358 267.141 111.43 267.91 112.299C268.647 113.188 269.706 113.777 271.086 114.068C273.299 114.533 275.409 114.066 277.416 112.667L278.356 114.985C275.913 116.646 273.181 117.159 270.161 116.524C269.172 116.316 268.26 116.002 267.424 115.581C266.588 115.161 265.899 114.622 265.358 113.964C264.785 113.327 264.388 112.564 264.167 111.675C263.946 110.785 263.957 109.768 264.197 108.623L266.924 95.6572L269.853 96.2732ZM274.702 99.0057C273.661 98.7867 272.643 98.7767 271.65 98.9755C270.631 99.169 269.752 99.596 269.015 100.257L268.268 103.81C268.676 104.712 269.308 105.456 270.163 106.044C270.992 106.626 271.928 107.027 272.969 107.246C274.349 107.536 275.551 107.381 276.574 106.781C277.592 106.206 278.23 105.307 278.487 104.084C278.739 102.886 278.517 101.806 277.822 100.845C277.122 99.9089 276.082 99.2959 274.702 99.0057Z" fill="white"/>
<path d="M258.688 94.5564L257.717 113.807L254.728 113.656L255.132 105.645L245.089 105.138L244.685 113.149L241.695 112.998L242.666 93.7482L245.656 93.899L245.221 102.508L255.265 103.014L255.699 94.4056L258.688 94.5564Z" fill="white"/>
<path d="M231.271 94.4308L232.766 111.005L238.33 110.503L238.566 113.126L224.417 114.402L224.181 111.779L229.785 111.273L228.29 94.6995L231.271 94.4308Z" fill="white"/>
<path d="M216.507 96.129L220.947 114.885L218.034 115.575L214.642 101.245L208.21 117.901L205.336 118.581L200.896 99.8245L203.808 99.135L207.265 113.736L213.711 96.7909L216.507 96.129Z" fill="white"/>
<path d="M193.177 102.316L200.551 120.125L197.786 121.27L194.717 113.859L185.426 117.706L188.495 125.117L185.73 126.262L178.355 108.454L181.12 107.309L184.418 115.273L193.71 111.425L190.412 103.461L193.177 102.316Z" fill="white"/>
<path d="M163.188 116.47C164.429 115.695 165.698 115.216 166.996 115.033C168.27 114.864 169.497 114.945 170.676 115.275C171.869 115.628 172.981 116.203 174.013 117.002C175.022 117.814 175.9 118.818 176.647 120.014C177.38 121.188 177.89 122.406 178.178 123.669C178.457 124.97 178.486 126.222 178.266 127.426C178.045 128.63 177.58 129.768 176.869 130.839C176.135 131.925 175.148 132.855 173.907 133.63C172.666 134.405 171.408 134.877 170.133 135.046C168.836 135.229 167.598 135.156 166.419 134.825C165.241 134.495 164.14 133.912 163.116 133.077C162.084 132.279 161.202 131.293 160.469 130.12C159.722 128.924 159.216 127.687 158.951 126.41C158.664 125.146 158.623 123.901 158.83 122.675C159.05 121.47 159.527 120.326 160.26 119.24C160.971 118.169 161.947 117.245 163.188 116.47ZM164.605 118.738C163.725 119.288 163.063 119.936 162.62 120.683C162.169 121.467 161.894 122.282 161.795 123.128C161.687 124.011 161.761 124.906 162.014 125.814C162.245 126.736 162.621 127.615 163.143 128.45C163.664 129.285 164.282 129.997 164.995 130.586C165.7 131.213 166.465 131.66 167.292 131.928C168.109 132.233 168.962 132.343 169.851 132.259C170.731 132.211 171.61 131.912 172.49 131.362C173.37 130.813 174.036 130.146 174.488 129.362C174.953 128.601 175.24 127.779 175.347 126.896C175.446 126.05 175.38 125.166 175.149 124.244C174.909 123.358 174.529 122.498 174.007 121.663C173.486 120.828 172.873 120.098 172.168 119.472C171.441 118.86 170.668 118.401 169.85 118.096C169.024 117.828 168.16 117.725 167.257 117.787C166.369 117.871 165.485 118.188 164.605 118.738Z" fill="white"/>
<path d="M149.794 126.198L162.499 140.693L154.516 147.69C153.236 148.812 151.929 149.339 150.595 149.27C149.278 149.221 148.138 148.647 147.173 147.546C146.402 146.666 146.01 145.735 146 144.754C145.969 143.791 146.176 142.937 146.62 142.193C146.173 142.409 145.692 142.547 145.179 142.608C144.666 142.668 144.149 142.644 143.629 142.534C143.108 142.424 142.611 142.241 142.138 141.983C141.665 141.726 141.244 141.387 140.876 140.967C139.841 139.787 139.378 138.512 139.487 137.143C139.596 135.774 140.321 134.502 141.661 133.327L149.794 126.198ZM143.847 134.913C143.127 135.544 142.723 136.234 142.637 136.983C142.567 137.751 142.839 138.485 143.453 139.185C143.962 139.766 144.618 140.11 145.421 140.22C146.225 140.329 147.007 140.051 147.767 139.384L153.198 134.623L149.279 130.152L143.847 134.913ZM149.593 141.286C148.893 141.9 148.529 142.555 148.502 143.25C148.455 143.964 148.686 144.611 149.195 145.191C149.756 145.831 150.384 146.164 151.08 146.191C151.773 146.256 152.47 145.981 153.17 145.367L158.512 140.685L154.935 136.604L149.593 141.286Z" fill="white"/>
<path d="M124.416 151.873L126.106 153.273C125.769 150.887 126.441 148.679 128.121 146.651C128.648 146.016 129.268 145.476 129.982 145.031C130.696 144.587 131.462 144.288 132.279 144.136C133.116 144.001 133.97 144.034 134.839 144.236C135.708 144.438 136.542 144.87 137.341 145.532C138.16 146.211 138.75 146.959 139.11 147.776C139.47 148.592 139.651 149.416 139.653 150.247C139.656 151.078 139.494 151.877 139.169 152.645C138.865 153.429 138.45 154.139 137.923 154.774C137.075 155.798 136.147 156.584 135.14 157.132C134.116 157.7 133.01 157.993 131.821 158.01L134.495 160.225C135.498 161.057 136.564 161.335 137.69 161.059C138.821 160.821 139.836 160.159 140.735 159.073C142.178 157.332 142.748 155.248 142.445 152.82L144.934 153.068C145.266 156.004 144.447 158.659 142.478 161.036C141.833 161.814 141.13 162.475 140.368 163.019C139.607 163.563 138.809 163.921 137.975 164.093C137.144 164.303 136.284 164.299 135.394 164.08C134.505 163.861 133.609 163.378 132.708 162.631L122.506 154.177L124.416 151.873ZM129.093 148.856C128.414 149.675 127.931 150.571 127.644 151.542C127.341 152.534 127.309 153.51 127.55 154.47L130.346 156.787C131.334 156.846 132.288 156.634 133.206 156.151C134.107 155.689 134.898 155.048 135.577 154.228C136.476 153.143 136.899 152.007 136.845 150.822C136.811 149.654 136.312 148.671 135.35 147.873C134.407 147.092 133.349 146.785 132.174 146.952C131.02 147.135 129.993 147.77 129.093 148.856Z" fill="white"/>
<defs>
<clipPath id="clip0_0_76">
<rect width="23.9438" height="23.9438" fill="white" transform="translate(97.9676 214.494)"/>
</clipPath>
<clipPath id="clip1_0_76">
<rect width="23.9438" height="23.9438" fill="white" transform="translate(370.927 214.494)"/>
</clipPath>
</defs>
</svg>
