<svg width="335" height="261" viewBox="0 0 335 261" fill="none" xmlns="http://www.w3.org/2000/svg">
<path d="M127.205 165.433C129.387 139.682 94.3725 142.693 78.1673 151.361C76.2498 152.387 46.2179 183.368 60.6843 183.626C71.7977 183.825 93.9072 168.748 98.4931 165.433C138.947 136.186 182.286 98.2088 205.807 53.2857C216.959 31.9889 218.716 16.9225 189.319 25.8531C135.902 42.0811 87.8625 85.0122 43.0592 116.537C30.8934 125.098 20.1605 136.688 6.10327 141.554C-13.0655 148.189 40.178 119.509 57.6994 109.288C88.6206 91.2508 107.093 80.9474 138.718 63.3776C164.405 49.1069 195.85 35.8094 219.026 17.0405C222.555 14.1832 230.612 6.25786 219.879 3.67951C193.839 -2.57605 160.214 9.86629 137.723 20.8782C101.982 38.3783 65.4371 64.9491 39.6479 95.5008C26.1128 111.535 16.7032 133.594 46.3284 133.594C100.581 133.594 156.059 106.912 207.087 90.9524C233.252 82.7684 216.618 92.3421 208.366 102.181C204.992 106.204 206.087 107.614 211.919 107.44C232.59 106.823 254.138 97.2772 273.607 91.5209C278.477 90.0812 328.608 82.6012 331.316 76.17C334.563 68.4562 332.939 51.6574 331.884 43.4782C331.486 40.3914 272.917 97.6358 271.333 99.1964C221.495 148.309 171.612 198.294 114.697 239.345C108.227 244.011 101.506 248.336 94.6554 252.421C90.4388 254.936 82.8334 262.523 81.0101 257.965C78.5606 251.841 93.0192 252.506 99.0617 249.863" stroke="#C8CFE8" stroke-width="3" stroke-linecap="round"/>
</svg>
