<svg width="470" height="513" viewBox="0 0 470 513" fill="none" xmlns="http://www.w3.org/2000/svg">
<circle cx="239.837" cy="243.993" r="176.386" stroke="white" stroke-width="2.39438"/>
<circle cx="240.236" cy="244.392" r="166.809" stroke="white" stroke-width="1.59626"/>
<circle cx="240.236" cy="244.392" r="114.531" stroke="white" stroke-width="2.39438"/>
<path d="M155.65 266.32V218.409H176.984C179.043 218.409 180.91 218.72 182.587 219.342C184.263 219.917 185.675 220.755 186.825 221.857C187.974 222.91 188.86 224.203 189.482 225.735C190.105 227.22 190.416 228.848 190.416 230.62C190.416 232.152 190.177 233.541 189.698 234.786C189.267 236.031 188.644 237.133 187.83 238.091C187.064 239 186.178 239.767 185.173 240.389C184.167 240.964 183.113 241.371 182.012 241.61C183.305 241.802 184.502 242.257 185.603 242.975C186.753 243.693 187.734 244.579 188.549 245.633C189.411 246.686 190.081 247.884 190.56 249.224C191.087 250.565 191.35 251.954 191.35 253.391C191.35 255.306 191.039 257.054 190.416 258.634C189.794 260.215 188.884 261.579 187.687 262.729C186.489 263.878 185.029 264.764 183.305 265.387C181.629 266.009 179.689 266.32 177.487 266.32H155.65ZM175.978 239.168C178.708 239.168 180.767 238.45 182.156 237.013C183.544 235.529 184.239 233.685 184.239 231.482C184.239 229.327 183.544 227.507 182.156 226.023C180.767 224.49 178.708 223.724 175.978 223.724H161.612V239.168H175.978ZM176.265 261.005C179.091 261.005 181.27 260.286 182.802 258.85C184.382 257.365 185.173 255.33 185.173 252.744C185.173 251.643 184.981 250.589 184.598 249.584C184.215 248.578 183.64 247.716 182.874 246.998C182.156 246.231 181.246 245.633 180.144 245.202C179.043 244.723 177.75 244.484 176.265 244.484H161.612V261.005H176.265ZM200.825 266.32V218.409H220.076C222.47 218.409 224.601 218.792 226.469 219.558C228.337 220.324 229.893 221.378 231.138 222.719C232.431 224.012 233.413 225.544 234.083 227.316C234.753 229.04 235.089 230.883 235.089 232.847C235.089 234.81 234.753 236.678 234.083 238.45C233.413 240.174 232.431 241.706 231.138 243.047C229.845 244.34 228.265 245.369 226.397 246.136C224.529 246.902 222.422 247.285 220.076 247.285H206.787V266.32H200.825ZM219.358 241.969C222.231 241.969 224.529 241.131 226.253 239.455C228.025 237.779 228.911 235.576 228.911 232.847C228.911 230.117 228.025 227.914 226.253 226.238C224.529 224.562 222.231 223.724 219.358 223.724H206.787V241.969H219.358ZM271.634 266.32L267.396 255.689H243.548L239.31 266.32H232.486L251.737 218.409H259.135L278.458 266.32H271.634ZM255.472 224.586L245.272 250.374H265.6L255.472 224.586ZM284.407 230.907C284.407 234.595 285.341 237.372 287.209 239.24C289.124 241.06 291.902 241.969 295.541 241.969C297.552 241.969 299.516 241.826 301.431 241.538C303.347 241.251 305.071 240.844 306.603 240.317V218.409H312.565V266.32H306.603V245.633C305.023 246.064 303.275 246.447 301.359 246.782C299.444 247.117 297.337 247.285 295.038 247.285C292.213 247.285 289.747 246.902 287.64 246.136C285.58 245.322 283.857 244.196 282.468 242.76C281.127 241.323 280.121 239.599 279.451 237.588C278.78 235.529 278.445 233.278 278.445 230.836V218.409H284.407V230.907Z" fill="white"/>
<path d="M137.345 487.527C138.203 490.369 142.472 502.537 147.982 497.846C150.63 495.592 151.378 488.241 151.634 485.78C153.152 471.171 152.861 456.134 152.983 441.484C153.211 414.18 154.128 386.525 152.745 359.243C152.732 358.977 152.352 346.328 149.729 344.636C148.568 343.888 146.769 344.884 145.759 345.827C139.263 351.898 135.149 364.8 132.82 371.786C118.724 414.073 99.9903 546.889 105.115 502.609C108.816 470.637 122.904 440.857 134.566 411.239C137.107 404.787 172.576 325.967 159.731 321.139C156.675 319.99 153.025 322.377 150.523 324.473C144.032 329.908 138.404 336.397 133.376 343.208C119.605 361.858 97.8684 398.928 88.4447 419.574C82.6397 432.293 71.6315 456.826 77.4898 473.237C84.3875 492.56 107.666 488.589 120.436 480.938C130.214 475.08 151.841 455.58 159.969 448.867C172.488 438.527 185.443 428.916 198.47 419.257C205.931 413.724 211.606 407.315 215.299 398.697C222.403 382.121 225.622 363.453 229.588 345.986C233.019 330.878 235.267 320.359 238.479 305.262C240.237 297.002 241.332 277.717 246.418 269.857C249.565 264.994 245.54 281.414 244.83 287.163C240.248 324.244 236.27 361.253 233.637 398.538C231.41 430.068 230.009 461.659 228.794 493.242" stroke="#FFCC97" stroke-width="2.39438" stroke-linecap="round"/>
<g clip-path="url(#clip0_123_77)">
<path d="M108.691 216.991C108.691 216.163 109.36 215.494 110.188 215.494H111.684C112.512 215.494 113.181 216.163 113.181 216.991V223.58L118.886 220.288C119.602 219.876 120.518 220.119 120.93 220.835L121.678 222.13C122.09 222.846 121.847 223.762 121.131 224.174L115.426 227.466L121.131 230.758C121.847 231.17 122.09 232.086 121.678 232.802L120.93 234.097C120.518 234.813 119.602 235.061 118.886 234.645L113.181 231.352V237.941C113.181 238.769 112.512 239.438 111.684 239.438H110.188C109.36 239.438 108.691 238.769 108.691 237.941V231.352L102.986 234.649C102.271 235.061 101.354 234.818 100.942 234.102L100.194 232.807C99.7827 232.091 100.026 231.175 100.741 230.763L106.447 227.466L100.741 224.174C100.026 223.762 99.7827 222.846 100.194 222.13L100.942 220.835C101.354 220.115 102.271 219.871 102.986 220.283L108.691 223.575V216.991Z" fill="white"/>
</g>
<g clip-path="url(#clip1_123_77)">
<path d="M381.652 216.991C381.652 216.163 382.321 215.494 383.149 215.494H384.645C385.473 215.494 386.142 216.163 386.142 216.991V223.58L391.847 220.288C392.563 219.876 393.479 220.119 393.891 220.835L394.639 222.13C395.051 222.846 394.808 223.762 394.092 224.174L388.387 227.466L394.092 230.758C394.808 231.17 395.051 232.086 394.639 232.802L393.891 234.097C393.479 234.813 392.563 235.061 391.847 234.645L386.142 231.352V237.941C386.142 238.769 385.473 239.438 384.645 239.438H383.149C382.321 239.438 381.652 238.769 381.652 237.941V231.352L375.947 234.649C375.232 235.061 374.315 234.818 373.903 234.102L373.155 232.807C372.744 232.091 372.987 231.175 373.702 230.763L379.408 227.466L373.702 224.174C372.987 223.762 372.744 222.846 373.155 222.13L373.903 220.835C374.315 220.115 375.232 219.871 375.947 220.283L381.652 223.575V216.991Z" fill="white"/>
</g>
<path d="M112.645 321.411L132.401 311.94L108.729 313.243L108.142 312.019L123.999 294.416L104.243 303.887L102.811 300.9L126.813 289.393L128.866 293.675L114.373 309.785L136.026 308.609L138.079 312.891L114.077 324.398L112.645 321.411Z" fill="white"/>
<path d="M126.459 341.502L128.215 340.185C125.815 339.956 123.825 338.789 122.245 336.682C121.75 336.022 121.369 335.293 121.103 334.495C120.837 333.697 120.725 332.883 120.768 332.053C120.831 331.207 121.063 330.384 121.462 329.586C121.861 328.788 122.475 328.078 123.305 327.455C124.157 326.817 125.021 326.418 125.899 326.258C126.777 326.098 127.621 326.114 128.429 326.306C129.238 326.497 129.978 326.84 130.648 327.335C131.34 327.814 131.933 328.383 132.428 329.043C133.226 330.107 133.774 331.192 134.073 332.299C134.387 333.427 134.413 334.571 134.153 335.731L136.93 333.648C137.973 332.866 138.491 331.894 138.486 330.735C138.518 329.58 138.111 328.439 137.265 327.311C135.908 325.502 134.013 324.462 131.582 324.19L132.404 321.828C135.336 322.189 137.727 323.605 139.579 326.073C140.186 326.882 140.665 327.72 141.016 328.587C141.367 329.455 141.53 330.314 141.503 331.165C141.514 332.022 141.309 332.857 140.889 333.671C140.468 334.486 139.79 335.244 138.854 335.946L128.255 343.896L126.459 341.502ZM124.615 336.251C125.254 337.102 126.012 337.78 126.89 338.286C127.784 338.812 128.725 339.07 129.715 339.06L132.62 336.881C132.907 335.933 132.923 334.957 132.668 333.951C132.428 332.967 131.989 332.049 131.351 331.198C130.505 330.07 129.499 329.394 128.334 329.171C127.19 328.932 126.118 329.187 125.117 329.937C124.138 330.672 123.593 331.629 123.481 332.811C123.391 333.976 123.769 335.123 124.615 336.251Z" fill="white"/>
<path d="M140.134 357.113C139.179 356.186 138.505 355.124 138.111 353.926C137.717 352.728 137.623 351.468 137.829 350.148L130.685 357.508L128.538 355.423L147.077 336.323L149.225 338.408L147.223 340.47C148.405 340.245 149.62 340.312 150.867 340.67C152.132 341.008 153.252 341.65 154.226 342.595C155.142 343.485 155.806 344.462 156.217 345.529C156.665 346.594 156.851 347.702 156.774 348.85C156.735 349.999 156.423 351.16 155.838 352.336C155.273 353.529 154.443 354.689 153.35 355.816C152.257 356.942 151.122 357.805 149.946 358.406C148.788 359.025 147.627 359.381 146.462 359.474C145.316 359.585 144.194 359.442 143.097 359.044C142.038 358.646 141.05 358.002 140.134 357.113ZM141.452 354.666C142.139 355.333 142.889 355.802 143.702 356.072C144.515 356.342 145.344 356.424 146.189 356.317C147.034 356.211 147.867 355.925 148.688 355.462C149.547 354.997 150.347 354.383 151.088 353.62C151.829 352.856 152.41 352.048 152.83 351.195C153.269 350.361 153.529 349.52 153.611 348.672C153.692 347.824 153.586 346.998 153.291 346.193C152.997 345.388 152.507 344.653 151.819 343.986C150.96 343.152 149.936 342.584 148.746 342.282C147.594 341.979 146.53 341.948 145.556 342.188L139.496 348.43C139.285 349.412 139.339 350.483 139.657 351.645C139.994 352.825 140.593 353.832 141.452 354.666Z" fill="white"/>
<path d="M152.069 367.051L163.083 351.233L165.539 352.943L157.125 365.028L173.825 358.713L176.248 360.4L165.234 376.218L162.778 374.508L171.352 362.194L154.427 368.693L152.069 367.051Z" fill="white"/>
<path d="M171.778 380.086L179.697 375.473C178.482 374.684 177.673 373.633 177.27 372.319C176.878 370.981 177.033 369.58 177.734 368.116C178.09 367.372 178.544 366.734 179.094 366.201C179.644 365.668 180.262 365.271 180.948 365.01C181.658 364.76 182.412 364.664 183.21 364.722C184.044 364.767 184.905 365.002 185.792 365.428L194.97 369.824L186.642 387.207L183.943 385.914L187.167 379.184L182.416 376.908L174.945 381.604L171.778 380.086ZM188.305 376.809L191.132 370.906L184.942 367.941C183.983 367.481 183.107 367.401 182.314 367.7C181.522 367.999 180.919 368.58 180.505 369.444C180.092 370.307 180.004 371.136 180.244 371.929C180.483 372.722 181.107 373.36 182.115 373.843L188.305 376.809Z" fill="white"/>
<path d="M224.181 397.534L223.033 391.281L210.042 388.679L206.573 394.007L202.856 393.263L218.57 369.264L222.601 370.072L227.898 398.279L224.181 397.534ZM219.931 373.037L211.561 385.971L222.634 388.189L219.931 373.037Z" fill="white"/>
<path d="M231.876 396.529C232.78 396.548 233.537 395.978 234.146 394.82C234.756 393.661 235.276 391.663 235.706 388.825L237.138 379.354L250.544 379.629L250.148 398.9L247.156 398.839L247.497 382.201L239.717 382.042L238.691 389.245C238.441 391.049 238.117 392.573 237.719 393.815C237.321 395.058 236.835 396.072 236.26 396.859C235.712 397.619 235.062 398.178 234.31 398.535C233.584 398.866 232.756 399.022 231.825 399.003L231.876 396.529Z" fill="white"/>
<path d="M267.026 397.7C265.604 397.904 264.266 397.855 263.013 397.552C261.756 397.222 260.63 396.686 259.636 395.942C258.664 395.168 257.841 394.211 257.166 393.072C256.514 391.903 256.08 390.568 255.864 389.067C255.667 387.697 255.718 386.373 256.017 385.093C256.313 383.787 256.805 382.628 257.492 381.615C258.206 380.598 259.091 379.745 260.147 379.055C261.23 378.362 262.456 377.917 263.825 377.719C265.273 377.511 266.602 377.588 267.81 377.952C269.018 378.315 270.083 378.901 271.006 379.709C271.929 380.517 272.679 381.524 273.256 382.731C273.855 383.908 274.258 385.208 274.462 386.63L274.57 387.38L259.126 389.605C259.308 390.492 259.629 391.32 260.089 392.087C260.545 392.827 261.106 393.459 261.773 393.981C262.462 394.473 263.241 394.845 264.11 395.096C264.976 395.32 265.922 395.359 266.949 395.211C268.055 395.052 269.091 394.687 270.058 394.118C271.024 393.549 271.834 392.827 272.488 391.954L274.188 393.684C273.377 394.769 272.375 395.652 271.183 396.335C269.991 397.017 268.606 397.472 267.026 397.7ZM271.335 385.629C271.232 384.918 270.996 384.212 270.627 383.513C270.28 382.784 269.799 382.154 269.185 381.624C268.594 381.064 267.875 380.644 267.028 380.362C266.181 380.081 265.218 380.018 264.138 380.174C263.111 380.322 262.245 380.648 261.538 381.153C260.831 381.658 260.258 382.251 259.819 382.933C259.405 383.611 259.109 384.352 258.929 385.158C258.772 385.933 258.734 386.691 258.814 387.432L271.335 385.629Z" fill="white"/>
<path d="M295.302 390.395L286.109 384.173L283.991 388.129L285.618 393.39L282.759 394.274L277.063 375.86L279.922 374.976L282.953 384.774L289.606 371.981L293.228 370.86L287.652 381.733L298.962 389.262L295.302 390.395Z" fill="white"/>
<path d="M312.199 383.745C310.904 384.366 309.607 384.708 308.309 384.769C307.023 384.796 305.801 384.585 304.642 384.137C303.508 383.678 302.46 383 301.499 382.104C300.551 381.172 299.766 380.058 299.145 378.763C298.524 377.467 298.153 376.17 298.031 374.871C297.934 373.56 298.062 372.319 298.414 371.147C298.791 369.963 299.398 368.89 300.235 367.928C301.084 366.931 302.157 366.122 303.452 365.501C305.036 364.742 306.457 364.414 307.717 364.519C309 364.611 310.185 364.928 311.271 365.47L310.265 367.988C309.31 367.472 308.374 367.213 307.458 367.209C306.566 367.195 305.664 367.406 304.752 367.843C303.817 368.291 303.057 368.862 302.475 369.554C301.916 370.235 301.517 371.002 301.276 371.855C301.036 372.708 300.968 373.611 301.071 374.564C301.198 375.507 301.492 376.457 301.952 377.417C302.412 378.377 302.975 379.213 303.641 379.926C304.32 380.604 305.067 381.116 305.883 381.463C306.698 381.809 307.546 381.978 308.427 381.969C309.331 381.948 310.252 381.714 311.187 381.265C313.01 380.391 314.124 378.928 314.526 376.876L317.119 377.669C316.862 378.854 316.367 379.977 315.635 381.035C314.928 382.083 313.782 382.986 312.199 383.745Z" fill="white"/>
<path d="M331.105 372.728C329.919 373.539 328.697 374.085 327.439 374.365C326.165 374.624 324.918 374.639 323.698 374.41C322.485 374.144 321.324 373.649 320.216 372.924C319.114 372.163 318.136 371.156 317.28 369.904C316.498 368.763 315.96 367.551 315.664 366.271C315.354 364.969 315.283 363.711 315.453 362.499C315.645 361.272 316.063 360.116 316.707 359.031C317.372 357.93 318.276 356.99 319.418 356.209C320.626 355.383 321.852 354.866 323.096 354.659C324.341 354.453 325.556 354.508 326.74 354.826C327.925 355.144 329.042 355.717 330.092 356.546C331.15 357.338 332.084 358.326 332.895 359.512L333.323 360.138L320.445 368.948C320.999 369.664 321.652 370.265 322.403 370.751C323.14 371.214 323.922 371.533 324.75 371.708C325.586 371.845 326.449 371.835 327.34 371.677C328.216 371.497 329.082 371.114 329.939 370.528C330.861 369.897 331.63 369.113 332.246 368.176C332.862 367.239 333.271 366.234 333.472 365.161L335.762 365.964C335.512 367.295 335.003 368.53 334.234 369.668C333.466 370.807 332.423 371.826 331.105 372.728ZM329.647 359.994C329.241 359.401 328.718 358.872 328.078 358.407C327.445 357.906 326.736 357.553 325.951 357.348C325.173 357.107 324.343 357.046 323.459 357.168C322.574 357.289 321.682 357.658 320.782 358.273C319.926 358.859 319.292 359.535 318.88 360.3C318.469 361.065 318.216 361.85 318.123 362.655C318.051 363.446 318.112 364.242 318.306 365.044C318.507 365.809 318.807 366.506 319.206 367.136L329.647 359.994Z" fill="white"/>
<path d="M351.134 356.411C350.1 357.408 348.986 358.15 347.792 358.637C346.579 359.104 345.352 359.326 344.111 359.304C342.87 359.244 341.643 358.949 340.43 358.419C339.217 357.852 338.084 357.022 337.031 355.931C336.071 354.935 335.338 353.831 334.833 352.617C334.31 351.385 334.031 350.157 333.997 348.933C333.981 347.691 334.201 346.482 334.655 345.304C335.128 344.109 335.862 343.031 336.858 342.07C337.911 341.055 339.034 340.341 340.227 339.93C341.419 339.518 342.626 339.371 343.847 339.487C345.068 339.603 346.265 339.982 347.439 340.624C348.614 341.229 349.7 342.048 350.697 343.082L351.223 343.628L339.993 354.46C340.659 355.074 341.403 355.558 342.225 355.912C343.028 356.246 343.852 356.43 344.698 356.464C345.545 356.461 346.394 356.307 347.247 356.002C348.08 355.678 348.871 355.156 349.617 354.436C350.422 353.66 351.049 352.759 351.501 351.733C351.952 350.706 352.187 349.647 352.207 348.556L354.598 348.966C354.574 350.32 354.278 351.623 353.71 352.873C353.141 354.123 352.283 355.303 351.134 356.411ZM347.574 344.098C347.075 343.581 346.472 343.147 345.763 342.795C345.055 342.406 344.297 342.176 343.49 342.105C342.682 341.997 341.853 342.076 341.002 342.343C340.15 342.609 339.332 343.122 338.547 343.879C337.8 344.599 337.288 345.371 337.009 346.194C336.731 347.016 336.613 347.833 336.655 348.643C336.716 349.434 336.909 350.209 337.234 350.967C337.559 351.688 337.971 352.326 338.469 352.88L347.574 344.098Z" fill="white"/>
<path d="M361.961 344.418L346.52 332.882L352.873 324.378C353.892 323.014 355.061 322.227 356.38 322.017C357.678 321.791 358.913 322.116 360.085 322.991C361.023 323.692 361.599 324.521 361.814 325.478C362.045 326.414 362.02 327.292 361.739 328.112C362.132 327.808 362.574 327.573 363.063 327.407C363.552 327.242 364.063 327.158 364.595 327.157C365.127 327.156 365.651 327.232 366.167 327.386C366.684 327.539 367.166 327.783 367.613 328.117C368.871 329.057 369.589 330.207 369.767 331.569C369.945 332.931 369.501 334.326 368.434 335.754L361.961 344.418ZM365.965 334.657C366.539 333.89 366.79 333.131 366.719 332.381C366.628 331.615 366.209 330.953 365.463 330.396C364.845 329.934 364.131 329.733 363.323 329.793C362.514 329.853 361.807 330.288 361.202 331.098L356.879 336.885L361.642 340.444L365.965 334.657ZM359.02 329.618C359.578 328.872 359.797 328.156 359.679 327.47C359.576 326.762 359.216 326.178 358.598 325.716C357.916 325.206 357.232 325.011 356.546 325.129C355.854 325.21 355.23 325.624 354.672 326.37L350.421 332.06L354.769 335.308L359.02 329.618Z" fill="white"/>
<path d="M375.985 324.64L358.895 315.726L360.28 313.072L367.391 316.782L372.042 307.866L364.93 304.156L366.315 301.502L383.404 310.417L382.02 313.071L374.377 309.084L369.727 318L377.369 321.987L375.985 324.64Z" fill="white"/>
<path d="M390.286 291.968L388.205 291.268C389.377 293.375 389.543 295.676 388.702 298.173C388.439 298.954 388.054 299.681 387.547 300.352C387.041 301.024 386.433 301.577 385.725 302.013C384.992 302.44 384.184 302.715 383.3 302.838C382.416 302.962 381.483 302.858 380.499 302.527C379.491 302.188 378.672 301.702 378.043 301.069C377.414 300.436 376.949 299.732 376.648 298.957C376.348 298.182 376.211 297.378 376.239 296.546C376.241 295.704 376.374 294.893 376.637 294.111C377.062 292.85 377.645 291.784 378.388 290.911C379.14 290.013 380.067 289.343 381.171 288.9L377.88 287.792C376.645 287.376 375.551 287.499 374.598 288.161C373.629 288.789 372.919 289.772 372.469 291.108C371.748 293.251 371.964 295.401 373.119 297.558L370.707 298.22C369.343 295.6 369.154 292.827 370.138 289.902C370.461 288.944 370.88 288.074 371.395 287.294C371.911 286.513 372.527 285.892 373.243 285.431C373.943 284.937 374.747 284.632 375.656 284.517C376.565 284.402 377.574 284.531 378.684 284.905L391.24 289.132L390.286 291.968ZM387.004 296.464C387.343 295.455 387.472 294.446 387.391 293.436C387.319 292.401 386.997 291.479 386.428 290.67L382.986 289.511C382.043 289.811 381.229 290.351 380.546 291.132C379.87 291.887 379.363 292.769 379.024 293.777C378.574 295.114 378.587 296.325 379.063 297.412C379.514 298.49 380.332 299.229 381.517 299.628C382.677 300.018 383.775 299.925 384.812 299.347C385.823 298.761 386.554 297.8 387.004 296.464Z" fill="white"/>
<path d="M364.827 153.25L360.775 168.377L364.791 168.837L372.126 163.728L374.02 166.446L352.179 181.66L350.286 178.942L361.582 171.073L343.557 169.283L341.184 165.877L357.906 167.749L362.478 149.877L364.827 153.25Z" fill="white"/>
<path d="M352.481 138.583C353.51 139.623 354.257 140.755 354.722 141.98C355.168 143.186 355.359 144.4 355.297 145.623C355.216 146.864 354.9 148.076 354.349 149.258C353.779 150.422 352.993 151.5 351.991 152.492C351.008 153.466 349.932 154.232 348.763 154.791C347.557 155.35 346.342 155.654 345.119 155.705C343.896 155.755 342.683 155.552 341.482 155.095C340.261 154.619 339.136 153.861 338.106 152.821C337.077 151.782 336.339 150.659 335.893 149.453C335.429 148.228 335.227 147.004 335.29 145.782C335.352 144.559 335.677 143.357 336.266 142.174C336.817 140.992 337.584 139.914 338.567 138.94C339.569 137.948 340.664 137.182 341.852 136.642C343.021 136.083 344.226 135.769 345.468 135.7C346.691 135.649 347.913 135.862 349.133 136.338C350.335 136.795 351.451 137.543 352.481 138.583ZM350.581 140.465C349.851 139.727 349.073 139.225 348.246 138.958C347.382 138.69 346.526 138.602 345.679 138.692C344.795 138.782 343.938 139.05 343.108 139.498C342.259 139.927 341.485 140.487 340.786 141.18C340.087 141.873 339.528 142.632 339.11 143.458C338.655 144.283 338.387 145.129 338.308 145.994C338.191 146.858 338.272 147.715 338.55 148.563C338.79 149.41 339.276 150.203 340.006 150.94C340.736 151.677 341.533 152.179 342.397 152.447C343.242 152.733 344.107 152.831 344.992 152.741C345.839 152.651 346.687 152.392 347.535 151.963C348.346 151.534 349.101 150.974 349.801 150.281C350.5 149.588 351.077 148.829 351.533 148.003C351.97 147.159 352.246 146.304 352.363 145.439C352.443 144.575 352.353 143.709 352.094 142.842C351.815 141.994 351.311 141.202 350.581 140.465Z" fill="white"/>
<path d="M339.745 127.425L328.473 143.06L326.045 141.31L330.736 134.803L322.579 128.922L317.888 135.428L315.46 133.678L326.732 118.043L329.16 119.793L324.119 126.785L332.276 132.667L337.318 125.675L339.745 127.425Z" fill="white"/>
<path d="M312.386 109.554C313.664 110.209 314.721 111.034 315.557 112.03C316.356 113.037 316.929 114.137 317.274 115.33C317.596 116.511 317.691 117.755 317.56 119.063C317.393 120.382 316.982 121.681 316.327 122.96C315.672 124.239 314.865 125.32 313.904 126.203C312.92 127.074 311.855 127.724 310.709 128.153C309.539 128.57 308.318 128.737 307.045 128.654C305.737 128.582 304.444 128.218 303.165 127.564C301.602 126.763 300.481 125.831 299.801 124.765C299.097 123.688 298.632 122.553 298.405 121.361L301.018 120.636C301.186 121.709 301.546 122.61 302.099 123.341C302.627 124.06 303.341 124.65 304.241 125.111C305.165 125.584 306.079 125.842 306.982 125.887C307.863 125.919 308.715 125.772 309.539 125.447C310.363 125.122 311.123 124.629 311.82 123.97C312.492 123.298 313.071 122.488 313.556 121.541C314.041 120.594 314.366 119.639 314.529 118.677C314.657 117.726 314.613 116.822 314.395 115.963C314.177 115.104 313.798 114.327 313.257 113.632C312.693 112.925 311.949 112.334 311.025 111.862C309.225 110.94 307.387 110.94 305.51 111.862L304.571 109.319C305.67 108.806 306.863 108.52 308.148 108.461C309.41 108.39 310.823 108.754 312.386 109.554Z" fill="white"/>
<path d="M296.942 103.396L291.365 119.074L296.628 120.947L295.746 123.428L282.361 118.667L283.243 116.185L288.545 118.071L294.122 102.393L296.942 103.396Z" fill="white"/>
<path d="M271.059 96.2947L270.608 98.4426C272.563 97.0322 274.829 96.5981 277.406 97.1402C278.213 97.3099 278.98 97.6071 279.706 98.0317C280.433 98.4563 281.053 98.9947 281.569 99.6468C282.079 100.325 282.447 101.096 282.673 101.959C282.899 102.822 282.906 103.761 282.692 104.777C282.473 105.818 282.086 106.688 281.531 107.387C280.977 108.086 280.332 108.63 279.598 109.019C278.863 109.409 278.081 109.638 277.251 109.708C276.415 109.804 275.593 109.768 274.786 109.598C273.485 109.324 272.357 108.869 271.403 108.234C270.423 107.593 269.649 106.75 269.08 105.706L268.366 109.104C268.097 110.379 268.348 111.452 269.116 112.32C269.854 113.209 270.912 113.799 272.292 114.089C274.505 114.555 276.615 114.088 278.622 112.688L279.562 115.006C277.119 116.667 274.388 117.181 271.368 116.545C270.378 116.337 269.466 116.023 268.63 115.603C267.794 115.182 267.105 114.643 266.564 113.985C265.991 113.348 265.594 112.585 265.374 111.696C265.153 110.807 265.163 109.79 265.404 108.644L268.131 95.6787L271.059 96.2947ZM275.908 99.0272C274.867 98.8082 273.85 98.7981 272.856 98.997C271.837 99.1904 270.959 99.6174 270.222 100.278L269.474 103.832C269.883 104.733 270.515 105.478 271.37 106.065C272.199 106.648 273.134 107.048 274.175 107.267C275.555 107.557 276.757 107.402 277.78 106.802C278.798 106.228 279.436 105.329 279.693 104.105C279.945 102.907 279.724 101.828 279.029 100.866C278.328 99.9304 277.288 99.3174 275.908 99.0272Z" fill="white"/>
<path d="M259.74 94.5578L258.769 113.808L255.78 113.657L256.184 105.646L246.14 105.14L245.736 113.151L242.747 113L243.718 93.7496L246.707 93.9004L246.273 102.509L256.316 103.016L256.751 94.407L259.74 94.5578Z" fill="white"/>
<path d="M232.181 94.4352L233.675 111.009L239.239 110.507L239.476 113.13L225.326 114.406L225.09 111.783L230.694 111.278L229.2 94.7039L232.181 94.4352Z" fill="white"/>
<path d="M217.277 96.1558L221.717 114.912L218.804 115.602L215.412 101.272L208.98 117.927L206.106 118.608L201.666 99.8513L204.578 99.1619L208.035 113.763L214.481 96.8177L217.277 96.1558Z" fill="white"/>
<path d="M193.795 102.392L201.169 120.201L198.404 121.346L195.335 113.935L186.044 117.782L189.113 125.193L186.348 126.338L178.973 108.53L181.738 107.385L185.036 115.349L194.328 111.501L191.03 103.537L193.795 102.392Z" fill="white"/>
<path d="M163.659 116.622C164.9 115.847 166.169 115.368 167.466 115.185C168.741 115.016 169.968 115.097 171.146 115.427C172.339 115.78 173.451 116.355 174.483 117.154C175.493 117.966 176.371 118.97 177.118 120.166C177.851 121.339 178.361 122.558 178.648 123.821C178.927 125.121 178.956 126.374 178.736 127.578C178.516 128.782 178.05 129.92 177.339 130.991C176.606 132.076 175.618 133.007 174.377 133.782C173.136 134.557 171.878 135.029 170.604 135.198C169.306 135.381 168.069 135.307 166.89 134.977C165.711 134.647 164.61 134.064 163.587 133.229C162.555 132.431 161.672 131.445 160.939 130.272C160.192 129.076 159.686 127.839 159.422 126.562C159.134 125.298 159.094 124.053 159.3 122.826C159.52 121.622 159.997 120.477 160.731 119.392C161.442 118.321 162.418 117.397 163.659 116.622ZM165.075 118.89C164.195 119.439 163.534 120.088 163.091 120.835C162.639 121.619 162.364 122.434 162.265 123.28C162.158 124.162 162.231 125.058 162.484 125.966C162.715 126.888 163.092 127.767 163.613 128.602C164.135 129.436 164.752 130.149 165.465 130.738C166.17 131.364 166.936 131.812 167.762 132.08C168.58 132.385 169.433 132.495 170.321 132.41C171.201 132.363 172.081 132.064 172.961 131.514C173.841 130.965 174.507 130.298 174.958 129.514C175.424 128.753 175.71 127.931 175.817 127.048C175.916 126.202 175.85 125.318 175.619 124.396C175.38 123.51 174.999 122.65 174.478 121.815C173.956 120.98 173.343 120.25 172.638 119.624C171.911 119.011 171.138 118.553 170.321 118.248C169.494 117.98 168.63 117.877 167.728 117.939C166.839 118.023 165.955 118.34 165.075 118.89Z" fill="white"/>
<path d="M150.135 126.446L162.84 140.941L154.857 147.938C153.577 149.06 152.27 149.587 150.936 149.518C149.619 149.469 148.479 148.895 147.514 147.794C146.743 146.914 146.351 145.983 146.341 145.002C146.31 144.039 146.517 143.185 146.962 142.442C146.514 142.657 146.033 142.795 145.52 142.856C145.007 142.916 144.49 142.892 143.97 142.782C143.449 142.672 142.952 142.489 142.479 142.231C142.006 141.974 141.585 141.635 141.217 141.215C140.182 140.035 139.719 138.76 139.828 137.391C139.937 136.022 140.662 134.75 142.002 133.575L150.135 126.446ZM144.188 135.161C143.468 135.792 143.065 136.482 142.978 137.231C142.908 137.999 143.18 138.733 143.794 139.434C144.303 140.014 144.959 140.359 145.762 140.468C146.566 140.577 147.348 140.299 148.108 139.632L153.539 134.871L149.62 130.4L144.188 135.161ZM149.934 141.534C149.234 142.148 148.87 142.803 148.843 143.499C148.796 144.212 149.027 144.859 149.536 145.439C150.097 146.079 150.725 146.413 151.421 146.439C152.114 146.504 152.811 146.229 153.511 145.615L158.853 140.933L155.276 136.852L149.934 141.534Z" fill="white"/>
<path d="M124.647 152.235L126.337 153.635C126 151.248 126.671 149.041 128.352 147.013C128.878 146.378 129.498 145.838 130.212 145.393C130.927 144.948 131.692 144.65 132.509 144.498C133.347 144.363 134.2 144.396 135.069 144.598C135.939 144.8 136.773 145.232 137.572 145.894C138.391 146.573 138.981 147.321 139.34 148.137C139.7 148.954 139.882 149.778 139.884 150.609C139.886 151.44 139.725 152.239 139.4 153.007C139.095 153.791 138.68 154.501 138.154 155.136C137.305 156.16 136.377 156.946 135.371 157.494C134.347 158.062 133.241 158.354 132.052 158.371L134.725 160.587C135.729 161.418 136.794 161.696 137.921 161.421C139.051 161.183 140.066 160.521 140.966 159.435C142.409 157.694 142.979 155.609 142.676 153.181L145.165 153.43C145.496 156.365 144.678 159.021 142.708 161.397C142.063 162.176 141.36 162.837 140.599 163.381C139.837 163.924 139.039 164.283 138.205 164.455C137.375 164.665 136.514 164.661 135.625 164.442C134.735 164.223 133.84 163.74 132.938 162.993L122.737 154.539L124.647 152.235ZM129.324 149.217C128.645 150.037 128.162 150.932 127.875 151.904C127.571 152.896 127.54 153.872 127.781 154.832L130.577 157.149C131.565 157.208 132.518 156.996 133.437 156.513C134.338 156.05 135.128 155.41 135.807 154.59C136.707 153.504 137.13 152.369 137.075 151.184C137.041 150.015 136.543 149.032 135.58 148.235C134.638 147.454 133.579 147.147 132.405 147.313C131.25 147.497 130.223 148.132 129.324 149.217Z" fill="white"/>
<defs>
<clipPath id="clip0_123_77">
<rect width="23.9438" height="23.9438" fill="white" transform="translate(98.9668 215.494)"/>
</clipPath>
<clipPath id="clip1_123_77">
<rect width="23.9438" height="23.9438" fill="white" transform="translate(371.928 215.494)"/>
</clipPath>
</defs>
</svg>
