<svg width="792" height="977" viewBox="0 0 792 977" fill="none" xmlns="http://www.w3.org/2000/svg">
<path d="M411.318 235.512L346.365 944.099" stroke="black" stroke-width="3"/>
<path d="M485.876 144.376L503.435 161.132L411.298 235.723L412.767 218.94M412.767 218.94L422.377 174.333M412.767 218.94L343.305 155.155L371.127 134.337" stroke="black" stroke-width="3"/>
<path d="M254.936 80.4142L359.508 52.148L392.12 27.3097L482.745 35.2384L506.983 65.0503L605.267 111.064L561.163 963.104L154.401 927.517L227.35 312.85M254.936 80.4142L44.1981 408.86L102.473 462.788L227.35 312.85M254.936 80.4142L227.35 312.85" stroke="black" stroke-width="3"/>
<path d="M605.268 111.065L755.542 471.306L690.358 510.84L593.184 348.239" stroke="black" stroke-width="3"/>
<path d="M392.123 27.3099L394.197 54.3373M394.197 54.3373L471.606 61.1097M394.197 54.3373L401.226 114.14M471.606 61.1097L481.279 35.1101M471.606 61.1097L454.719 118.82M454.719 118.82L422.383 174.333L401.226 114.14M454.719 118.82L485.882 144.376L511.995 131.018L507.059 64.2114M401.226 114.14L371.133 134.337L343.332 116.262L358.325 51.1989" stroke="black" stroke-width="3"/>
<circle cx="418.567" cy="336.344" r="6.71265" transform="rotate(5 418.567 336.344)" stroke="black" stroke-width="3"/>
<circle cx="410.05" cy="433.68" r="6.71265" transform="rotate(5 410.05 433.68)" stroke="black" stroke-width="3"/>
<circle cx="401.534" cy="531.018" r="6.71265" transform="rotate(5 401.534 531.018)" stroke="black" stroke-width="3"/>
<circle cx="393.018" cy="628.357" r="6.71265" transform="rotate(5 393.018 628.357)" stroke="black" stroke-width="3"/>
<line x1="426.861" y1="335.775" x2="434.833" y2="336.472" stroke="black" stroke-width="3"/>
<line x1="418.346" y1="433.113" x2="426.317" y2="433.81" stroke="black" stroke-width="3"/>
<line x1="409.828" y1="530.449" x2="417.8" y2="531.147" stroke="black" stroke-width="3"/>
<line x1="401.312" y1="627.788" x2="409.284" y2="628.485" stroke="black" stroke-width="3"/>
</svg>
