<svg width="1160" height="751" viewBox="0 0 1160 751" fill="none" xmlns="http://www.w3.org/2000/svg">
<rect x="398.81" y="1.47536" width="361.647" height="441.864" stroke="white" stroke-width="2.00345"/>
<rect x="398.81" y="532.433" width="361.647" height="217.256" stroke="white" stroke-width="2.00345"/>
<rect x="760.679" y="158.09" width="398.318" height="541.944" stroke="white" stroke-width="2.00345"/>
<rect x="1.00172" y="158.09" width="397.554" height="541.944" stroke="white" stroke-width="2.00345"/>
<rect x="474.44" y="566.05" width="111.064" height="133.984" stroke="white" stroke-width="2.00345"/>
<rect x="586.737" y="566.05" width="111.828" height="133.984" stroke="white" stroke-width="2.00345"/>
<rect x="514.167" y="59.5359" width="131.692" height="143.915" stroke="white" stroke-width="2.00345"/>
<rect x="514.167" y="240.596" width="131.692" height="143.915" stroke="white" stroke-width="2.00345"/>
<rect x="133.697" y="243.654" width="104.189" height="101.897" stroke="white" stroke-width="2.00345"/>
<rect x="133.697" y="436.94" width="104.189" height="101.897" stroke="white" stroke-width="2.00345"/>
<rect x="922.873" y="436.94" width="104.189" height="101.897" stroke="white" stroke-width="2.00345"/>
<rect x="922.873" y="243.654" width="104.189" height="101.897" stroke="white" stroke-width="2.00345"/>
<rect x="794.523" y="532.433" width="41.5429" height="191.281" stroke="white" stroke-width="2.00345"/>
<rect x="324.692" y="532.433" width="41.5429" height="191.281" stroke="white" stroke-width="2.00345"/>
<rect x="324.947" y="444.579" width="511.386" height="86.6173" fill="black" stroke="white" stroke-width="2.00345"/>
<path d="M497.852 501.504L486.72 488.304L483.772 491.648V501.504H480.12V472.156H483.772V487.336L496.752 472.156H501.328L489.096 486.104L502.384 501.504H497.852ZM504.522 498.776C505.402 498.776 506.18 498.63 506.854 498.336C507.558 498.014 508.189 497.427 508.746 496.576C509.304 495.696 509.773 494.494 510.154 492.968C510.565 491.414 510.932 489.39 511.254 486.896L513.058 472.156H531.01V501.504H527.358V475.412H516.314L514.862 487.16C514.452 490.387 513.924 492.983 513.278 494.948C512.662 496.884 511.914 498.38 511.034 499.436C510.184 500.492 509.216 501.182 508.13 501.504C507.045 501.856 505.842 502.032 504.522 502.032V498.776ZM537.87 501.504V472.156H541.522V495.08L558.418 472.156H562.158V501.504H558.506V478.096L541.39 501.504H537.87ZM589.835 501.504V488.04H572.675V501.504H569.023V472.156H572.675V484.784H589.835V472.156H593.487V501.504H589.835ZM600.347 501.504V472.156H603.999V495.08L620.895 472.156H624.635V501.504H620.983V478.096L603.867 501.504H600.347ZM649.231 501.504L638.099 488.304L635.151 491.648V501.504H631.499V472.156H635.151V487.336L648.131 472.156H652.707L640.475 486.104L653.763 501.504H649.231ZM678.869 501.504L676.273 494.992H661.665L659.069 501.504H654.889L666.681 472.156H671.213L683.049 501.504H678.869ZM668.969 475.94L662.721 491.736H675.173L668.969 475.94Z" fill="white"/>
</svg>
