<svg width="962" height="596" viewBox="0 0 962 596" fill="none" xmlns="http://www.w3.org/2000/svg">
<rect x="497" y="1" width="464" height="126" stroke="white" stroke-width="2"/>
<rect x="497" y="313" width="464" height="126" stroke="white" stroke-width="2"/>
<rect x="1" y="157" width="464" height="126" stroke="white" stroke-width="2"/>
<rect x="497" y="157" width="464" height="126" stroke="white" stroke-width="2"/>
<rect x="497" y="469" width="464" height="126" stroke="white" stroke-width="2"/>
<rect x="1" y="313" width="464" height="126" stroke="white" stroke-width="2"/>
<path d="M582.68 81V47.58L576.26 54.36L573.26 51.3L583.28 40.98H587.66V81H582.68ZM610.692 81.72C607.932 81.72 605.592 81.1 603.672 79.86C601.752 78.62 600.172 77.02 598.932 75.06C597.692 73.06 596.792 70.84 596.232 68.4C595.672 65.92 595.392 63.46 595.392 61.02C595.392 58.58 595.672 56.14 596.232 53.7C596.792 51.22 597.692 49 598.932 47.04C600.172 45.08 601.752 43.48 603.672 42.24C605.592 41 607.932 40.38 610.692 40.38C613.412 40.38 615.732 41 617.652 42.24C619.612 43.48 621.192 45.08 622.392 47.04C623.632 49 624.532 51.22 625.092 53.7C625.692 56.14 625.992 58.58 625.992 61.02C625.992 63.46 625.692 65.92 625.092 68.4C624.532 70.84 623.632 73.06 622.392 75.06C621.192 77.02 619.612 78.62 617.652 79.86C615.732 81.1 613.412 81.72 610.692 81.72ZM610.692 77.28C612.612 77.28 614.212 76.82 615.492 75.9C616.812 74.94 617.872 73.7 618.672 72.18C619.472 70.62 620.032 68.88 620.352 66.96C620.712 65 620.892 63.02 620.892 61.02C620.892 59.02 620.712 57.06 620.352 55.14C620.032 53.18 619.472 51.44 618.672 49.92C617.872 48.4 616.812 47.18 615.492 46.26C614.212 45.3 612.612 44.82 610.692 44.82C608.772 44.82 607.152 45.3 605.832 46.26C604.552 47.18 603.512 48.4 602.712 49.92C601.912 51.44 601.332 53.18 600.972 55.14C600.652 57.06 600.492 59.02 600.492 61.02C600.492 63.02 600.652 65 600.972 66.96C601.332 68.88 601.912 70.62 602.712 72.18C603.512 73.7 604.552 74.94 605.832 75.9C607.152 76.82 608.772 77.28 610.692 77.28ZM639.75 81V47.58L633.33 54.36L630.33 51.3L640.35 40.98H644.73V81H639.75ZM651.202 68.46V64.5H665.602V68.46H651.202ZM678.071 81V47.58L671.651 54.36L668.651 51.3L678.671 40.98H683.051V81H678.071ZM698.403 81V47.58L691.983 54.36L688.983 51.3L699.003 40.98H703.383V81H698.403ZM726.415 81.72C723.655 81.72 721.315 81.1 719.395 79.86C717.475 78.62 715.895 77.02 714.655 75.06C713.415 73.06 712.515 70.84 711.955 68.4C711.395 65.92 711.115 63.46 711.115 61.02C711.115 58.58 711.395 56.14 711.955 53.7C712.515 51.22 713.415 49 714.655 47.04C715.895 45.08 717.475 43.48 719.395 42.24C721.315 41 723.655 40.38 726.415 40.38C729.135 40.38 731.455 41 733.375 42.24C735.335 43.48 736.915 45.08 738.115 47.04C739.355 49 740.255 51.22 740.815 53.7C741.415 56.14 741.715 58.58 741.715 61.02C741.715 63.46 741.415 65.92 740.815 68.4C740.255 70.84 739.355 73.06 738.115 75.06C736.915 77.02 735.335 78.62 733.375 79.86C731.455 81.1 729.135 81.72 726.415 81.72ZM726.415 77.28C728.335 77.28 729.935 76.82 731.215 75.9C732.535 74.94 733.595 73.7 734.395 72.18C735.195 70.62 735.755 68.88 736.075 66.96C736.435 65 736.615 63.02 736.615 61.02C736.615 59.02 736.435 57.06 736.075 55.14C735.755 53.18 735.195 51.44 734.395 49.92C733.595 48.4 732.535 47.18 731.215 46.26C729.935 45.3 728.335 44.82 726.415 44.82C724.495 44.82 722.875 45.3 721.555 46.26C720.275 47.18 719.235 48.4 718.435 49.92C717.635 51.44 717.055 53.18 716.695 55.14C716.375 57.06 716.215 59.02 716.215 61.02C716.215 63.02 716.375 65 716.695 66.96C717.055 68.88 717.635 70.62 718.435 72.18C719.235 73.7 720.275 74.94 721.555 75.9C722.875 76.82 724.495 77.28 726.415 77.28Z" fill="white"/>
<path d="M574.34 386V365.99H582.38C583.38 365.99 584.27 366.15 585.05 366.47C585.83 366.79 586.48 367.23 587 367.79C587.54 368.33 587.95 368.97 588.23 369.71C588.51 370.43 588.65 371.2 588.65 372.02C588.65 372.84 588.51 373.62 588.23 374.36C587.95 375.08 587.54 375.72 587 376.28C586.46 376.82 585.8 377.25 585.02 377.57C584.24 377.89 583.36 378.05 582.38 378.05H576.83V386H574.34ZM582.08 375.83C583.28 375.83 584.24 375.48 584.96 374.78C585.7 374.08 586.07 373.16 586.07 372.02C586.07 370.88 585.7 369.96 584.96 369.26C584.24 368.56 583.28 368.21 582.08 368.21H576.83V375.83H582.08ZM591.947 386V365.99H605.057V368.21H594.437V374.66H604.847V376.88H594.437V383.78H605.057V386H591.947ZM623.217 386V376.82H611.518V386H609.028V365.99H611.518V374.6H623.217V365.99H625.708V386H623.217ZM635.335 386V368.21H629.005V365.99H644.185V368.21H637.825V386H635.335ZM647.494 386V365.99H660.604V368.21H649.984V386H647.494ZM663.988 386V365.99H677.098V368.21H666.478V374.66H676.888V376.88H666.478V383.78H677.098V386H663.988ZM695.259 386V376.82H683.559V386H681.069V365.99H683.559V374.6H695.259V365.99H697.749V386H695.259Z" fill="white"/>
<path d="M91.68 236V202.58L85.26 209.36L82.26 206.3L92.28 195.98H96.66V236H91.68ZM119.692 236.72C116.932 236.72 114.592 236.1 112.672 234.86C110.752 233.62 109.172 232.02 107.932 230.06C106.692 228.06 105.792 225.84 105.232 223.4C104.672 220.92 104.392 218.46 104.392 216.02C104.392 213.58 104.672 211.14 105.232 208.7C105.792 206.22 106.692 204 107.932 202.04C109.172 200.08 110.752 198.48 112.672 197.24C114.592 196 116.932 195.38 119.692 195.38C122.412 195.38 124.732 196 126.652 197.24C128.612 198.48 130.192 200.08 131.392 202.04C132.632 204 133.532 206.22 134.092 208.7C134.692 211.14 134.992 213.58 134.992 216.02C134.992 218.46 134.692 220.92 134.092 223.4C133.532 225.84 132.632 228.06 131.392 230.06C130.192 232.02 128.612 233.62 126.652 234.86C124.732 236.1 122.412 236.72 119.692 236.72ZM119.692 232.28C121.612 232.28 123.212 231.82 124.492 230.9C125.812 229.94 126.872 228.7 127.672 227.18C128.472 225.62 129.032 223.88 129.352 221.96C129.712 220 129.892 218.02 129.892 216.02C129.892 214.02 129.712 212.06 129.352 210.14C129.032 208.18 128.472 206.44 127.672 204.92C126.872 203.4 125.812 202.18 124.492 201.26C123.212 200.3 121.612 199.82 119.692 199.82C117.772 199.82 116.152 200.3 114.832 201.26C113.552 202.18 112.512 203.4 111.712 204.92C110.912 206.44 110.332 208.18 109.972 210.14C109.652 212.06 109.492 214.02 109.492 216.02C109.492 218.02 109.652 220 109.972 221.96C110.332 223.88 110.912 225.62 111.712 227.18C112.512 228.7 113.552 229.94 114.832 230.9C116.152 231.82 117.772 232.28 119.692 232.28ZM148.75 236V202.58L142.33 209.36L139.33 206.3L149.35 195.98H153.73V236H148.75ZM160.202 223.46V219.5H174.602V223.46H160.202ZM187.071 236V202.58L180.651 209.36L177.651 206.3L187.671 195.98H192.051V236H187.071ZM207.403 236V202.58L200.983 209.36L197.983 206.3L208.003 195.98H212.383V236H207.403ZM235.415 236.72C232.655 236.72 230.315 236.1 228.395 234.86C226.475 233.62 224.895 232.02 223.655 230.06C222.415 228.06 221.515 225.84 220.955 223.4C220.395 220.92 220.115 218.46 220.115 216.02C220.115 213.58 220.395 211.14 220.955 208.7C221.515 206.22 222.415 204 223.655 202.04C224.895 200.08 226.475 198.48 228.395 197.24C230.315 196 232.655 195.38 235.415 195.38C238.135 195.38 240.455 196 242.375 197.24C244.335 198.48 245.915 200.08 247.115 202.04C248.355 204 249.255 206.22 249.815 208.7C250.415 211.14 250.715 213.58 250.715 216.02C250.715 218.46 250.415 220.92 249.815 223.4C249.255 225.84 248.355 228.06 247.115 230.06C245.915 232.02 244.335 233.62 242.375 234.86C240.455 236.1 238.135 236.72 235.415 236.72ZM235.415 232.28C237.335 232.28 238.935 231.82 240.215 230.9C241.535 229.94 242.595 228.7 243.395 227.18C244.195 225.62 244.755 223.88 245.075 221.96C245.435 220 245.615 218.02 245.615 216.02C245.615 214.02 245.435 212.06 245.075 210.14C244.755 208.18 244.195 206.44 243.395 204.92C242.595 203.4 241.535 202.18 240.215 201.26C238.935 200.3 237.335 199.82 235.415 199.82C233.495 199.82 231.875 200.3 230.555 201.26C229.275 202.18 228.235 203.4 227.435 204.92C226.635 206.44 226.055 208.18 225.695 210.14C225.375 212.06 225.215 214.02 225.215 216.02C225.215 218.02 225.375 220 225.695 221.96C226.055 223.88 226.635 225.62 227.435 227.18C228.235 228.7 229.275 229.94 230.555 230.9C231.875 231.82 233.495 232.28 235.415 232.28Z" fill="white"/>
<path d="M582.68 237V203.58L576.26 210.36L573.26 207.3L583.28 196.98H587.66V237H582.68ZM603.012 237V203.58L596.592 210.36L593.592 207.3L603.612 196.98H607.992V237H603.012ZM623.344 237V203.58L616.924 210.36L613.924 207.3L623.944 196.98H628.324V237H623.344ZM634.796 224.46V220.5H649.196V224.46H634.796ZM661.664 237V203.58L655.244 210.36L652.244 207.3L662.264 196.98H666.644V237H661.664ZM674.556 237V233.04C678.156 230.2 681.336 227.64 684.096 225.36C686.856 223.04 689.176 220.9 691.056 218.94C692.936 216.94 694.356 215.08 695.316 213.36C696.276 211.6 696.756 209.86 696.756 208.14C696.756 206.86 696.516 205.76 696.036 204.84C695.556 203.92 694.916 203.16 694.116 202.56C693.356 201.96 692.476 201.52 691.476 201.24C690.476 200.96 689.456 200.82 688.416 200.82C686.016 200.82 683.896 201.28 682.056 202.2C680.216 203.12 678.716 204.34 677.556 205.86L674.496 202.68C676.016 200.64 677.996 199.08 680.436 198C682.916 196.92 685.576 196.38 688.416 196.38C690.096 196.38 691.736 196.62 693.336 197.1C694.936 197.58 696.356 198.3 697.596 199.26C698.876 200.22 699.896 201.44 700.656 202.92C701.456 204.4 701.856 206.14 701.856 208.14C701.856 210.18 701.356 212.2 700.356 214.2C699.396 216.16 698.036 218.14 696.276 220.14C694.556 222.1 692.516 224.12 690.156 226.2C687.796 228.24 685.216 230.36 682.416 232.56H702.036V237H674.556ZM724.95 237.72C722.19 237.72 719.85 237.1 717.93 235.86C716.01 234.62 714.43 233.02 713.19 231.06C711.95 229.06 711.05 226.84 710.49 224.4C709.93 221.92 709.65 219.46 709.65 217.02C709.65 214.58 709.93 212.14 710.49 209.7C711.05 207.22 711.95 205 713.19 203.04C714.43 201.08 716.01 199.48 717.93 198.24C719.85 197 722.19 196.38 724.95 196.38C727.67 196.38 729.99 197 731.91 198.24C733.87 199.48 735.45 201.08 736.65 203.04C737.89 205 738.79 207.22 739.35 209.7C739.95 212.14 740.25 214.58 740.25 217.02C740.25 219.46 739.95 221.92 739.35 224.4C738.79 226.84 737.89 229.06 736.65 231.06C735.45 233.02 733.87 234.62 731.91 235.86C729.99 237.1 727.67 237.72 724.95 237.72ZM724.95 233.28C726.87 233.28 728.47 232.82 729.75 231.9C731.07 230.94 732.13 229.7 732.93 228.18C733.73 226.62 734.29 224.88 734.61 222.96C734.97 221 735.15 219.02 735.15 217.02C735.15 215.02 734.97 213.06 734.61 211.14C734.29 209.18 733.73 207.44 732.93 205.92C732.13 204.4 731.07 203.18 729.75 202.26C728.47 201.3 726.87 200.82 724.95 200.82C723.03 200.82 721.41 201.3 720.09 202.26C718.81 203.18 717.77 204.4 716.97 205.92C716.17 207.44 715.59 209.18 715.23 211.14C714.91 213.06 714.75 215.02 714.75 217.02C714.75 219.02 714.91 221 715.23 222.96C715.59 224.88 716.17 226.62 716.97 228.18C717.77 229.7 718.81 230.94 720.09 231.9C721.41 232.82 723.03 233.28 724.95 233.28Z" fill="white"/>
<path d="M588.62 542L586.85 537.56H576.89L575.12 542H572.27L580.31 521.99H583.4L591.47 542H588.62ZM581.87 524.57L577.61 535.34H586.1L581.87 524.57ZM608.276 542V532.82H596.576V542H594.086V521.99H596.576V530.6H608.276V521.99H610.766V542H608.276ZM629.724 542L627.954 537.56H617.994L616.224 542H613.374L621.414 521.99H624.504L632.574 542H629.724ZM622.974 524.57L618.714 535.34H627.204L622.974 524.57ZM633.81 540.14C634.41 540.14 634.94 540.04 635.4 539.84C635.88 539.62 636.31 539.22 636.69 538.64C637.07 538.04 637.39 537.22 637.65 536.18C637.93 535.12 638.18 533.74 638.4 532.04L639.63 521.99H651.87V542H649.38V524.21H641.85L640.86 532.22C640.58 534.42 640.22 536.19 639.78 537.53C639.36 538.85 638.85 539.87 638.25 540.59C637.67 541.31 637.01 541.78 636.27 542C635.53 542.24 634.71 542.36 633.81 542.36V540.14ZM656.547 542V521.99H659.037V537.62L670.557 521.99H673.107V542H670.617V526.04L658.947 542H656.547ZM683.847 542.36C682.967 542.36 682.137 542.27 681.357 542.09C680.597 541.93 679.887 541.7 679.227 541.4C678.587 541.1 678.017 540.75 677.517 540.35C677.037 539.95 676.637 539.52 676.317 539.06L677.787 537.47C678.387 538.25 679.227 538.89 680.307 539.39C681.387 539.89 682.547 540.14 683.787 540.14C685.367 540.14 686.597 539.81 687.477 539.15C688.377 538.47 688.827 537.55 688.827 536.39C688.827 535.77 688.697 535.24 688.437 534.8C688.197 534.34 687.847 533.97 687.387 533.69C686.927 533.41 686.377 533.2 685.737 533.06C685.097 532.92 684.397 532.85 683.637 532.85H679.557V530.63H683.637C684.297 530.63 684.917 530.57 685.497 530.45C686.097 530.31 686.617 530.11 687.057 529.85C687.497 529.57 687.847 529.23 688.107 528.83C688.367 528.41 688.497 527.91 688.497 527.33C688.497 526.77 688.367 526.28 688.107 525.86C687.867 525.44 687.527 525.09 687.087 524.81C686.647 524.51 686.137 524.29 685.557 524.15C684.977 523.99 684.357 523.91 683.697 523.91C681.437 523.91 679.547 524.72 678.027 526.34L676.647 524.78C677.407 523.9 678.397 523.17 679.617 522.59C680.857 521.99 682.277 521.69 683.877 521.69C684.857 521.69 685.777 521.81 686.637 522.05C687.517 522.29 688.277 522.64 688.917 523.1C689.577 523.54 690.097 524.1 690.477 524.78C690.857 525.44 691.047 526.19 691.047 527.03C691.047 527.75 690.907 528.38 690.627 528.92C690.347 529.46 689.997 529.92 689.577 530.3C689.157 530.68 688.687 530.99 688.167 531.23C687.667 531.45 687.187 531.6 686.727 531.68C687.187 531.72 687.687 531.85 688.227 532.07C688.767 532.29 689.267 532.6 689.727 533C690.187 533.4 690.567 533.9 690.867 534.5C691.187 535.1 691.347 535.8 691.347 536.6C691.347 537.44 691.167 538.21 690.807 538.91C690.447 539.61 689.937 540.22 689.277 540.74C688.617 541.24 687.827 541.64 686.907 541.94C685.987 542.22 684.967 542.36 683.847 542.36ZM697.797 521.99V529.94H703.347C704.327 529.94 705.207 530.1 705.987 530.42C706.767 530.74 707.427 531.18 707.967 531.74C708.507 532.28 708.917 532.92 709.197 533.66C709.477 534.38 709.617 535.15 709.617 535.97C709.617 536.79 709.477 537.57 709.197 538.31C708.917 539.03 708.507 539.67 707.967 540.23C707.447 540.77 706.797 541.2 706.017 541.52C705.237 541.84 704.347 542 703.347 542H695.307V521.99H697.797ZM697.797 532.16V539.78H703.047C704.247 539.78 705.207 539.43 705.927 538.73C706.667 538.03 707.037 537.11 707.037 535.97C707.037 534.83 706.667 533.91 705.927 533.21C705.207 532.51 704.247 532.16 703.047 532.16H697.797ZM711.777 542V521.99H714.267V542H711.777Z" fill="white"/>
<path d="M83.34 385V364.99H91.38C92.38 364.99 93.27 365.15 94.05 365.47C94.83 365.79 95.48 366.23 96 366.79C96.54 367.33 96.95 367.97 97.23 368.71C97.51 369.43 97.65 370.2 97.65 371.02C97.65 371.84 97.51 372.62 97.23 373.36C96.95 374.08 96.54 374.72 96 375.28C95.46 375.82 94.8 376.25 94.02 376.57C93.24 376.89 92.36 377.05 91.38 377.05H85.83V385H83.34ZM91.08 374.83C92.28 374.83 93.24 374.48 93.96 373.78C94.7 373.08 95.07 372.16 95.07 371.02C95.07 369.88 94.7 368.96 93.96 368.26C93.24 367.56 92.28 367.21 91.08 367.21H85.83V374.83H91.08ZM100.947 385V364.99H114.057V367.21H103.437V373.66H113.847V375.88H103.437V382.78H114.057V385H100.947ZM118.028 385V364.99H131.138V367.21H120.518V385H118.028ZM134.522 385V364.99H137.012V380.62L148.532 364.99H151.082V385H148.592V369.04L136.922 385H134.522ZM165.242 385.36C163.802 385.36 162.452 385.11 161.192 384.61C159.952 384.11 158.862 383.41 157.922 382.51C157.002 381.59 156.272 380.5 155.732 379.24C155.212 377.96 154.952 376.55 154.952 375.01C154.952 373.47 155.212 372.07 155.732 370.81C156.272 369.53 157.002 368.44 157.922 367.54C158.862 366.62 159.952 365.91 161.192 365.41C162.452 364.91 163.802 364.66 165.242 364.66C166.122 364.66 166.932 364.76 167.672 364.96C168.432 365.16 169.122 365.44 169.742 365.8C170.382 366.16 170.952 366.58 171.452 367.06C171.972 367.54 172.432 368.06 172.832 368.62L170.732 369.79C170.152 368.95 169.372 368.26 168.392 367.72C167.432 367.16 166.382 366.88 165.242 366.88C164.142 366.88 163.122 367.08 162.182 367.48C161.242 367.88 160.422 368.44 159.722 369.16C159.042 369.88 158.502 370.74 158.102 371.74C157.722 372.72 157.532 373.81 157.532 375.01C157.532 376.19 157.722 377.28 158.102 378.28C158.502 379.28 159.042 380.14 159.722 380.86C160.422 381.58 161.242 382.14 162.182 382.54C163.122 382.94 164.142 383.14 165.242 383.14C166.382 383.14 167.432 382.87 168.392 382.33C169.372 381.79 170.152 381.09 170.732 380.23L172.862 381.4C172.022 382.54 170.982 383.49 169.742 384.25C168.522 384.99 167.022 385.36 165.242 385.36ZM180.985 385V367.21H174.655V364.99H189.835V367.21H183.475V385H180.985ZM193.145 385V364.99H201.185C202.185 364.99 203.075 365.15 203.855 365.47C204.635 365.79 205.285 366.23 205.805 366.79C206.345 367.33 206.755 367.97 207.035 368.71C207.315 369.43 207.455 370.2 207.455 371.02C207.455 371.84 207.315 372.62 207.035 373.36C206.755 374.08 206.345 374.72 205.805 375.28C205.265 375.82 204.605 376.25 203.825 376.57C203.045 376.89 202.165 377.05 201.185 377.05H195.635V385H193.145ZM200.885 374.83C202.085 374.83 203.045 374.48 203.765 373.78C204.505 373.08 204.875 372.16 204.875 371.02C204.875 369.88 204.505 368.96 203.765 368.26C203.045 367.56 202.085 367.21 200.885 367.21H195.635V374.83H200.885ZM222.718 385L220.948 380.56H210.988L209.218 385H206.368L214.408 364.99H217.498L225.568 385H222.718ZM215.968 367.57L211.708 378.34H220.198L215.968 367.57ZM231.112 385V367.21H224.782V364.99H239.962V367.21H233.602V385H231.112ZM245.282 385.36C244.442 385.36 243.672 385.21 242.972 384.91C242.272 384.61 241.742 384.23 241.382 383.77L242.432 381.79C242.792 382.17 243.192 382.49 243.632 382.75C244.092 383.01 244.602 383.14 245.162 383.14C245.562 383.14 245.902 383.09 246.182 382.99C246.482 382.89 246.762 382.73 247.022 382.51C247.282 382.27 247.522 381.97 247.742 381.61C247.982 381.25 248.242 380.81 248.522 380.29L248.882 379.6L241.202 364.99H244.052L250.322 377.38L256.592 364.99H259.442L250.712 381.46C250.392 382.06 250.062 382.6 249.722 383.08C249.382 383.56 249.002 383.97 248.582 384.31C248.162 384.65 247.682 384.91 247.142 385.09C246.622 385.27 246.002 385.36 245.282 385.36ZM262.051 385V364.99H270.091C271.091 364.99 271.981 365.15 272.761 365.47C273.541 365.79 274.191 366.23 274.711 366.79C275.251 367.33 275.661 367.97 275.941 368.71C276.221 369.43 276.361 370.2 276.361 371.02C276.361 371.84 276.221 372.62 275.941 373.36C275.661 374.08 275.251 374.72 274.711 375.28C274.171 375.82 273.511 376.25 272.731 376.57C271.951 376.89 271.071 377.05 270.091 377.05H264.541V385H262.051ZM269.791 374.83C270.991 374.83 271.951 374.48 272.671 373.78C273.411 373.08 273.781 372.16 273.781 371.02C273.781 369.88 273.411 368.96 272.671 368.26C271.951 367.56 270.991 367.21 269.791 367.21H264.541V374.83H269.791ZM291.624 385L289.854 380.56H279.894L278.124 385H275.274L283.314 364.99H286.404L294.474 385H291.624ZM284.874 367.57L280.614 378.34H289.104L284.874 367.57Z" fill="white"/>
<path d="M893.001 87.25V34.75M893.001 34.75L917.792 59.5417M893.001 34.75L868.209 59.5417" stroke="white" stroke-width="5" stroke-linecap="round" stroke-linejoin="round"/>
<path d="M874.438 391.561L911.562 354.438M911.562 354.438V389.499M911.562 354.438H876.501" stroke="white" stroke-width="5" stroke-linecap="round" stroke-linejoin="round"/>
<path d="M397.001 243.25V190.75M397.001 190.75L421.792 215.542M397.001 190.75L372.209 215.542" stroke="white" stroke-width="5" stroke-linecap="round" stroke-linejoin="round"/>
<path d="M866.75 217H919.25M919.25 217L894.458 241.792M919.25 217L894.458 192.208" stroke="white" stroke-width="5" stroke-linecap="round" stroke-linejoin="round"/>
<path d="M874.438 547.561L911.562 510.438M911.562 510.438V545.499M911.562 510.438H876.501" stroke="white" stroke-width="5" stroke-linecap="round" stroke-linejoin="round"/>
<path d="M423.25 373H370.75M370.75 373L395.542 348.208M370.75 373L395.542 397.792" stroke="white" stroke-width="5" stroke-linecap="round" stroke-linejoin="round"/>
<path d="M759.75 373C761.408 373 762.997 372.341 764.169 371.169C765.341 369.997 766 368.408 766 366.75M766 366.75C766 368.408 766.658 369.997 767.83 371.169C769.003 372.341 770.592 373 772.25 373M766 366.75V356.333M753.669 389.667C757.027 389.667 759.75 386.885 759.75 383.458V363.119C759.75 361.673 758.6 360.5 757.183 360.5C756.756 360.5 756.339 360.608 755.967 360.812L755.696 360.985C752.654 363.192 750.629 366.5 748.604 373.119C747.729 375.973 747.279 379.29 747.254 383.067C747.229 386.556 749.881 389.429 753.248 389.652L753.669 389.667ZM778.333 389.667C774.973 389.667 772.25 386.885 772.25 383.458V363.119C772.25 361.673 773.4 360.5 774.819 360.5C775.244 360.5 775.662 360.608 776.035 360.812L776.306 360.985C779.348 363.192 781.373 366.5 783.4 373.119C784.275 375.973 784.725 379.29 784.75 383.067C784.775 386.556 782.123 389.429 778.754 389.652L778.333 389.667Z" stroke="white" stroke-width="2" stroke-linecap="round" stroke-linejoin="round"/>
<path d="M778.5 545.667L786.467 537.7C786.701 537.466 786.833 537.148 786.833 536.817V525.875C786.833 525.046 786.504 524.251 785.918 523.665C785.332 523.079 784.537 522.75 783.708 522.75C782.88 522.75 782.085 523.079 781.499 523.665C780.913 524.251 780.583 525.046 780.583 525.875V535.25" stroke="white" stroke-width="1.5" stroke-linecap="round" stroke-linejoin="round"/>
<path d="M778.499 537.333L780.287 535.546C780.381 535.452 780.455 535.341 780.506 535.218C780.557 535.095 780.583 534.964 780.583 534.831C780.582 534.644 780.53 534.46 780.431 534.301C780.333 534.142 780.192 534.013 780.024 533.929L779.101 533.469C778.32 533.078 777.434 532.943 776.572 533.083C775.709 533.222 774.912 533.63 774.293 534.248L772.429 536.112C771.647 536.894 771.208 537.953 771.208 539.058V545.667M753.499 545.667L745.533 537.7C745.298 537.466 745.166 537.148 745.166 536.817V525.875C745.166 525.046 745.495 524.251 746.081 523.665C746.667 523.079 747.462 522.75 748.291 522.75C749.12 522.75 749.915 523.079 750.501 523.665C751.087 524.251 751.416 525.046 751.416 525.875V535.25" stroke="white" stroke-width="1.5" stroke-linecap="round" stroke-linejoin="round"/>
<path d="M753.499 537.333L751.712 535.546C751.618 535.452 751.544 535.34 751.493 535.218C751.442 535.095 751.416 534.964 751.416 534.831C751.416 534.45 751.633 534.102 751.974 533.929L752.897 533.469C753.679 533.078 754.564 532.943 755.427 533.082C756.29 533.222 757.087 533.63 757.706 534.248L759.57 536.112C760.352 536.894 760.791 537.953 760.791 539.058V545.667M769.472 529H762.526V524.14H757.666V517.194H762.526V512.333H769.472V517.194H774.333V524.14H769.472V529Z" stroke="white" stroke-width="1.5" stroke-linecap="round" stroke-linejoin="round"/>
</svg>
