<svg width="962" height="596" viewBox="0 0 962 596" fill="none" xmlns="http://www.w3.org/2000/svg">
<rect x="497" y="1" width="464" height="126" stroke="white" stroke-width="2"/>
<rect x="497" y="313" width="464" height="126" stroke="white" stroke-width="2"/>
<rect x="1" y="157" width="464" height="126" stroke="white" stroke-width="2"/>
<rect x="497" y="157" width="464" height="126" stroke="white" stroke-width="2"/>
<rect x="497" y="469" width="464" height="126" stroke="white" stroke-width="2"/>
<rect x="1" y="313" width="464" height="126" stroke="white" stroke-width="2"/>
<path d="M892.999 87.25V34.75M892.999 34.75L917.79 59.5417M892.999 34.75L868.207 59.5417" stroke="white" stroke-width="5" stroke-linecap="round" stroke-linejoin="round"/>
<path d="M874.438 391.561L911.562 354.438M911.562 354.438V389.499M911.562 354.438H876.501" stroke="white" stroke-width="5" stroke-linecap="round" stroke-linejoin="round"/>
<path d="M396.999 243.25V190.75M396.999 190.75L421.79 215.542M396.999 190.75L372.207 215.542" stroke="white" stroke-width="5" stroke-linecap="round" stroke-linejoin="round"/>
<path d="M866.75 217H919.25M919.25 217L894.458 241.792M919.25 217L894.458 192.208" stroke="white" stroke-width="5" stroke-linecap="round" stroke-linejoin="round"/>
<path d="M874.438 547.561L911.562 510.438M911.562 510.438V545.499M911.562 510.438H876.501" stroke="white" stroke-width="5" stroke-linecap="round" stroke-linejoin="round"/>
<path d="M423.25 373H370.75M370.75 373L395.542 348.208M370.75 373L395.542 397.792" stroke="white" stroke-width="5" stroke-linecap="round" stroke-linejoin="round"/>
<path d="M759.75 373C761.408 373 762.997 372.341 764.169 371.169C765.341 369.997 766 368.408 766 366.75M766 366.75C766 368.408 766.658 369.997 767.83 371.169C769.003 372.341 770.592 373 772.25 373M766 366.75V356.333M753.669 389.667C757.027 389.667 759.75 386.885 759.75 383.458V363.119C759.75 361.673 758.6 360.5 757.183 360.5C756.756 360.5 756.339 360.608 755.967 360.812L755.696 360.985C752.654 363.192 750.629 366.5 748.604 373.119C747.729 375.973 747.279 379.29 747.254 383.067C747.229 386.556 749.881 389.429 753.248 389.652L753.669 389.667ZM778.333 389.667C774.973 389.667 772.25 386.885 772.25 383.458V363.119C772.25 361.673 773.4 360.5 774.819 360.5C775.244 360.5 775.662 360.608 776.035 360.812L776.306 360.985C779.348 363.192 781.373 366.5 783.4 373.119C784.275 375.973 784.725 379.29 784.75 383.067C784.775 386.556 782.123 389.429 778.754 389.652L778.333 389.667Z" stroke="white" stroke-width="2" stroke-linecap="round" stroke-linejoin="round"/>
<path d="M778.5 545.667L786.467 537.7C786.701 537.466 786.833 537.148 786.833 536.817V525.875C786.833 525.046 786.504 524.251 785.918 523.665C785.332 523.079 784.537 522.75 783.708 522.75C782.88 522.75 782.085 523.079 781.499 523.665C780.913 524.251 780.583 525.046 780.583 525.875V535.25" stroke="white" stroke-width="1.5" stroke-linecap="round" stroke-linejoin="round"/>
<path d="M778.501 537.333L780.289 535.546C780.383 535.452 780.457 535.341 780.508 535.218C780.559 535.095 780.585 534.964 780.585 534.831C780.584 534.644 780.532 534.46 780.433 534.301C780.335 534.142 780.194 534.013 780.026 533.929L779.103 533.469C778.321 533.078 777.436 532.943 776.574 533.083C775.711 533.222 774.913 533.63 774.295 534.248L772.43 536.112C771.649 536.894 771.21 537.953 771.21 539.058V545.667M753.501 545.667L745.535 537.7C745.3 537.466 745.168 537.148 745.168 536.817V525.875C745.168 525.046 745.497 524.251 746.083 523.665C746.669 523.079 747.464 522.75 748.293 522.75C749.122 522.75 749.917 523.079 750.503 523.665C751.089 524.251 751.418 525.046 751.418 525.875V535.25" stroke="white" stroke-width="1.5" stroke-linecap="round" stroke-linejoin="round"/>
<path d="M753.501 537.333L751.714 535.546C751.62 535.452 751.546 535.34 751.495 535.218C751.444 535.095 751.418 534.964 751.418 534.831C751.418 534.45 751.635 534.102 751.976 533.929L752.899 533.469C753.681 533.078 754.566 532.943 755.429 533.082C756.292 533.222 757.089 533.63 757.708 534.248L759.572 536.112C760.354 536.894 760.793 537.953 760.793 539.058V545.667M769.474 529H762.528V524.14H757.668V517.194H762.528V512.333H769.474V517.194H774.335V524.14H769.474V529Z" stroke="white" stroke-width="1.5" stroke-linecap="round" stroke-linejoin="round"/>
</svg>
