<svg width="518" height="319" viewBox="0 0 518 319" fill="none" xmlns="http://www.w3.org/2000/svg">
<path d="M516.5 220.5C516.5 233.525 509.564 246.107 496.644 257.725C483.723 269.343 464.943 279.873 441.607 288.748C394.948 306.493 330.387 317.5 259 317.5C187.613 317.5 123.052 306.493 76.3925 288.748C53.0574 279.873 34.2768 269.343 21.3564 257.725C8.43555 246.107 1.5 233.525 1.5 220.5C1.5 207.475 8.43555 194.893 21.3564 183.275C34.2768 171.657 53.0574 161.127 76.3925 152.252C123.052 134.507 187.613 123.5 259 123.5C330.387 123.5 394.948 134.507 441.607 152.252C464.943 161.127 483.723 171.657 496.644 183.275C509.564 194.893 516.5 207.475 516.5 220.5Z" stroke="black" stroke-width="3"/>
<ellipse cx="128.5" cy="220.5" rx="46.5" ry="28.5" fill="#FFCC97"/>
<ellipse cx="258.5" cy="269.5" rx="46.5" ry="28.5" fill="#FFCC97"/>
<ellipse cx="258.5" cy="174.5" rx="46.5" ry="28.5" fill="#FFCC97"/>
<ellipse cx="391.5" cy="220.5" rx="46.5" ry="28.5" fill="#FFCC97"/>
<rect x="257" width="3" height="122" fill="black"/>
</svg>
