<svg width="233" height="232" viewBox="0 0 233 232" fill="none" xmlns="http://www.w3.org/2000/svg">
<path d="M58.966 176.66C57.4309 167.954 59.4171 158.994 64.4879 151.753C69.5586 144.511 77.2984 139.58 86.0047 138.045L151.659 126.468C160.365 124.933 169.324 126.919 176.566 131.99C183.808 137.061 188.739 144.801 190.274 153.507C191.041 157.86 190.048 162.34 187.513 165.961C184.977 169.582 181.107 172.047 176.754 172.815L78.2736 190.179C73.9205 190.947 69.4407 189.954 65.8199 187.418C62.199 184.883 59.7336 181.013 58.966 176.66Z" stroke="black" stroke-width="3" stroke-linejoin="round"/>
<path d="M113.043 99.4296C126.64 97.0321 135.719 84.0656 133.322 70.4682C130.924 56.8709 117.958 47.7917 104.36 50.1893C90.7631 52.5868 81.6839 65.5533 84.0814 79.1506C86.479 92.748 99.4455 101.827 113.043 99.4296Z" stroke="black" stroke-width="3"/>
</svg>
