<svg width="1282" height="897" viewBox="0 0 1282 897" fill="none" xmlns="http://www.w3.org/2000/svg">
<path d="M496.3 147.85H560.65V448H177.7V147.85H241.6V391.75H337V147.85H401.35V391.75H496.3V147.85ZM735.366 147.85H954.516V204.1H799.266V257.2H877.116C941.016 257.2 976.566 300.85 976.566 352.6C976.566 404.35 941.466 448 877.116 448H735.366V147.85ZM868.566 313.45H799.266V391.75H868.566C893.316 391.75 911.316 376.45 911.316 352.6C911.316 328.3 893.316 313.45 868.566 313.45Z" fill="black"/>
<path d="M345.25 723H309.5V606.25L262.5 723H247L200 606.25V723H164.5V556.25H214.25L254.75 657L295.25 556.25H345.25V723ZM667.332 723H631.582V653H552.832V723H517.332V556.25H552.832V621.75H631.582V556.25H667.332V723ZM981.908 723H938.158L887.658 656.25L874.658 671.75V723H839.158V556.25H874.658V630.75L933.658 556.25H977.408L911.158 634.5L981.908 723Z" fill="black"/>
<circle cx="770.804" cy="364.914" r="313.5" transform="rotate(10 770.804 364.914)" stroke="black" stroke-width="3"/>
<circle cx="774.743" cy="365.608" r="248.5" transform="rotate(10 774.743 365.608)" stroke="black" stroke-width="3"/>
<path fill-rule="evenodd" clip-rule="evenodd" d="M900.186 650.455L1048.78 862.674C1066.52 888.009 1101.44 894.166 1126.78 876.426L1135.51 870.31C1160.85 852.57 1167 817.652 1149.26 792.317L1000.67 580.098L998.209 581.819L1146.81 794.038C1163.6 818.015 1157.77 851.063 1133.79 867.853L1125.06 873.969C1101.08 890.758 1068.03 884.931 1051.24 860.953L902.644 648.734L900.186 650.455Z" fill="black"/>
<path d="M947.07 712.807L1044.27 644.507" stroke="black" stroke-width="3"/>
<path d="M1.95 325V308.325H7.65C8.95 308.325 10.125 308.542 11.175 308.975C12.225 309.392 13.1167 309.975 13.85 310.725C14.6 311.475 15.175 312.358 15.575 313.375C15.9917 314.392 16.2 315.492 16.2 316.675C16.2 317.858 15.9917 318.958 15.575 319.975C15.175 320.992 14.6 321.875 13.85 322.625C13.1167 323.358 12.225 323.942 11.175 324.375C10.125 324.792 8.95 325 7.65 325H1.95ZM7.65 323.15C8.66667 323.15 9.56667 322.983 10.35 322.65C11.15 322.3 11.825 321.833 12.375 321.25C12.925 320.667 13.3417 319.983 13.625 319.2C13.9083 318.417 14.05 317.575 14.05 316.675C14.05 315.775 13.9083 314.933 13.625 314.15C13.3417 313.35 12.925 312.658 12.375 312.075C11.8417 311.492 11.175 311.033 10.375 310.7C9.59167 310.35 8.68333 310.175 7.65 310.175H4.025V323.15H7.65ZM18.2299 314.9V313.575H29.2549V314.9H18.2299ZM18.2299 319.725V318.425H29.2549V319.725H18.2299ZM37.5055 325.3C36.0888 325.3 34.9138 325.067 33.9805 324.6C33.0471 324.117 32.2638 323.458 31.6305 322.625L32.9055 321.25C33.4555 321.95 34.0971 322.492 34.8305 322.875C35.5805 323.258 36.4721 323.45 37.5055 323.45C38.0721 323.45 38.5888 323.358 39.0555 323.175C39.5388 322.992 39.9471 322.742 40.2805 322.425C40.6138 322.108 40.8721 321.733 41.0555 321.3C41.2555 320.85 41.3555 320.375 41.3555 319.875C41.3555 319.325 41.2555 318.833 41.0555 318.4C40.8721 317.95 40.6138 317.567 40.2805 317.25C39.9471 316.933 39.5471 316.692 39.0805 316.525C38.6138 316.358 38.0971 316.275 37.5305 316.275C36.7805 316.275 36.0888 316.4 35.4555 316.65C34.8388 316.9 34.2471 317.3 33.6805 317.85L32.1555 317.325V308.325H42.3555V310.175H34.2305V315.975C34.6305 315.575 35.1638 315.225 35.8305 314.925C36.5138 314.625 37.2805 314.475 38.1305 314.475C38.8305 314.475 39.4971 314.592 40.1305 314.825C40.7638 315.058 41.3221 315.4 41.8055 315.85C42.3055 316.3 42.6971 316.858 42.9805 317.525C43.2805 318.192 43.4305 318.95 43.4305 319.8C43.4305 320.65 43.2805 321.417 42.9805 322.1C42.6805 322.783 42.2638 323.367 41.7305 323.85C41.1971 324.317 40.5638 324.675 39.8305 324.925C39.1138 325.175 38.3388 325.3 37.5055 325.3ZM52.3766 325.3C51.2266 325.3 50.2516 325.042 49.4516 324.525C48.6516 324.008 47.9932 323.342 47.4766 322.525C46.9599 321.692 46.5849 320.767 46.3516 319.75C46.1182 318.717 46.0016 317.692 46.0016 316.675C46.0016 315.658 46.1182 314.642 46.3516 313.625C46.5849 312.592 46.9599 311.667 47.4766 310.85C47.9932 310.033 48.6516 309.367 49.4516 308.85C50.2516 308.333 51.2266 308.075 52.3766 308.075C53.5099 308.075 54.4766 308.333 55.2766 308.85C56.0932 309.367 56.7516 310.033 57.2516 310.85C57.7682 311.667 58.1432 312.592 58.3766 313.625C58.6266 314.642 58.7516 315.658 58.7516 316.675C58.7516 317.692 58.6266 318.717 58.3766 319.75C58.1432 320.767 57.7682 321.692 57.2516 322.525C56.7516 323.342 56.0932 324.008 55.2766 324.525C54.4766 325.042 53.5099 325.3 52.3766 325.3ZM52.3766 323.45C53.1766 323.45 53.8432 323.258 54.3766 322.875C54.9266 322.475 55.3682 321.958 55.7016 321.325C56.0349 320.675 56.2682 319.95 56.4016 319.15C56.5516 318.333 56.6266 317.508 56.6266 316.675C56.6266 315.842 56.5516 315.025 56.4016 314.225C56.2682 313.408 56.0349 312.683 55.7016 312.05C55.3682 311.417 54.9266 310.908 54.3766 310.525C53.8432 310.125 53.1766 309.925 52.3766 309.925C51.5766 309.925 50.9016 310.125 50.3516 310.525C49.8182 310.908 49.3849 311.417 49.0516 312.05C48.7182 312.683 48.4766 313.408 48.3266 314.225C48.1932 315.025 48.1266 315.842 48.1266 316.675C48.1266 317.508 48.1932 318.333 48.3266 319.15C48.4766 319.95 48.7182 320.675 49.0516 321.325C49.3849 321.958 49.8182 322.475 50.3516 322.875C50.9016 323.258 51.5766 323.45 52.3766 323.45ZM63.6529 324.4C63.6529 325.167 63.4529 325.883 63.0529 326.55C62.6696 327.217 62.1863 327.758 61.6029 328.175L60.6779 327.4C61.0779 327.133 61.4363 326.783 61.7529 326.35C62.0696 325.917 62.2529 325.492 62.3029 325.075C62.2363 325.108 62.1196 325.125 61.9529 325.125C61.6029 325.125 61.3113 325.008 61.0779 324.775C60.8613 324.542 60.7529 324.233 60.7529 323.85C60.7529 323.483 60.8779 323.167 61.1279 322.9C61.3779 322.633 61.6946 322.5 62.0779 322.5C62.4946 322.5 62.8613 322.667 63.1779 323C63.4946 323.333 63.6529 323.8 63.6529 324.4ZM71.8834 325.3C70.7334 325.3 69.7584 325.042 68.9584 324.525C68.1584 324.008 67.5001 323.342 66.9834 322.525C66.4667 321.692 66.0917 320.767 65.8584 319.75C65.6251 318.717 65.5084 317.692 65.5084 316.675C65.5084 315.658 65.6251 314.642 65.8584 313.625C66.0917 312.592 66.4667 311.667 66.9834 310.85C67.5001 310.033 68.1584 309.367 68.9584 308.85C69.7584 308.333 70.7334 308.075 71.8834 308.075C73.0167 308.075 73.9834 308.333 74.7834 308.85C75.6001 309.367 76.2584 310.033 76.7584 310.85C77.2751 311.667 77.6501 312.592 77.8834 313.625C78.1334 314.642 78.2584 315.658 78.2584 316.675C78.2584 317.692 78.1334 318.717 77.8834 319.75C77.6501 320.767 77.2751 321.692 76.7584 322.525C76.2584 323.342 75.6001 324.008 74.7834 324.525C73.9834 325.042 73.0167 325.3 71.8834 325.3ZM71.8834 323.45C72.6834 323.45 73.3501 323.258 73.8834 322.875C74.4334 322.475 74.8751 321.958 75.2084 321.325C75.5417 320.675 75.7751 319.95 75.9084 319.15C76.0584 318.333 76.1334 317.508 76.1334 316.675C76.1334 315.842 76.0584 315.025 75.9084 314.225C75.7751 313.408 75.5417 312.683 75.2084 312.05C74.8751 311.417 74.4334 310.908 73.8834 310.525C73.3501 310.125 72.6834 309.925 71.8834 309.925C71.0834 309.925 70.4084 310.125 69.8584 310.525C69.3251 310.908 68.8917 311.417 68.5584 312.05C68.2251 312.683 67.9834 313.408 67.8334 314.225C67.7001 315.025 67.6334 315.842 67.6334 316.675C67.6334 317.508 67.7001 318.333 67.8334 319.15C67.9834 319.95 68.2251 320.675 68.5584 321.325C68.8917 321.958 69.3251 322.475 69.8584 322.875C70.4084 323.258 71.0834 323.45 71.8834 323.45Z" fill="black"/>
<path d="M1114.93 324L1108.23 307.325H1110.6L1116.23 321.725L1121.85 307.325H1124.23L1117.5 324H1114.93ZM1125.18 313.9V312.575H1136.21V313.9H1125.18ZM1125.18 318.725V317.425H1136.21V318.725H1125.18ZM1144.58 324.3C1143.43 324.3 1142.46 324.042 1141.66 323.525C1140.86 323.008 1140.2 322.342 1139.68 321.525C1139.16 320.692 1138.79 319.767 1138.56 318.75C1138.32 317.717 1138.21 316.692 1138.21 315.675C1138.21 314.658 1138.32 313.642 1138.56 312.625C1138.79 311.592 1139.16 310.667 1139.68 309.85C1140.2 309.033 1140.86 308.367 1141.66 307.85C1142.46 307.333 1143.43 307.075 1144.58 307.075C1145.71 307.075 1146.68 307.333 1147.48 307.85C1148.3 308.367 1148.96 309.033 1149.46 309.85C1149.97 310.667 1150.35 311.592 1150.58 312.625C1150.83 313.642 1150.96 314.658 1150.96 315.675C1150.96 316.692 1150.83 317.717 1150.58 318.75C1150.35 319.767 1149.97 320.692 1149.46 321.525C1148.96 322.342 1148.3 323.008 1147.48 323.525C1146.68 324.042 1145.71 324.3 1144.58 324.3ZM1144.58 322.45C1145.38 322.45 1146.05 322.258 1146.58 321.875C1147.13 321.475 1147.57 320.958 1147.91 320.325C1148.24 319.675 1148.47 318.95 1148.61 318.15C1148.76 317.333 1148.83 316.508 1148.83 315.675C1148.83 314.842 1148.76 314.025 1148.61 313.225C1148.47 312.408 1148.24 311.683 1147.91 311.05C1147.57 310.417 1147.13 309.908 1146.58 309.525C1146.05 309.125 1145.38 308.925 1144.58 308.925C1143.78 308.925 1143.11 309.125 1142.56 309.525C1142.02 309.908 1141.59 310.417 1141.26 311.05C1140.92 311.683 1140.68 312.408 1140.53 313.225C1140.4 314.025 1140.33 314.842 1140.33 315.675C1140.33 316.508 1140.4 317.333 1140.53 318.15C1140.68 318.95 1140.92 319.675 1141.26 320.325C1141.59 320.958 1142.02 321.475 1142.56 321.875C1143.11 322.258 1143.78 322.45 1144.58 322.45ZM1155.86 323.4C1155.86 324.167 1155.66 324.883 1155.26 325.55C1154.87 326.217 1154.39 326.758 1153.81 327.175L1152.88 326.4C1153.28 326.133 1153.64 325.783 1153.96 325.35C1154.27 324.917 1154.46 324.492 1154.51 324.075C1154.44 324.108 1154.32 324.125 1154.16 324.125C1153.81 324.125 1153.52 324.008 1153.28 323.775C1153.07 323.542 1152.96 323.233 1152.96 322.85C1152.96 322.483 1153.08 322.167 1153.33 321.9C1153.58 321.633 1153.9 321.5 1154.28 321.5C1154.7 321.5 1155.07 321.667 1155.38 322C1155.7 322.333 1155.86 322.8 1155.86 323.4ZM1159.72 324V310.075L1157.04 312.9L1155.79 311.625L1159.97 307.325H1161.79V324H1159.72Z" fill="black"/>
<path d="M1101.93 643L1095.23 626.325H1097.6L1103.23 640.725L1108.85 626.325H1111.23L1104.5 643H1101.93ZM1112.18 632.9V631.575H1123.21V632.9H1112.18ZM1112.18 637.725V636.425H1123.21V637.725H1112.18ZM1131.58 643.3C1130.43 643.3 1129.46 643.042 1128.66 642.525C1127.86 642.008 1127.2 641.342 1126.68 640.525C1126.16 639.692 1125.79 638.767 1125.56 637.75C1125.32 636.717 1125.21 635.692 1125.21 634.675C1125.21 633.658 1125.32 632.642 1125.56 631.625C1125.79 630.592 1126.16 629.667 1126.68 628.85C1127.2 628.033 1127.86 627.367 1128.66 626.85C1129.46 626.333 1130.43 626.075 1131.58 626.075C1132.71 626.075 1133.68 626.333 1134.48 626.85C1135.3 627.367 1135.96 628.033 1136.46 628.85C1136.97 629.667 1137.35 630.592 1137.58 631.625C1137.83 632.642 1137.96 633.658 1137.96 634.675C1137.96 635.692 1137.83 636.717 1137.58 637.75C1137.35 638.767 1136.97 639.692 1136.46 640.525C1135.96 641.342 1135.3 642.008 1134.48 642.525C1133.68 643.042 1132.71 643.3 1131.58 643.3ZM1131.58 641.45C1132.38 641.45 1133.05 641.258 1133.58 640.875C1134.13 640.475 1134.57 639.958 1134.91 639.325C1135.24 638.675 1135.47 637.95 1135.61 637.15C1135.76 636.333 1135.83 635.508 1135.83 634.675C1135.83 633.842 1135.76 633.025 1135.61 632.225C1135.47 631.408 1135.24 630.683 1134.91 630.05C1134.57 629.417 1134.13 628.908 1133.58 628.525C1133.05 628.125 1132.38 627.925 1131.58 627.925C1130.78 627.925 1130.11 628.125 1129.56 628.525C1129.02 628.908 1128.59 629.417 1128.26 630.05C1127.92 630.683 1127.68 631.408 1127.53 632.225C1127.4 633.025 1127.33 633.842 1127.33 634.675C1127.33 635.508 1127.4 636.333 1127.53 637.15C1127.68 637.95 1127.92 638.675 1128.26 639.325C1128.59 639.958 1129.02 640.475 1129.56 640.875C1130.11 641.258 1130.78 641.45 1131.58 641.45ZM1142.86 642.4C1142.86 643.167 1142.66 643.883 1142.26 644.55C1141.87 645.217 1141.39 645.758 1140.81 646.175L1139.88 645.4C1140.28 645.133 1140.64 644.783 1140.96 644.35C1141.27 643.917 1141.46 643.492 1141.51 643.075C1141.44 643.108 1141.32 643.125 1141.16 643.125C1140.81 643.125 1140.52 643.008 1140.28 642.775C1140.07 642.542 1139.96 642.233 1139.96 641.85C1139.96 641.483 1140.08 641.167 1140.33 640.9C1140.58 640.633 1140.9 640.5 1141.28 640.5C1141.7 640.5 1142.07 640.667 1142.38 641C1142.7 641.333 1142.86 641.8 1142.86 642.4ZM1145.57 643V641.35C1147.07 640.167 1148.39 639.1 1149.54 638.15C1150.69 637.183 1151.66 636.292 1152.44 635.475C1153.23 634.642 1153.82 633.867 1154.22 633.15C1154.62 632.417 1154.82 631.692 1154.82 630.975C1154.82 630.442 1154.72 629.983 1154.52 629.6C1154.32 629.217 1154.05 628.9 1153.72 628.65C1153.4 628.4 1153.04 628.217 1152.62 628.1C1152.2 627.983 1151.78 627.925 1151.34 627.925C1150.34 627.925 1149.46 628.117 1148.69 628.5C1147.93 628.883 1147.3 629.392 1146.82 630.025L1145.54 628.7C1146.18 627.85 1147 627.2 1148.02 626.75C1149.05 626.3 1150.16 626.075 1151.34 626.075C1152.04 626.075 1152.73 626.175 1153.39 626.375C1154.06 626.575 1154.65 626.875 1155.17 627.275C1155.7 627.675 1156.13 628.183 1156.44 628.8C1156.78 629.417 1156.94 630.142 1156.94 630.975C1156.94 631.825 1156.74 632.667 1156.32 633.5C1155.92 634.317 1155.35 635.142 1154.62 635.975C1153.9 636.792 1153.05 637.633 1152.07 638.5C1151.09 639.35 1150.01 640.233 1148.84 641.15H1157.02V643H1145.57Z" fill="black"/>
<path d="M2.95 645V628.325H8.65C9.95 628.325 11.125 628.542 12.175 628.975C13.225 629.392 14.1167 629.975 14.85 630.725C15.6 631.475 16.175 632.358 16.575 633.375C16.9917 634.392 17.2 635.492 17.2 636.675C17.2 637.858 16.9917 638.958 16.575 639.975C16.175 640.992 15.6 641.875 14.85 642.625C14.1167 643.358 13.225 643.942 12.175 644.375C11.125 644.792 9.95 645 8.65 645H2.95ZM8.65 643.15C9.66667 643.15 10.5667 642.983 11.35 642.65C12.15 642.3 12.825 641.833 13.375 641.25C13.925 640.667 14.3417 639.983 14.625 639.2C14.9083 638.417 15.05 637.575 15.05 636.675C15.05 635.775 14.9083 634.933 14.625 634.15C14.3417 633.35 13.925 632.658 13.375 632.075C12.8417 631.492 12.175 631.033 11.375 630.7C10.5917 630.35 9.68333 630.175 8.65 630.175H5.025V643.15H8.65ZM19.2299 634.9V633.575H30.2549V634.9H19.2299ZM19.2299 639.725V638.425H30.2549V639.725H19.2299ZM32.3305 645V643.35C33.8305 642.167 35.1555 641.1 36.3055 640.15C37.4555 639.183 38.4221 638.292 39.2055 637.475C39.9888 636.642 40.5805 635.867 40.9805 635.15C41.3805 634.417 41.5805 633.692 41.5805 632.975C41.5805 632.442 41.4805 631.983 41.2805 631.6C41.0805 631.217 40.8138 630.9 40.4805 630.65C40.1638 630.4 39.7971 630.217 39.3805 630.1C38.9638 629.983 38.5388 629.925 38.1055 629.925C37.1055 629.925 36.2221 630.117 35.4555 630.5C34.6888 630.883 34.0638 631.392 33.5805 632.025L32.3055 630.7C32.9388 629.85 33.7638 629.2 34.7805 628.75C35.8138 628.3 36.9221 628.075 38.1055 628.075C38.8055 628.075 39.4888 628.175 40.1555 628.375C40.8221 628.575 41.4138 628.875 41.9305 629.275C42.4638 629.675 42.8888 630.183 43.2055 630.8C43.5388 631.417 43.7055 632.142 43.7055 632.975C43.7055 633.825 43.4971 634.667 43.0805 635.5C42.6805 636.317 42.1138 637.142 41.3805 637.975C40.6638 638.792 39.8138 639.633 38.8305 640.5C37.8471 641.35 36.7721 642.233 35.6055 643.15H43.7805V645H32.3305ZM53.3277 645.3C52.1777 645.3 51.2027 645.042 50.4027 644.525C49.6027 644.008 48.9444 643.342 48.4277 642.525C47.9111 641.692 47.5361 640.767 47.3027 639.75C47.0694 638.717 46.9527 637.692 46.9527 636.675C46.9527 635.658 47.0694 634.642 47.3027 633.625C47.5361 632.592 47.9111 631.667 48.4277 630.85C48.9444 630.033 49.6027 629.367 50.4027 628.85C51.2027 628.333 52.1777 628.075 53.3277 628.075C54.4611 628.075 55.4277 628.333 56.2277 628.85C57.0444 629.367 57.7027 630.033 58.2027 630.85C58.7194 631.667 59.0944 632.592 59.3277 633.625C59.5777 634.642 59.7027 635.658 59.7027 636.675C59.7027 637.692 59.5777 638.717 59.3277 639.75C59.0944 640.767 58.7194 641.692 58.2027 642.525C57.7027 643.342 57.0444 644.008 56.2277 644.525C55.4277 645.042 54.4611 645.3 53.3277 645.3ZM53.3277 643.45C54.1277 643.45 54.7944 643.258 55.3277 642.875C55.8777 642.475 56.3194 641.958 56.6527 641.325C56.9861 640.675 57.2194 639.95 57.3527 639.15C57.5027 638.333 57.5777 637.508 57.5777 636.675C57.5777 635.842 57.5027 635.025 57.3527 634.225C57.2194 633.408 56.9861 632.683 56.6527 632.05C56.3194 631.417 55.8777 630.908 55.3277 630.525C54.7944 630.125 54.1277 629.925 53.3277 629.925C52.5277 629.925 51.8527 630.125 51.3027 630.525C50.7694 630.908 50.3361 631.417 50.0027 632.05C49.6694 632.683 49.4277 633.408 49.2777 634.225C49.1444 635.025 49.0777 635.842 49.0777 636.675C49.0777 637.508 49.1444 638.333 49.2777 639.15C49.4277 639.95 49.6694 640.675 50.0027 641.325C50.3361 641.958 50.7694 642.475 51.3027 642.875C51.8527 643.258 52.5277 643.45 53.3277 643.45ZM64.6041 644.4C64.6041 645.167 64.4041 645.883 64.0041 646.55C63.6208 647.217 63.1374 647.758 62.5541 648.175L61.6291 647.4C62.0291 647.133 62.3874 646.783 62.7041 646.35C63.0208 645.917 63.2041 645.492 63.2541 645.075C63.1874 645.108 63.0708 645.125 62.9041 645.125C62.5541 645.125 62.2624 645.008 62.0291 644.775C61.8124 644.542 61.7041 644.233 61.7041 643.85C61.7041 643.483 61.8291 643.167 62.0791 642.9C62.3291 642.633 62.6458 642.5 63.0291 642.5C63.4458 642.5 63.8124 642.667 64.1291 643C64.4458 643.333 64.6041 643.8 64.6041 644.4ZM72.8346 645.3C71.6846 645.3 70.7096 645.042 69.9096 644.525C69.1096 644.008 68.4512 643.342 67.9346 642.525C67.4179 641.692 67.0429 640.767 66.8096 639.75C66.5762 638.717 66.4596 637.692 66.4596 636.675C66.4596 635.658 66.5762 634.642 66.8096 633.625C67.0429 632.592 67.4179 631.667 67.9346 630.85C68.4512 630.033 69.1096 629.367 69.9096 628.85C70.7096 628.333 71.6846 628.075 72.8346 628.075C73.9679 628.075 74.9346 628.333 75.7346 628.85C76.5512 629.367 77.2096 630.033 77.7096 630.85C78.2262 631.667 78.6012 632.592 78.8346 633.625C79.0846 634.642 79.2096 635.658 79.2096 636.675C79.2096 637.692 79.0846 638.717 78.8346 639.75C78.6012 640.767 78.2262 641.692 77.7096 642.525C77.2096 643.342 76.5512 644.008 75.7346 644.525C74.9346 645.042 73.9679 645.3 72.8346 645.3ZM72.8346 643.45C73.6346 643.45 74.3012 643.258 74.8346 642.875C75.3846 642.475 75.8262 641.958 76.1596 641.325C76.4929 640.675 76.7262 639.95 76.8596 639.15C77.0096 638.333 77.0846 637.508 77.0846 636.675C77.0846 635.842 77.0096 635.025 76.8596 634.225C76.7262 633.408 76.4929 632.683 76.1596 632.05C75.8262 631.417 75.3846 630.908 74.8346 630.525C74.3012 630.125 73.6346 629.925 72.8346 629.925C72.0346 629.925 71.3596 630.125 70.8096 630.525C70.2762 630.908 69.8429 631.417 69.5096 632.05C69.1762 632.683 68.9346 633.408 68.7846 634.225C68.6512 635.025 68.5846 635.842 68.5846 636.675C68.5846 637.508 68.6512 638.333 68.7846 639.15C68.9346 639.95 69.1762 640.675 69.5096 641.325C69.8429 641.958 70.2762 642.475 70.8096 642.875C71.3596 643.258 72.0346 643.45 72.8346 643.45Z" fill="black"/>
<path d="M94.775 798.325V800.175H86.025V804.95H90.65C91.4667 804.95 92.2 805.083 92.85 805.35C93.5 805.617 94.05 805.983 94.5 806.45C94.95 806.9 95.2917 807.433 95.525 808.05C95.7583 808.65 95.875 809.292 95.875 809.975C95.875 810.658 95.7583 811.308 95.525 811.925C95.2917 812.525 94.95 813.058 94.5 813.525C94.0667 813.975 93.525 814.333 92.875 814.6C92.225 814.867 91.4833 815 90.65 815H83.95V798.325H94.775ZM86.025 806.8V813.15H90.4C91.4 813.15 92.2 812.858 92.8 812.275C93.4167 811.692 93.725 810.925 93.725 809.975C93.725 809.025 93.4167 808.258 92.8 807.675C92.2 807.092 91.4 806.8 90.4 806.8H86.025ZM98.6229 815V798.325H109.548V800.175H100.698V805.55H109.373V807.4H100.698V813.15H109.548V815H98.6229ZM117.906 815.3C117.173 815.3 116.481 815.225 115.831 815.075C115.198 814.942 114.606 814.75 114.056 814.5C113.523 814.25 113.048 813.958 112.631 813.625C112.231 813.292 111.898 812.933 111.631 812.55L112.856 811.225C113.356 811.875 114.056 812.408 114.956 812.825C115.856 813.242 116.823 813.45 117.856 813.45C119.173 813.45 120.198 813.175 120.931 812.625C121.681 812.058 122.056 811.292 122.056 810.325C122.056 809.808 121.948 809.367 121.731 809C121.531 808.617 121.24 808.308 120.856 808.075C120.473 807.842 120.015 807.667 119.481 807.55C118.948 807.433 118.365 807.375 117.731 807.375H114.331V805.525H117.731C118.281 805.525 118.798 805.475 119.281 805.375C119.781 805.258 120.215 805.092 120.581 804.875C120.948 804.642 121.24 804.358 121.456 804.025C121.673 803.675 121.781 803.258 121.781 802.775C121.781 802.308 121.673 801.9 121.456 801.55C121.256 801.2 120.973 800.908 120.606 800.675C120.24 800.425 119.815 800.242 119.331 800.125C118.848 799.992 118.331 799.925 117.781 799.925C115.898 799.925 114.323 800.6 113.056 801.95L111.906 800.65C112.54 799.917 113.365 799.308 114.381 798.825C115.415 798.325 116.598 798.075 117.931 798.075C118.748 798.075 119.515 798.175 120.231 798.375C120.965 798.575 121.598 798.867 122.131 799.25C122.681 799.617 123.115 800.083 123.431 800.65C123.748 801.2 123.906 801.825 123.906 802.525C123.906 803.125 123.79 803.65 123.556 804.1C123.323 804.55 123.031 804.933 122.681 805.25C122.331 805.567 121.94 805.825 121.506 806.025C121.09 806.208 120.69 806.333 120.306 806.4C120.69 806.433 121.106 806.542 121.556 806.725C122.006 806.908 122.423 807.167 122.806 807.5C123.19 807.833 123.506 808.25 123.756 808.75C124.023 809.25 124.156 809.833 124.156 810.5C124.156 811.2 124.006 811.842 123.706 812.425C123.406 813.008 122.981 813.517 122.431 813.95C121.881 814.367 121.223 814.7 120.456 814.95C119.69 815.183 118.84 815.3 117.906 815.3ZM138.951 815.3C138.218 815.3 137.526 815.225 136.876 815.075C136.243 814.942 135.651 814.75 135.101 814.5C134.568 814.25 134.093 813.958 133.676 813.625C133.276 813.292 132.943 812.933 132.676 812.55L133.901 811.225C134.401 811.875 135.101 812.408 136.001 812.825C136.901 813.242 137.868 813.45 138.901 813.45C140.218 813.45 141.243 813.175 141.976 812.625C142.726 812.058 143.101 811.292 143.101 810.325C143.101 809.808 142.993 809.367 142.776 809C142.576 808.617 142.285 808.308 141.901 808.075C141.518 807.842 141.06 807.667 140.526 807.55C139.993 807.433 139.41 807.375 138.776 807.375H135.376V805.525H138.776C139.326 805.525 139.843 805.475 140.326 805.375C140.826 805.258 141.26 805.092 141.626 804.875C141.993 804.642 142.285 804.358 142.501 804.025C142.718 803.675 142.826 803.258 142.826 802.775C142.826 802.308 142.718 801.9 142.501 801.55C142.301 801.2 142.018 800.908 141.651 800.675C141.285 800.425 140.86 800.242 140.376 800.125C139.893 799.992 139.376 799.925 138.826 799.925C136.943 799.925 135.368 800.6 134.101 801.95L132.951 800.65C133.585 799.917 134.41 799.308 135.426 798.825C136.46 798.325 137.643 798.075 138.976 798.075C139.793 798.075 140.56 798.175 141.276 798.375C142.01 798.575 142.643 798.867 143.176 799.25C143.726 799.617 144.16 800.083 144.476 800.65C144.793 801.2 144.951 801.825 144.951 802.525C144.951 803.125 144.835 803.65 144.601 804.1C144.368 804.55 144.076 804.933 143.726 805.25C143.376 805.567 142.985 805.825 142.551 806.025C142.135 806.208 141.735 806.333 141.351 806.4C141.735 806.433 142.151 806.542 142.601 806.725C143.051 806.908 143.468 807.167 143.851 807.5C144.235 807.833 144.551 808.25 144.801 808.75C145.068 809.25 145.201 809.833 145.201 810.5C145.201 811.2 145.051 811.842 144.751 812.425C144.451 813.008 144.026 813.517 143.476 813.95C142.926 814.367 142.268 814.7 141.501 814.95C140.735 815.183 139.885 815.3 138.951 815.3ZM160.401 815L158.926 811.3H150.626L149.151 815H146.776L153.476 798.325H156.051L162.776 815H160.401ZM154.776 800.475L151.226 809.45H158.301L154.776 800.475ZM171.928 815.3C170.728 815.3 169.603 815.092 168.553 814.675C167.52 814.258 166.611 813.675 165.828 812.925C165.061 812.158 164.453 811.25 164.003 810.2C163.57 809.133 163.353 807.958 163.353 806.675C163.353 805.392 163.57 804.225 164.003 803.175C164.453 802.108 165.061 801.2 165.828 800.45C166.611 799.683 167.52 799.092 168.553 798.675C169.603 798.258 170.728 798.05 171.928 798.05C172.661 798.05 173.336 798.133 173.953 798.3C174.586 798.467 175.161 798.7 175.678 799C176.211 799.3 176.686 799.65 177.103 800.05C177.536 800.45 177.92 800.883 178.253 801.35L176.503 802.325C176.02 801.625 175.37 801.05 174.553 800.6C173.753 800.133 172.878 799.9 171.928 799.9C171.011 799.9 170.161 800.067 169.378 800.4C168.595 800.733 167.911 801.2 167.328 801.8C166.761 802.4 166.311 803.117 165.978 803.95C165.661 804.767 165.503 805.675 165.503 806.675C165.503 807.658 165.661 808.567 165.978 809.4C166.311 810.233 166.761 810.95 167.328 811.55C167.911 812.15 168.595 812.617 169.378 812.95C170.161 813.283 171.011 813.45 171.928 813.45C172.878 813.45 173.753 813.225 174.553 812.775C175.37 812.325 176.02 811.742 176.503 811.025L178.278 812C177.578 812.95 176.711 813.742 175.678 814.375C174.661 814.992 173.411 815.3 171.928 815.3ZM180.923 815V798.325H191.848V800.175H182.998V805.55H191.673V807.4H182.998V813.15H191.848V815H180.923ZM196.731 802.675C196.731 803.958 197.056 804.925 197.706 805.575C198.373 806.208 199.339 806.525 200.606 806.525C201.306 806.525 201.989 806.475 202.656 806.375C203.323 806.275 203.923 806.133 204.456 805.95V798.325H206.531V815H204.456V807.8C203.906 807.95 203.298 808.083 202.631 808.2C201.964 808.317 201.231 808.375 200.431 808.375C199.448 808.375 198.589 808.242 197.856 807.975C197.139 807.692 196.539 807.3 196.056 806.8C195.589 806.3 195.239 805.7 195.006 805C194.773 804.283 194.656 803.5 194.656 802.65V798.325H196.731V802.675ZM210.439 815V798.325H221.364V800.175H212.514V805.55H221.189V807.4H212.514V813.15H221.364V815H210.439ZM234.748 815L228.423 807.5L226.748 809.4V815H224.673V798.325H226.748V806.95L234.123 798.325H236.723L229.773 806.25L237.323 815H234.748Z" fill="black"/>
<path d="M344.525 71.675C344.525 72.9583 344.85 73.925 345.5 74.575C346.167 75.2083 347.133 75.525 348.4 75.525C349.1 75.525 349.783 75.475 350.45 75.375C351.117 75.275 351.717 75.1333 352.25 74.95V67.325H354.325V84H352.25V76.8C351.7 76.95 351.092 77.0833 350.425 77.2C349.758 77.3167 349.025 77.375 348.225 77.375C347.242 77.375 346.383 77.2417 345.65 76.975C344.933 76.6917 344.333 76.3 343.85 75.8C343.383 75.3 343.033 74.7 342.8 74C342.567 73.2833 342.45 72.5 342.45 71.65V67.325H344.525V71.675ZM358.233 84V67.325H360.308V80.35L369.908 67.325H372.033V84H369.958V70.7L360.233 84H358.233ZM383.833 84.3C382.633 84.3 381.508 84.0917 380.458 83.675C379.425 83.2583 378.517 82.675 377.733 81.925C376.967 81.1583 376.358 80.25 375.908 79.2C375.475 78.1333 375.258 76.9583 375.258 75.675C375.258 74.3917 375.475 73.225 375.908 72.175C376.358 71.1083 376.967 70.2 377.733 69.45C378.517 68.6833 379.425 68.0917 380.458 67.675C381.508 67.2583 382.633 67.05 383.833 67.05C384.567 67.05 385.242 67.1333 385.858 67.3C386.492 67.4667 387.067 67.7 387.583 68C388.117 68.3 388.592 68.65 389.008 69.05C389.442 69.45 389.825 69.8833 390.158 70.35L388.408 71.325C387.925 70.625 387.275 70.05 386.458 69.6C385.658 69.1333 384.783 68.9 383.833 68.9C382.917 68.9 382.067 69.0667 381.283 69.4C380.5 69.7333 379.817 70.2 379.233 70.8C378.667 71.4 378.217 72.1167 377.883 72.95C377.567 73.7667 377.408 74.675 377.408 75.675C377.408 76.6583 377.567 77.5667 377.883 78.4C378.217 79.2333 378.667 79.95 379.233 80.55C379.817 81.15 380.5 81.6167 381.283 81.95C382.067 82.2833 382.917 82.45 383.833 82.45C384.783 82.45 385.658 82.225 386.458 81.775C387.275 81.325 387.925 80.7417 388.408 80.025L390.183 81C389.483 81.95 388.617 82.7417 387.583 83.375C386.567 83.9917 385.317 84.3 383.833 84.3ZM396.953 84V69.175H391.678V67.325H404.328V69.175H399.028V84H396.953ZM414.002 84.3C412.769 84.3 411.644 84.0833 410.627 83.65C409.61 83.2167 408.735 82.6167 408.002 81.85C407.285 81.0667 406.727 80.15 406.327 79.1C405.927 78.05 405.727 76.9083 405.727 75.675C405.727 74.4417 405.927 73.3 406.327 72.25C406.727 71.2 407.285 70.2917 408.002 69.525C408.735 68.7417 409.61 68.1333 410.627 67.7C411.644 67.2667 412.769 67.05 414.002 67.05C415.235 67.05 416.36 67.2667 417.377 67.7C418.394 68.1333 419.26 68.7417 419.977 69.525C420.71 70.2917 421.277 71.2 421.677 72.25C422.077 73.3 422.277 74.4417 422.277 75.675C422.277 76.9083 422.077 78.05 421.677 79.1C421.277 80.15 420.71 81.0667 419.977 81.85C419.26 82.6167 418.394 83.2167 417.377 83.65C416.36 84.0833 415.235 84.3 414.002 84.3ZM414.002 82.45C414.935 82.45 415.777 82.2833 416.527 81.95C417.277 81.6 417.919 81.125 418.452 80.525C418.985 79.9083 419.394 79.1917 419.677 78.375C419.977 77.5417 420.127 76.6417 420.127 75.675C420.127 74.7083 419.977 73.8083 419.677 72.975C419.394 72.1417 418.985 71.425 418.452 70.825C417.919 70.225 417.277 69.7583 416.527 69.425C415.777 69.075 414.935 68.9 414.002 68.9C413.069 68.9 412.219 69.075 411.452 69.425C410.702 69.7583 410.06 70.225 409.527 70.825C408.994 71.425 408.585 72.1417 408.302 72.975C408.019 73.8083 407.877 74.7083 407.877 75.675C407.877 76.6417 408.019 77.5417 408.302 78.375C408.585 79.1917 408.994 79.9083 409.527 80.525C410.06 81.125 410.702 81.6 411.452 81.95C412.219 82.2833 413.069 82.45 414.002 82.45ZM428.96 84V69.175H423.685V67.325H436.335V69.175H431.035V84H428.96ZM449.308 84L447.833 80.3H439.533L438.058 84H435.683L442.383 67.325H444.958L451.683 84H449.308ZM443.683 69.475L440.133 78.45H447.208L443.683 69.475ZM459.158 82.45C459.658 82.45 460.1 82.3667 460.483 82.2C460.883 82.0167 461.242 81.6833 461.558 81.2C461.875 80.7 462.142 80.0167 462.358 79.15C462.592 78.2667 462.8 77.1167 462.983 75.7L464.008 67.325H474.208V84H472.133V69.175H465.858L465.033 75.85C464.8 77.6833 464.5 79.1583 464.133 80.275C463.783 81.375 463.358 82.225 462.858 82.825C462.375 83.425 461.825 83.8167 461.208 84C460.592 84.2 459.908 84.3 459.158 84.3V82.45ZM478.106 84V67.325H480.181V80.35L489.781 67.325H491.906V84H489.831V70.7L480.106 84H478.106ZM507.631 84V76.35H497.881V84H495.806V67.325H497.881V74.5H507.631V67.325H509.706V84H507.631ZM513.604 84V67.325H515.679V80.35L525.279 67.325H527.404V84H525.329V70.7L515.604 84H513.604ZM531.304 84V67.325H533.379V80.35L542.979 67.325H545.104V84H543.029V70.7L533.304 84H531.304ZM542.579 64.175C542.079 64.8583 541.446 65.4 540.679 65.8C539.929 66.1833 539.104 66.375 538.204 66.375C537.304 66.375 536.471 66.1833 535.704 65.8C534.954 65.4 534.321 64.8583 533.804 64.175L534.729 63.375C535.129 63.925 535.621 64.3667 536.204 64.7C536.788 65.0167 537.454 65.175 538.204 65.175C538.938 65.175 539.596 65.0167 540.179 64.7C540.779 64.3833 541.271 63.9417 541.654 63.375L542.579 64.175Z" fill="black"/>
<circle cx="167" cy="723" r="49" stroke="black" stroke-width="2"/>
</svg>
