<svg width="437" height="354" viewBox="0 0 437 354" fill="none" xmlns="http://www.w3.org/2000/svg">
<rect x="1.58508" y="0.934691" width="433.959" height="352.254" rx="47.3459" stroke="black" stroke-width="1.62329"/>
<rect x="39.1953" y="37.459" width="359.288" height="241.329" fill="black"/>
<path d="M60.8398 104.554H63.2748L65.1686 102.12L70.0385 106.719L73.8262 86.1572L77.3433 106.719L86.0008 100.226L91.4118 105.366L109.809 104.825L111.973 101.578L116.843 106.989L120.36 88.3216L123.878 106.178L133.617 100.496L139.569 105.366H164.189L168.247 87.7805L171.494 107.801L179.34 101.037L185.833 106.448L203.148 105.096L205.313 102.931L209.912 106.448L214.511 87.7805L217.217 105.637L223.169 105.096L226.145 100.496L231.285 105.637L250.494 103.743L256.176 106.719L260.775 88.3216L263.21 107.531L271.597 100.496L277.278 106.719L295.676 105.096L297.028 102.12L300.816 105.096L307.58 86.6983L310.556 108.342" stroke="#FFCC97" stroke-width="0.541096"/>
<path d="M60.8398 165.159H63.2748L65.1686 162.725L70.0385 167.324L73.8262 146.762L77.3433 167.324L86.0008 160.831L91.4118 165.971L109.809 165.43L111.973 162.183L116.843 167.594L120.36 148.927L123.878 166.783L133.617 161.101L139.569 165.971H164.189L168.247 148.385L171.494 168.406L179.34 161.642L185.833 167.053L203.148 165.701L205.313 163.536L209.912 167.053L214.511 148.385L217.217 166.242L223.169 165.701L226.145 161.101L231.285 166.242L250.494 164.348L256.176 167.324L260.775 148.927L263.21 168.136L271.597 161.101L277.278 167.324L295.676 165.701L297.028 162.725L300.816 165.701L307.58 147.303L310.556 168.947" stroke="#FFCC97" stroke-width="0.541096"/>
<path d="M339.849 107.004C338.075 107.004 336.568 106.649 335.327 105.94C334.085 105.205 333.072 104.242 332.287 103.052C331.527 101.836 330.969 100.442 330.615 98.8716C330.26 97.3009 330.083 95.6542 330.083 93.9315C330.083 92.2089 330.285 90.5622 330.691 88.9915C331.096 87.3955 331.717 86.0022 332.553 84.8115C333.414 83.5955 334.491 82.6328 335.783 81.9235C337.075 81.1888 338.607 80.8215 340.381 80.8215C342.027 80.8215 343.408 81.1128 344.523 81.6955C345.663 82.2528 346.625 82.9748 347.411 83.8615L345.815 86.2175C345.156 85.4575 344.421 84.8368 343.611 84.3555C342.8 83.8741 341.723 83.6335 340.381 83.6335C339.165 83.6335 338.101 83.9248 337.189 84.5075C336.302 85.0648 335.555 85.8122 334.947 86.7495C334.364 87.6868 333.933 88.7508 333.655 89.9415C333.376 91.1322 333.237 92.3482 333.237 93.5895C333.237 93.7669 333.237 93.9315 333.237 94.0835C333.237 94.2355 333.249 94.4002 333.275 94.5775C333.553 94.1469 333.921 93.7035 334.377 93.2475C334.858 92.7662 335.415 92.3355 336.049 91.9555C336.682 91.5755 337.366 91.2589 338.101 91.0055C338.861 90.7522 339.646 90.6255 340.457 90.6255C341.597 90.6255 342.661 90.8029 343.649 91.1575C344.662 91.4869 345.549 91.9935 346.309 92.6775C347.069 93.3362 347.664 94.1722 348.095 95.1855C348.525 96.1989 348.741 97.3769 348.741 98.7196C348.741 99.8342 348.538 100.898 348.133 101.912C347.727 102.9 347.145 103.774 346.385 104.534C345.625 105.294 344.687 105.902 343.573 106.358C342.483 106.788 341.242 107.004 339.849 107.004ZM339.735 104.192C340.723 104.192 341.571 104.027 342.281 103.698C343.015 103.368 343.623 102.95 344.105 102.444C344.586 101.912 344.941 101.329 345.169 100.696C345.422 100.062 345.549 99.4416 345.549 98.8336C345.549 97.8962 345.397 97.0856 345.093 96.4016C344.789 95.7175 344.371 95.1475 343.839 94.6915C343.307 94.2355 342.686 93.9062 341.977 93.7035C341.267 93.4755 340.507 93.3615 339.697 93.3615C338.43 93.3615 337.227 93.7162 336.087 94.4255C334.972 95.1095 334.06 96.0215 333.351 97.1616C333.427 97.9469 333.591 98.7576 333.845 99.5936C334.123 100.43 334.503 101.19 334.985 101.874C335.491 102.558 336.125 103.115 336.885 103.546C337.67 103.976 338.62 104.192 339.735 104.192ZM362.224 107.004C360.476 107.004 358.994 106.611 357.778 105.826C356.562 105.04 355.561 104.027 354.776 102.786C353.991 101.519 353.421 100.113 353.066 98.5676C352.711 96.9969 352.534 95.4389 352.534 93.8935C352.534 92.3482 352.711 90.8029 353.066 89.2575C353.421 87.6868 353.991 86.2808 354.776 85.0395C355.561 83.7981 356.562 82.7848 357.778 81.9995C358.994 81.2141 360.476 80.8215 362.224 80.8215C363.947 80.8215 365.416 81.2141 366.632 81.9995C367.873 82.7848 368.874 83.7981 369.634 85.0395C370.419 86.2808 370.989 87.6868 371.344 89.2575C371.724 90.8029 371.914 92.3482 371.914 93.8935C371.914 95.4389 371.724 96.9969 371.344 98.5676C370.989 100.113 370.419 101.519 369.634 102.786C368.874 104.027 367.873 105.04 366.632 105.826C365.416 106.611 363.947 107.004 362.224 107.004ZM362.224 104.192C363.44 104.192 364.453 103.9 365.264 103.318C366.1 102.71 366.771 101.924 367.278 100.962C367.785 99.9736 368.139 98.8716 368.342 97.6556C368.57 96.4142 368.684 95.1602 368.684 93.8935C368.684 92.6269 368.57 91.3855 368.342 90.1695C368.139 88.9282 367.785 87.8262 367.278 86.8635C366.771 85.9008 366.1 85.1282 365.264 84.5455C364.453 83.9375 363.44 83.6335 362.224 83.6335C361.008 83.6335 359.982 83.9375 359.146 84.5455C358.335 85.1282 357.677 85.9008 357.17 86.8635C356.663 87.8262 356.296 88.9282 356.068 90.1695C355.865 91.3855 355.764 92.6269 355.764 93.8935C355.764 95.1602 355.865 96.4142 356.068 97.6556C356.296 98.8716 356.663 99.9736 357.17 100.962C357.677 101.924 358.335 102.71 359.146 103.318C359.982 103.9 361.008 104.192 362.224 104.192Z" fill="white"/>
<path d="M338.367 167.571C336.745 167.571 335.365 167.292 334.225 166.735C333.11 166.177 332.147 165.443 331.337 164.531L332.933 162.175C333.591 162.935 334.326 163.555 335.137 164.037C335.973 164.518 337.049 164.759 338.367 164.759C339.659 164.759 340.748 164.467 341.635 163.885C342.547 163.302 343.281 162.542 343.839 161.605C344.421 160.667 344.839 159.603 345.093 158.413C345.371 157.222 345.511 156.031 345.511 154.841C345.511 154.663 345.511 154.499 345.511 154.347C345.511 154.169 345.498 153.992 345.473 153.815C345.194 154.245 344.814 154.701 344.333 155.183C343.877 155.639 343.332 156.057 342.699 156.437C342.065 156.817 341.381 157.133 340.647 157.387C339.912 157.64 339.139 157.767 338.329 157.767C337.189 157.767 336.112 157.602 335.099 157.273C334.085 156.918 333.199 156.411 332.439 155.753C331.704 155.069 331.109 154.22 330.653 153.207C330.222 152.193 330.007 151.015 330.007 149.672C330.007 148.583 330.209 147.544 330.615 146.556C331.02 145.543 331.603 144.656 332.363 143.896C333.123 143.136 334.047 142.528 335.137 142.072C336.251 141.616 337.493 141.388 338.861 141.388C340.634 141.388 342.141 141.756 343.383 142.49C344.624 143.2 345.637 144.162 346.423 145.378C347.208 146.569 347.778 147.962 348.133 149.558C348.487 151.129 348.665 152.776 348.665 154.499C348.665 156.221 348.462 157.868 348.057 159.439C347.651 161.009 347.018 162.403 346.157 163.619C345.321 164.809 344.257 165.772 342.965 166.507C341.673 167.216 340.14 167.571 338.367 167.571ZM339.051 155.031C340.317 155.031 341.521 154.689 342.661 154.005C343.801 153.321 344.7 152.409 345.359 151.268C345.283 150.483 345.118 149.672 344.865 148.836C344.611 148 344.231 147.24 343.725 146.556C343.243 145.872 342.61 145.315 341.825 144.884C341.039 144.428 340.102 144.2 339.013 144.2C338.05 144.2 337.201 144.365 336.467 144.694C335.732 145.024 335.124 145.454 334.643 145.986C334.161 146.493 333.794 147.063 333.541 147.696C333.313 148.33 333.199 148.95 333.199 149.558C333.199 150.496 333.351 151.306 333.655 151.991C333.959 152.675 334.377 153.245 334.909 153.701C335.441 154.157 336.061 154.499 336.771 154.727C337.48 154.929 338.24 155.031 339.051 155.031ZM362.224 167.609C360.476 167.609 358.994 167.216 357.778 166.431C356.562 165.645 355.561 164.632 354.776 163.391C353.991 162.124 353.421 160.718 353.066 159.173C352.711 157.602 352.534 156.044 352.534 154.499C352.534 152.953 352.711 151.408 353.066 149.862C353.421 148.292 353.991 146.886 354.776 145.644C355.561 144.403 356.562 143.39 357.778 142.604C358.994 141.819 360.476 141.426 362.224 141.426C363.947 141.426 365.416 141.819 366.632 142.604C367.873 143.39 368.874 144.403 369.634 145.644C370.419 146.886 370.989 148.292 371.344 149.862C371.724 151.408 371.914 152.953 371.914 154.499C371.914 156.044 371.724 157.602 371.344 159.173C370.989 160.718 370.419 162.124 369.634 163.391C368.874 164.632 367.873 165.645 366.632 166.431C365.416 167.216 363.947 167.609 362.224 167.609ZM362.224 164.797C363.44 164.797 364.453 164.505 365.264 163.923C366.1 163.315 366.771 162.529 367.278 161.567C367.785 160.579 368.139 159.477 368.342 158.261C368.57 157.019 368.684 155.765 368.684 154.499C368.684 153.232 368.57 151.991 368.342 150.774C368.139 149.533 367.785 148.431 367.278 147.468C366.771 146.506 366.1 145.733 365.264 145.15C364.453 144.542 363.44 144.238 362.224 144.238C361.008 144.238 359.982 144.542 359.146 145.15C358.335 145.733 357.677 146.506 357.17 147.468C356.663 148.431 356.296 149.533 356.068 150.774C355.865 151.991 355.764 153.232 355.764 154.499C355.764 155.765 355.865 157.019 356.068 158.261C356.296 159.477 356.663 160.579 357.17 161.567C357.677 162.529 358.335 163.315 359.146 163.923C359.982 164.505 361.008 164.797 362.224 164.797Z" fill="white"/>
<path d="M340.956 233.079C338.802 233.079 336.953 232.673 335.408 231.863C333.888 231.027 332.735 230.039 331.95 228.899L333.812 226.923C334.546 227.911 335.522 228.721 336.738 229.355C337.979 229.963 339.36 230.267 340.88 230.267C342.729 230.267 344.173 229.849 345.212 229.013C346.276 228.151 346.808 226.986 346.808 225.517C346.808 224.731 346.656 224.06 346.352 223.503C346.048 222.92 345.617 222.451 345.06 222.097C344.502 221.742 343.831 221.476 343.046 221.299C342.286 221.121 341.437 221.033 340.5 221.033C339.968 221.033 339.448 221.033 338.942 221.033C338.435 221.033 338.08 221.045 337.878 221.071V218.183C338.08 218.208 338.435 218.221 338.942 218.221C339.474 218.221 339.993 218.221 340.5 218.221C341.285 218.221 342.032 218.145 342.742 217.993C343.476 217.815 344.11 217.562 344.642 217.233C345.174 216.878 345.592 216.447 345.896 215.941C346.225 215.409 346.39 214.775 346.39 214.041C346.39 213.331 346.238 212.711 345.934 212.179C345.63 211.647 345.224 211.203 344.718 210.849C344.211 210.469 343.603 210.19 342.894 210.013C342.21 209.81 341.488 209.709 340.728 209.709C339.334 209.709 338.106 209.975 337.042 210.507C335.978 211.013 334.977 211.773 334.04 212.787L332.292 210.811C333.204 209.696 334.382 208.771 335.826 208.037C337.27 207.277 338.98 206.897 340.956 206.897C342.172 206.897 343.299 207.049 344.338 207.353C345.402 207.657 346.314 208.1 347.074 208.683C347.834 209.24 348.429 209.949 348.86 210.811C349.316 211.647 349.544 212.597 349.544 213.661C349.544 214.573 349.366 215.371 349.012 216.055C348.682 216.739 348.252 217.321 347.72 217.803C347.188 218.284 346.592 218.677 345.934 218.981C345.3 219.259 344.68 219.449 344.072 219.551C344.654 219.601 345.288 219.766 345.972 220.045C346.656 220.323 347.289 220.716 347.872 221.223C348.454 221.729 348.936 222.363 349.316 223.123C349.721 223.883 349.924 224.769 349.924 225.783C349.924 226.847 349.721 227.822 349.316 228.709C348.91 229.595 348.315 230.368 347.53 231.027C346.77 231.66 345.832 232.167 344.718 232.547C343.603 232.901 342.349 233.079 340.956 233.079ZM363.628 233.079C361.88 233.079 360.398 232.686 359.182 231.901C357.966 231.115 356.965 230.102 356.18 228.861C355.395 227.594 354.825 226.188 354.47 224.643C354.115 223.072 353.938 221.514 353.938 219.969C353.938 218.423 354.115 216.878 354.47 215.333C354.825 213.762 355.395 212.356 356.18 211.115C356.965 209.873 357.966 208.86 359.182 208.075C360.398 207.289 361.88 206.897 363.628 206.897C365.351 206.897 366.82 207.289 368.036 208.075C369.278 208.86 370.278 209.873 371.038 211.115C371.824 212.356 372.394 213.762 372.748 215.333C373.128 216.878 373.318 218.423 373.318 219.969C373.318 221.514 373.128 223.072 372.748 224.643C372.394 226.188 371.824 227.594 371.038 228.861C370.278 230.102 369.278 231.115 368.036 231.901C366.82 232.686 365.351 233.079 363.628 233.079ZM363.628 230.267C364.844 230.267 365.858 229.975 366.668 229.393C367.504 228.785 368.176 227.999 368.682 227.037C369.189 226.049 369.544 224.947 369.746 223.731C369.974 222.489 370.088 221.235 370.088 219.969C370.088 218.702 369.974 217.461 369.746 216.245C369.544 215.003 369.189 213.901 368.682 212.939C368.176 211.976 367.504 211.203 366.668 210.621C365.858 210.013 364.844 209.709 363.628 209.709C362.412 209.709 361.386 210.013 360.55 210.621C359.739 211.203 359.081 211.976 358.574 212.939C358.067 213.901 357.7 215.003 357.472 216.245C357.269 217.461 357.168 218.702 357.168 219.969C357.168 221.235 357.269 222.489 357.472 223.731C357.7 224.947 358.067 226.049 358.574 227.037C359.081 227.999 359.739 228.785 360.55 229.393C361.386 229.975 362.412 230.267 363.628 230.267Z" fill="white"/>
<path d="M332.02 70.5804C332.02 71.0071 332.128 71.3285 332.344 71.5446C332.566 71.7552 332.887 71.8605 333.308 71.8605C333.541 71.8605 333.768 71.8439 333.99 71.8106C334.211 71.7774 334.411 71.7303 334.588 71.6693V69.134H335.278V74.6785H334.588V72.2845C334.405 72.3343 334.203 72.3787 333.981 72.4175C333.76 72.4562 333.516 72.4756 333.25 72.4756C332.923 72.4756 332.638 72.4313 332.394 72.3426C332.155 72.2484 331.956 72.1182 331.795 71.952C331.64 71.7857 331.524 71.5862 331.446 71.3534C331.369 71.1152 331.33 70.8547 331.33 70.5721V69.134H332.02V70.5804ZM339.204 74.7782C338.805 74.7782 338.431 74.7089 338.082 74.5704C337.739 74.4319 337.437 74.2379 337.176 73.9885C336.921 73.7336 336.719 73.4316 336.569 73.0825C336.425 72.7278 336.353 72.3371 336.353 71.9104C336.353 71.4837 336.425 71.0958 336.569 70.7466C336.719 70.392 336.921 70.0899 337.176 69.8406C337.437 69.5856 337.739 69.3889 338.082 69.2504C338.431 69.1118 338.805 69.0426 339.204 69.0426C339.448 69.0426 339.673 69.0703 339.878 69.1257C340.088 69.1811 340.28 69.2587 340.451 69.3584C340.629 69.4582 340.787 69.5746 340.925 69.7076C341.069 69.8406 341.197 69.9846 341.308 70.1398L340.726 70.464C340.565 70.2313 340.349 70.0401 340.077 69.8904C339.811 69.7353 339.52 69.6577 339.204 69.6577C338.9 69.6577 338.617 69.7131 338.357 69.8239C338.096 69.9348 337.869 70.0899 337.675 70.2894C337.487 70.4889 337.337 70.7272 337.226 71.0043C337.121 71.2759 337.068 71.5779 337.068 71.9104C337.068 72.2373 337.121 72.5394 337.226 72.8165C337.337 73.0935 337.487 73.3318 337.675 73.5313C337.869 73.7308 338.096 73.886 338.357 73.9968C338.617 74.1077 338.9 74.1631 339.204 74.1631C339.52 74.1631 339.811 74.0883 340.077 73.9387C340.349 73.789 340.565 73.5951 340.726 73.3568L341.316 73.681C341.083 73.9968 340.795 74.2601 340.451 74.4707C340.113 74.6757 339.698 74.7782 339.204 74.7782ZM344.822 74.7782C344.423 74.7782 344.049 74.7089 343.7 74.5704C343.356 74.4319 343.054 74.2379 342.794 73.9885C342.539 73.7336 342.337 73.4316 342.187 73.0825C342.043 72.7278 341.971 72.3371 341.971 71.9104C341.971 71.4837 342.043 71.0958 342.187 70.7466C342.337 70.392 342.539 70.0899 342.794 69.8406C343.054 69.5856 343.356 69.3889 343.7 69.2504C344.049 69.1118 344.423 69.0426 344.822 69.0426C345.066 69.0426 345.29 69.0703 345.495 69.1257C345.706 69.1811 345.897 69.2587 346.069 69.3584C346.246 69.4582 346.404 69.5746 346.543 69.7076C346.687 69.8406 346.814 69.9846 346.925 70.1398L346.343 70.464C346.182 70.2313 345.966 70.0401 345.695 69.8904C345.429 69.7353 345.138 69.6577 344.822 69.6577C344.517 69.6577 344.235 69.7131 343.974 69.8239C343.714 69.9348 343.486 70.0899 343.292 70.2894C343.104 70.4889 342.954 70.7272 342.844 71.0043C342.738 71.2759 342.686 71.5779 342.686 71.9104C342.686 72.2373 342.738 72.5394 342.844 72.8165C342.954 73.0935 343.104 73.3318 343.292 73.5313C343.486 73.7308 343.714 73.886 343.974 73.9968C344.235 74.1077 344.517 74.1631 344.822 74.1631C345.138 74.1631 345.429 74.0883 345.695 73.9387C345.966 73.789 346.182 73.5951 346.343 73.3568L346.933 73.681C346.701 73.9968 346.412 74.2601 346.069 74.4707C345.731 74.6757 345.315 74.7782 344.822 74.7782Z" fill="white"/>
<path d="M300.025 306.364C299.626 306.364 299.252 306.295 298.903 306.157C298.559 306.018 298.257 305.824 297.997 305.575C297.742 305.32 297.54 305.018 297.39 304.669C297.246 304.314 297.174 303.923 297.174 303.497C297.174 303.07 297.246 302.682 297.39 302.333C297.54 301.978 297.742 301.676 297.997 301.427C298.257 301.172 298.559 300.975 298.903 300.837C299.252 300.698 299.626 300.629 300.025 300.629C300.269 300.629 300.493 300.656 300.698 300.712C300.909 300.767 301.1 300.845 301.272 300.945C301.449 301.044 301.607 301.161 301.746 301.294C301.89 301.427 302.017 301.571 302.128 301.726L301.546 302.05C301.386 301.817 301.17 301.626 300.898 301.477C300.632 301.321 300.341 301.244 300.025 301.244C299.72 301.244 299.438 301.299 299.177 301.41C298.917 301.521 298.69 301.676 298.496 301.876C298.307 302.075 298.158 302.313 298.047 302.591C297.941 302.862 297.889 303.164 297.889 303.497C297.889 303.824 297.941 304.126 298.047 304.403C298.158 304.68 298.307 304.918 298.496 305.118C298.69 305.317 298.917 305.472 299.177 305.583C299.438 305.694 299.72 305.749 300.025 305.749C300.341 305.749 300.632 305.674 300.898 305.525C301.17 305.375 301.386 305.181 301.546 304.943L302.137 305.267C301.904 305.583 301.616 305.846 301.272 306.057C300.934 306.262 300.518 306.364 300.025 306.364ZM304.387 306.265V301.335H302.633V300.72H306.84V301.335H305.077V306.265H304.387ZM310.056 306.364C309.646 306.364 309.272 306.292 308.934 306.148C308.596 306.004 308.305 305.805 308.061 305.55C307.823 305.289 307.637 304.985 307.504 304.635C307.371 304.286 307.305 303.907 307.305 303.497C307.305 303.086 307.371 302.707 307.504 302.358C307.637 302.009 307.823 301.707 308.061 301.452C308.305 301.191 308.596 300.989 308.934 300.845C309.272 300.701 309.646 300.629 310.056 300.629C310.466 300.629 310.84 300.701 311.179 300.845C311.517 300.989 311.805 301.191 312.043 301.452C312.287 301.707 312.475 302.009 312.608 302.358C312.741 302.707 312.808 303.086 312.808 303.497C312.808 303.907 312.741 304.286 312.608 304.635C312.475 304.985 312.287 305.289 312.043 305.55C311.805 305.805 311.517 306.004 311.179 306.148C310.84 306.292 310.466 306.364 310.056 306.364ZM310.056 305.749C310.367 305.749 310.646 305.694 310.896 305.583C311.145 305.467 311.359 305.309 311.536 305.109C311.713 304.904 311.849 304.666 311.943 304.394C312.043 304.117 312.093 303.818 312.093 303.497C312.093 303.175 312.043 302.876 311.943 302.599C311.849 302.322 311.713 302.083 311.536 301.884C311.359 301.684 311.145 301.529 310.896 301.418C310.646 301.302 310.367 301.244 310.056 301.244C309.746 301.244 309.463 301.302 309.208 301.418C308.959 301.529 308.746 301.684 308.568 301.884C308.391 302.083 308.255 302.322 308.161 302.599C308.067 302.876 308.02 303.175 308.02 303.497C308.02 303.818 308.067 304.117 308.161 304.394C308.255 304.666 308.391 304.904 308.568 305.109C308.746 305.309 308.959 305.467 309.208 305.583C309.463 305.694 309.746 305.749 310.056 305.749ZM317.817 306.265V301.335H314.575V306.265H313.885V300.72H318.507V306.265H317.817Z" fill="black"/>
<path d="M229.379 305.708C229.546 305.697 229.692 305.663 229.82 305.608C229.953 305.553 230.072 305.447 230.177 305.292C230.283 305.137 230.371 304.918 230.443 304.635C230.521 304.353 230.59 303.976 230.651 303.505L230.992 300.72H234.383V305.65H234.891V307.287H234.201V306.265H230.069V307.287H229.379V305.708ZM231.333 303.555C231.261 304.142 231.153 304.599 231.009 304.926C230.864 305.253 230.69 305.494 230.485 305.65H233.693V301.335H231.607L231.333 303.555ZM239.726 306.265L239.235 305.034H236.475L235.985 306.265H235.195L237.423 300.72H238.279L240.515 306.265H239.726ZM237.855 301.435L236.675 304.419H239.027L237.855 301.435ZM241.24 306.265V300.72H243.709C243.947 300.72 244.163 300.756 244.357 300.828C244.551 300.895 244.715 300.992 244.848 301.119C244.981 301.241 245.083 301.391 245.155 301.568C245.227 301.74 245.263 301.928 245.263 302.133C245.263 302.311 245.236 302.471 245.18 302.615C245.13 302.76 245.058 302.887 244.964 302.998C244.875 303.103 244.773 303.192 244.657 303.264C244.54 303.33 244.418 303.377 244.291 303.405C244.44 303.427 244.579 303.48 244.706 303.563C244.839 303.646 244.953 303.749 245.047 303.871C245.147 303.993 245.225 304.131 245.28 304.286C245.341 304.441 245.371 304.602 245.371 304.768C245.371 304.99 245.335 305.192 245.263 305.375C245.191 305.558 245.086 305.716 244.948 305.849C244.809 305.982 244.64 306.085 244.44 306.157C244.246 306.229 244.022 306.265 243.767 306.265H241.24ZM243.593 303.123C243.908 303.123 244.147 303.039 244.307 302.873C244.468 302.701 244.549 302.488 244.549 302.233C244.549 301.984 244.468 301.773 244.307 301.601C244.147 301.424 243.908 301.335 243.593 301.335H241.93V303.123H243.593ZM243.626 305.65C243.953 305.65 244.205 305.566 244.382 305.4C244.565 305.228 244.657 304.993 244.657 304.694C244.657 304.566 244.634 304.444 244.59 304.328C244.546 304.211 244.479 304.112 244.391 304.029C244.307 303.94 244.202 303.871 244.075 303.821C243.947 303.765 243.798 303.738 243.626 303.738H241.93V305.65H243.626ZM246.086 305.749C246.252 305.749 246.399 305.722 246.526 305.666C246.659 305.605 246.778 305.494 246.884 305.334C246.989 305.167 247.078 304.94 247.15 304.652C247.227 304.358 247.296 303.976 247.357 303.505L247.698 300.72H251.09V306.265H250.4V301.335H248.313L248.039 303.555C247.961 304.164 247.862 304.655 247.74 305.026C247.623 305.392 247.482 305.674 247.316 305.874C247.155 306.073 246.972 306.204 246.767 306.265C246.562 306.331 246.335 306.364 246.086 306.364V305.749ZM252.386 306.265V300.72H256.018V301.335H253.076V303.123H255.96V303.738H253.076V305.65H256.018V306.265H252.386ZM261.05 306.265V303.721H257.808V306.265H257.118V300.72H257.808V303.106H261.05V300.72H261.74V306.265H261.05ZM263.036 306.265V300.72H263.726V305.051L266.918 300.72H267.625V306.265H266.935V301.842L263.701 306.265H263.036ZM268.922 306.265V300.72H272.554V301.335H269.611V303.123H272.496V303.738H269.611V305.65H272.554V306.265H268.922Z" fill="black"/>
<path d="M333.292 135.381C332.804 135.381 332.385 135.301 332.036 135.14C331.687 134.974 331.396 134.76 331.164 134.5L331.571 133.976C331.66 134.076 331.765 134.176 331.887 134.275C332.009 134.37 332.142 134.453 332.286 134.525C332.435 134.597 332.596 134.655 332.768 134.699C332.94 134.744 333.123 134.766 333.316 134.766C333.566 134.766 333.774 134.735 333.94 134.674C334.106 134.613 334.239 134.539 334.339 134.45C334.439 134.356 334.511 134.253 334.555 134.142C334.599 134.026 334.622 133.915 334.622 133.81C334.622 133.633 334.574 133.486 334.48 133.369C334.386 133.253 334.261 133.156 334.106 133.078C333.957 132.995 333.782 132.929 333.582 132.879C333.389 132.824 333.186 132.768 332.976 132.713C332.771 132.652 332.568 132.585 332.369 132.513C332.175 132.441 332 132.35 331.845 132.239C331.696 132.122 331.574 131.981 331.479 131.815C331.385 131.649 331.338 131.441 331.338 131.191C331.338 130.964 331.385 130.756 331.479 130.568C331.579 130.38 331.712 130.219 331.878 130.086C332.05 129.947 332.252 129.842 332.485 129.77C332.718 129.692 332.97 129.654 333.242 129.654C333.668 129.654 334.045 129.72 334.372 129.853C334.699 129.986 334.979 130.177 335.212 130.427L334.796 130.934C334.586 130.701 334.342 130.532 334.065 130.427C333.788 130.321 333.497 130.269 333.192 130.269C332.859 130.269 332.585 130.349 332.369 130.51C332.158 130.671 332.053 130.884 332.053 131.15C332.053 131.305 332.1 131.433 332.194 131.532C332.288 131.632 332.41 131.718 332.56 131.79C332.715 131.862 332.89 131.926 333.084 131.981C333.283 132.031 333.486 132.086 333.691 132.147C333.901 132.203 334.103 132.269 334.297 132.347C334.497 132.425 334.671 132.524 334.821 132.646C334.976 132.768 335.101 132.918 335.195 133.095C335.289 133.272 335.336 133.491 335.336 133.752C335.336 133.951 335.3 134.151 335.228 134.35C335.156 134.544 335.037 134.719 334.871 134.874C334.71 135.024 334.5 135.145 334.239 135.24C333.979 135.334 333.663 135.381 333.292 135.381ZM338.32 135.381C338.043 135.381 337.788 135.32 337.555 135.198C337.323 135.076 337.126 134.902 336.965 134.674V136.811H336.342V131.266H336.965V131.865C337.109 131.66 337.3 131.493 337.539 131.366C337.777 131.233 338.037 131.167 338.32 131.167C338.586 131.167 338.827 131.216 339.043 131.316C339.265 131.41 339.453 131.549 339.609 131.732C339.769 131.909 339.891 132.128 339.974 132.388C340.063 132.649 340.107 132.943 340.107 133.27C340.107 133.597 340.063 133.89 339.974 134.151C339.891 134.411 339.769 134.633 339.609 134.816C339.453 134.999 339.265 135.14 339.043 135.24C338.827 135.334 338.586 135.381 338.32 135.381ZM338.162 134.824C338.362 134.824 338.542 134.785 338.702 134.708C338.863 134.63 338.999 134.522 339.11 134.383C339.221 134.245 339.304 134.081 339.359 133.893C339.42 133.699 339.451 133.491 339.451 133.27C339.451 133.048 339.42 132.843 339.359 132.654C339.304 132.466 339.221 132.303 339.11 132.164C338.999 132.026 338.863 131.917 338.702 131.84C338.542 131.762 338.362 131.723 338.162 131.723C337.913 131.723 337.677 131.787 337.456 131.915C337.239 132.037 337.076 132.186 336.965 132.364V134.176C337.076 134.353 337.239 134.505 337.456 134.633C337.677 134.76 337.913 134.824 338.162 134.824ZM343.019 135.381C342.637 135.381 342.312 135.295 342.046 135.123C341.78 134.952 341.561 134.73 341.39 134.458C341.218 134.181 341.093 133.874 341.016 133.536C340.938 133.192 340.899 132.851 340.899 132.513C340.899 132.175 340.938 131.837 341.016 131.499C341.093 131.155 341.218 130.848 341.39 130.576C341.561 130.305 341.78 130.083 342.046 129.911C342.312 129.74 342.637 129.654 343.019 129.654C343.396 129.654 343.717 129.74 343.983 129.911C344.255 130.083 344.474 130.305 344.64 130.576C344.812 130.848 344.936 131.155 345.014 131.499C345.097 131.837 345.139 132.175 345.139 132.513C345.139 132.851 345.097 133.192 345.014 133.536C344.936 133.874 344.812 134.181 344.64 134.458C344.474 134.73 344.255 134.952 343.983 135.123C343.717 135.295 343.396 135.381 343.019 135.381ZM343.019 134.766C343.285 134.766 343.507 134.702 343.684 134.575C343.867 134.442 344.014 134.27 344.124 134.059C344.235 133.843 344.313 133.602 344.357 133.336C344.407 133.065 344.432 132.79 344.432 132.513C344.432 132.236 344.407 131.965 344.357 131.699C344.313 131.427 344.235 131.186 344.124 130.975C344.014 130.765 343.867 130.596 343.684 130.468C343.507 130.335 343.285 130.269 343.019 130.269C342.753 130.269 342.528 130.335 342.346 130.468C342.168 130.596 342.024 130.765 341.913 130.975C341.803 131.186 341.722 131.427 341.672 131.699C341.628 131.965 341.606 132.236 341.606 132.513C341.606 132.79 341.628 133.065 341.672 133.336C341.722 133.602 341.803 133.843 341.913 134.059C342.024 134.27 342.168 134.442 342.346 134.575C342.528 134.702 342.753 134.766 343.019 134.766ZM346.014 135.281V134.733C346.513 134.339 346.953 133.984 347.336 133.669C347.718 133.347 348.039 133.051 348.3 132.779C348.56 132.502 348.757 132.244 348.89 132.006C349.023 131.762 349.09 131.521 349.09 131.283C349.09 131.106 349.056 130.953 348.99 130.826C348.923 130.698 348.835 130.593 348.724 130.51C348.619 130.427 348.497 130.366 348.358 130.327C348.22 130.288 348.078 130.269 347.934 130.269C347.602 130.269 347.308 130.333 347.053 130.46C346.798 130.587 346.59 130.756 346.43 130.967L346.006 130.526C346.216 130.244 346.491 130.028 346.829 129.878C347.172 129.728 347.541 129.654 347.934 129.654C348.167 129.654 348.394 129.687 348.616 129.753C348.837 129.82 349.034 129.92 349.206 130.053C349.383 130.186 349.525 130.355 349.63 130.56C349.741 130.765 349.796 131.006 349.796 131.283C349.796 131.566 349.727 131.845 349.588 132.122C349.455 132.394 349.267 132.668 349.023 132.945C348.785 133.217 348.502 133.497 348.175 133.785C347.848 134.068 347.491 134.361 347.103 134.666H349.821V135.281H346.014Z" fill="white"/>
<path d="M336.81 200.853C336.411 200.853 336.037 200.784 335.688 200.645C335.345 200.507 335.042 200.313 334.782 200.063C334.527 199.809 334.325 199.507 334.175 199.157C334.031 198.803 333.959 198.412 333.959 197.985C333.959 197.559 334.031 197.171 334.175 196.822C334.325 196.467 334.527 196.165 334.782 195.916C335.042 195.661 335.345 195.464 335.688 195.325C336.037 195.187 336.411 195.118 336.81 195.118C337.054 195.118 337.279 195.145 337.484 195.201C337.694 195.256 337.885 195.334 338.057 195.433C338.235 195.533 338.392 195.65 338.531 195.783C338.675 195.916 338.803 196.06 338.913 196.215L338.331 196.539C338.171 196.306 337.955 196.115 337.683 195.965C337.417 195.81 337.126 195.733 336.81 195.733C336.506 195.733 336.223 195.788 335.962 195.899C335.702 196.01 335.475 196.165 335.281 196.364C335.092 196.564 334.943 196.802 334.832 197.079C334.727 197.351 334.674 197.653 334.674 197.985C334.674 198.312 334.727 198.614 334.832 198.891C334.943 199.168 335.092 199.407 335.281 199.606C335.475 199.806 335.702 199.961 335.962 200.072C336.223 200.183 336.506 200.238 336.81 200.238C337.126 200.238 337.417 200.163 337.683 200.014C337.955 199.864 338.171 199.67 338.331 199.432L338.922 199.756C338.689 200.072 338.401 200.335 338.057 200.546C337.719 200.751 337.304 200.853 336.81 200.853ZM342.328 200.853C341.918 200.853 341.544 200.781 341.206 200.637C340.868 200.493 340.577 200.293 340.333 200.039C340.095 199.778 339.909 199.473 339.776 199.124C339.643 198.775 339.577 198.395 339.577 197.985C339.577 197.575 339.643 197.196 339.776 196.847C339.909 196.497 340.095 196.195 340.333 195.94C340.577 195.68 340.868 195.478 341.206 195.334C341.544 195.19 341.918 195.118 342.328 195.118C342.738 195.118 343.112 195.19 343.45 195.334C343.788 195.478 344.076 195.68 344.315 195.94C344.559 196.195 344.747 196.497 344.88 196.847C345.013 197.196 345.079 197.575 345.079 197.985C345.079 198.395 345.013 198.775 344.88 199.124C344.747 199.473 344.559 199.778 344.315 200.039C344.076 200.293 343.788 200.493 343.45 200.637C343.112 200.781 342.738 200.853 342.328 200.853ZM342.328 200.238C342.638 200.238 342.918 200.183 343.168 200.072C343.417 199.955 343.63 199.797 343.808 199.598C343.985 199.393 344.121 199.155 344.215 198.883C344.315 198.606 344.365 198.307 344.365 197.985C344.365 197.664 344.315 197.365 344.215 197.088C344.121 196.811 343.985 196.572 343.808 196.373C343.63 196.173 343.417 196.018 343.168 195.907C342.918 195.791 342.638 195.733 342.328 195.733C342.018 195.733 341.735 195.791 341.48 195.907C341.231 196.018 341.017 196.173 340.84 196.373C340.663 196.572 340.527 196.811 340.433 197.088C340.339 197.365 340.291 197.664 340.291 197.985C340.291 198.307 340.339 198.606 340.433 198.883C340.527 199.155 340.663 199.393 340.84 199.598C341.017 199.797 341.231 199.955 341.48 200.072C341.735 200.183 342.018 200.238 342.328 200.238ZM345.958 200.753V200.205C346.456 199.811 346.897 199.457 347.279 199.141C347.662 198.819 347.983 198.523 348.244 198.251C348.504 197.974 348.701 197.717 348.834 197.478C348.967 197.234 349.033 196.993 349.033 196.755C349.033 196.578 349 196.425 348.934 196.298C348.867 196.17 348.778 196.065 348.668 195.982C348.562 195.899 348.44 195.838 348.302 195.799C348.163 195.76 348.022 195.741 347.878 195.741C347.545 195.741 347.252 195.805 346.997 195.932C346.742 196.06 346.534 196.229 346.373 196.439L345.949 195.999C346.16 195.716 346.434 195.5 346.772 195.35C347.116 195.201 347.484 195.126 347.878 195.126C348.111 195.126 348.338 195.159 348.559 195.226C348.781 195.292 348.978 195.392 349.15 195.525C349.327 195.658 349.468 195.827 349.574 196.032C349.684 196.237 349.74 196.478 349.74 196.755C349.74 197.038 349.671 197.318 349.532 197.595C349.399 197.866 349.211 198.141 348.967 198.418C348.729 198.689 348.446 198.969 348.119 199.257C347.792 199.54 347.435 199.833 347.047 200.138H349.765V200.753H345.958Z" fill="white"/>
<path d="M60.8398 237.328H65.9803C67.8637 224.972 78.1549 208.649 83.0248 210.543C87.8947 212.437 88.1094 234.06 100.069 237.328C104.758 238.608 106.562 237.328 112.515 237.328C118.467 237.328 122.525 208.383 128.747 209.191C134.97 209.998 142.545 236.24 145.792 237.328C149.039 238.415 153.638 238.956 157.426 237.328C161.213 235.699 169.871 208.384 176.364 209.191C182.857 209.997 180.237 234.469 192.597 237.328C196.405 238.208 202.607 237.328 202.607 237.328C202.607 237.328 213.431 198.625 220.193 209.191C226.955 219.756 231.556 233.275 237.508 236.245C243.46 239.216 251.576 236.245 251.576 236.245C251.576 236.245 263.751 208.655 267.539 209.191C271.326 209.726 282.689 234.898 284.854 236.245C287.018 237.593 300.816 237.874 301.898 236.245C302.98 234.617 311.097 209.456 316.237 211.896" stroke="#FFCC97" stroke-width="0.541096"/>
<circle cx="376.824" cy="319.909" r="21.6439" fill="black"/>
<circle cx="308.652" cy="318.29" r="7.57535" stroke="black" stroke-width="1.08219"/>
<circle cx="251.835" cy="318.29" r="7.57535" stroke="black" stroke-width="1.08219"/>
<circle cx="55.4282" cy="319.909" r="16.2329" fill="#FFCC97"/>
</svg>
