<svg width="437" height="354" viewBox="0 0 437 354" fill="none" xmlns="http://www.w3.org/2000/svg">
<rect x="1.58508" y="0.934691" width="433.959" height="352.254" rx="47.3459" stroke="black" stroke-width="1.62329"/>
<rect x="39.1945" y="37.459" width="359.288" height="241.329" fill="black"/>
<path d="M60.8417 104.554H63.2766L65.1704 102.12L70.0403 106.719L73.828 86.1572L77.3451 106.719L86.0026 100.226L91.4136 105.366L109.811 104.825L111.975 101.578L116.845 106.989L120.362 88.3216L123.879 106.178L133.619 100.496L139.571 105.366H164.191L168.249 87.7805L171.496 107.801L179.342 101.037L185.835 106.448L203.15 105.096L205.314 102.931L209.914 106.448L214.513 87.7805L217.218 105.637L223.171 105.096L226.147 100.496L231.287 105.637L250.496 103.743L256.177 106.719L260.777 88.3216L263.212 107.531L271.599 100.496L277.28 106.719L295.677 105.096L297.03 102.12L300.818 105.096L307.582 86.6983L310.558 108.342" stroke="#C8CFE8" stroke-width="0.541096"/>
<path d="M60.8417 165.159H63.2766L65.1704 162.725L70.0403 167.324L73.828 146.762L77.3451 167.324L86.0026 160.831L91.4136 165.971L109.811 165.43L111.975 162.183L116.845 167.594L120.362 148.927L123.879 166.783L133.619 161.101L139.571 165.971H164.191L168.249 148.385L171.496 168.406L179.342 161.642L185.835 167.053L203.15 165.701L205.314 163.536L209.914 167.053L214.513 148.385L217.218 166.242L223.171 165.701L226.147 161.101L231.287 166.242L250.496 164.348L256.177 167.324L260.777 148.927L263.212 168.136L271.599 161.101L277.28 167.324L295.677 165.701L297.03 162.725L300.818 165.701L307.582 147.303L310.558 168.947" stroke="#C8CFE8" stroke-width="0.541096"/>
<path d="M339.848 107.004C338.075 107.004 336.568 106.649 335.326 105.94C334.085 105.205 333.072 104.242 332.286 103.052C331.526 101.836 330.969 100.442 330.614 98.8716C330.26 97.3009 330.082 95.6542 330.082 93.9315C330.082 92.2089 330.285 90.5622 330.69 88.9915C331.096 87.3955 331.716 86.0022 332.552 84.8115C333.414 83.5955 334.49 82.6328 335.782 81.9235C337.074 81.1888 338.607 80.8215 340.38 80.8215C342.027 80.8215 343.408 81.1128 344.522 81.6955C345.662 82.2528 346.625 82.9748 347.41 83.8615L345.814 86.2175C345.156 85.4575 344.421 84.8368 343.61 84.3555C342.8 83.8741 341.723 83.6335 340.38 83.6335C339.164 83.6335 338.1 83.9248 337.188 84.5075C336.302 85.0648 335.554 85.8122 334.946 86.7495C334.364 87.6868 333.933 88.7508 333.654 89.9415C333.376 91.1322 333.236 92.3482 333.236 93.5895C333.236 93.7669 333.236 93.9315 333.236 94.0835C333.236 94.2355 333.249 94.4002 333.274 94.5775C333.553 94.1469 333.92 93.7035 334.376 93.2475C334.858 92.7662 335.415 92.3355 336.048 91.9555C336.682 91.5755 337.366 91.2589 338.1 91.0055C338.86 90.7522 339.646 90.6255 340.456 90.6255C341.596 90.6255 342.66 90.8029 343.648 91.1575C344.662 91.4869 345.548 91.9935 346.308 92.6775C347.068 93.3362 347.664 94.1722 348.094 95.1855C348.525 96.1989 348.74 97.3769 348.74 98.7196C348.74 99.8342 348.538 100.898 348.132 101.912C347.727 102.9 347.144 103.774 346.384 104.534C345.624 105.294 344.687 105.902 343.572 106.358C342.483 106.788 341.242 107.004 339.848 107.004ZM339.734 104.192C340.722 104.192 341.571 104.027 342.28 103.698C343.015 103.368 343.623 102.95 344.104 102.444C344.586 101.912 344.94 101.329 345.168 100.696C345.422 100.062 345.548 99.4416 345.548 98.8336C345.548 97.8962 345.396 97.0856 345.092 96.4016C344.788 95.7175 344.37 95.1475 343.838 94.6915C343.306 94.2355 342.686 93.9062 341.976 93.7035C341.267 93.4755 340.507 93.3615 339.696 93.3615C338.43 93.3615 337.226 93.7162 336.086 94.4255C334.972 95.1095 334.06 96.0215 333.35 97.1616C333.426 97.9469 333.591 98.7576 333.844 99.5936C334.123 100.43 334.503 101.19 334.984 101.874C335.491 102.558 336.124 103.115 336.884 103.546C337.67 103.976 338.62 104.192 339.734 104.192ZM362.224 107.004C360.476 107.004 358.994 106.611 357.778 105.826C356.561 105.04 355.561 104.027 354.775 102.786C353.99 101.519 353.42 100.113 353.065 98.5676C352.711 96.9969 352.533 95.4389 352.533 93.8935C352.533 92.3482 352.711 90.8029 353.065 89.2575C353.42 87.6868 353.99 86.2808 354.775 85.0395C355.561 83.7981 356.561 82.7848 357.778 81.9995C358.994 81.2141 360.476 80.8215 362.224 80.8215C363.946 80.8215 365.416 81.2141 366.632 81.9995C367.873 82.7848 368.874 83.7981 369.634 85.0395C370.419 86.2808 370.989 87.6868 371.344 89.2575C371.724 90.8029 371.914 92.3482 371.914 93.8935C371.914 95.4389 371.724 96.9969 371.344 98.5676C370.989 100.113 370.419 101.519 369.634 102.786C368.874 104.027 367.873 105.04 366.632 105.826C365.416 106.611 363.946 107.004 362.224 107.004ZM362.224 104.192C363.44 104.192 364.453 103.9 365.264 103.318C366.1 102.71 366.771 101.924 367.278 100.962C367.784 99.9736 368.139 98.8716 368.342 97.6556C368.57 96.4142 368.684 95.1602 368.684 93.8935C368.684 92.6269 368.57 91.3855 368.342 90.1695C368.139 88.9282 367.784 87.8262 367.278 86.8635C366.771 85.9008 366.1 85.1282 365.264 84.5455C364.453 83.9375 363.44 83.6335 362.224 83.6335C361.008 83.6335 359.982 83.9375 359.146 84.5455C358.335 85.1282 357.676 85.9008 357.169 86.8635C356.663 87.8262 356.295 88.9282 356.067 90.1695C355.865 91.3855 355.763 92.6269 355.763 93.8935C355.763 95.1602 355.865 96.4142 356.067 97.6556C356.295 98.8716 356.663 99.9736 357.169 100.962C357.676 101.924 358.335 102.71 359.146 103.318C359.982 103.9 361.008 104.192 362.224 104.192Z" fill="white"/>
<path d="M338.366 167.571C336.745 167.571 335.364 167.292 334.224 166.735C333.11 166.177 332.147 165.443 331.336 164.531L332.932 162.175C333.591 162.935 334.326 163.555 335.136 164.037C335.972 164.518 337.049 164.759 338.366 164.759C339.658 164.759 340.748 164.467 341.634 163.885C342.546 163.302 343.281 162.542 343.838 161.605C344.421 160.667 344.839 159.603 345.092 158.413C345.371 157.222 345.51 156.031 345.51 154.841C345.51 154.663 345.51 154.499 345.51 154.347C345.51 154.169 345.498 153.992 345.472 153.815C345.194 154.245 344.814 154.701 344.332 155.183C343.876 155.639 343.332 156.057 342.698 156.437C342.065 156.817 341.381 157.133 340.646 157.387C339.912 157.64 339.139 157.767 338.328 157.767C337.188 157.767 336.112 157.602 335.098 157.273C334.085 156.918 333.198 156.411 332.438 155.753C331.704 155.069 331.108 154.22 330.652 153.207C330.222 152.193 330.006 151.015 330.006 149.672C330.006 148.583 330.209 147.544 330.614 146.556C331.02 145.543 331.602 144.656 332.362 143.896C333.122 143.136 334.047 142.528 335.136 142.072C336.251 141.616 337.492 141.388 338.86 141.388C340.634 141.388 342.141 141.756 343.382 142.49C344.624 143.2 345.637 144.162 346.422 145.378C347.208 146.569 347.778 147.962 348.132 149.558C348.487 151.129 348.664 152.776 348.664 154.499C348.664 156.221 348.462 157.868 348.056 159.439C347.651 161.009 347.018 162.403 346.156 163.619C345.32 164.809 344.256 165.772 342.964 166.507C341.672 167.216 340.14 167.571 338.366 167.571ZM339.05 155.031C340.317 155.031 341.52 154.689 342.66 154.005C343.8 153.321 344.7 152.409 345.358 151.268C345.282 150.483 345.118 149.672 344.864 148.836C344.611 148 344.231 147.24 343.724 146.556C343.243 145.872 342.61 145.315 341.824 144.884C341.039 144.428 340.102 144.2 339.012 144.2C338.05 144.2 337.201 144.365 336.466 144.694C335.732 145.024 335.124 145.454 334.642 145.986C334.161 146.493 333.794 147.063 333.54 147.696C333.312 148.33 333.198 148.95 333.198 149.558C333.198 150.496 333.35 151.306 333.654 151.991C333.958 152.675 334.376 153.245 334.908 153.701C335.44 154.157 336.061 154.499 336.77 154.727C337.48 154.929 338.24 155.031 339.05 155.031ZM362.224 167.609C360.476 167.609 358.994 167.216 357.778 166.431C356.561 165.645 355.561 164.632 354.775 163.391C353.99 162.124 353.42 160.718 353.065 159.173C352.711 157.602 352.533 156.044 352.533 154.499C352.533 152.953 352.711 151.408 353.065 149.862C353.42 148.292 353.99 146.886 354.775 145.644C355.561 144.403 356.561 143.39 357.778 142.604C358.994 141.819 360.476 141.426 362.224 141.426C363.946 141.426 365.416 141.819 366.632 142.604C367.873 143.39 368.874 144.403 369.634 145.644C370.419 146.886 370.989 148.292 371.344 149.862C371.724 151.408 371.914 152.953 371.914 154.499C371.914 156.044 371.724 157.602 371.344 159.173C370.989 160.718 370.419 162.124 369.634 163.391C368.874 164.632 367.873 165.645 366.632 166.431C365.416 167.216 363.946 167.609 362.224 167.609ZM362.224 164.797C363.44 164.797 364.453 164.505 365.264 163.923C366.1 163.315 366.771 162.529 367.278 161.567C367.784 160.579 368.139 159.477 368.342 158.261C368.57 157.019 368.684 155.765 368.684 154.499C368.684 153.232 368.57 151.991 368.342 150.774C368.139 149.533 367.784 148.431 367.278 147.468C366.771 146.506 366.1 145.733 365.264 145.15C364.453 144.542 363.44 144.238 362.224 144.238C361.008 144.238 359.982 144.542 359.146 145.15C358.335 145.733 357.676 146.506 357.169 147.468C356.663 148.431 356.295 149.533 356.067 150.774C355.865 151.991 355.763 153.232 355.763 154.499C355.763 155.765 355.865 157.019 356.067 158.261C356.295 159.477 356.663 160.579 357.169 161.567C357.676 162.529 358.335 163.315 359.146 163.923C359.982 164.505 361.008 164.797 362.224 164.797Z" fill="white"/>
<path d="M340.955 233.079C338.802 233.079 336.953 232.673 335.407 231.863C333.887 231.027 332.734 230.039 331.949 228.899L333.811 226.923C334.546 227.911 335.521 228.721 336.737 229.355C337.979 229.963 339.359 230.267 340.879 230.267C342.729 230.267 344.173 229.849 345.211 229.013C346.275 228.151 346.807 226.986 346.807 225.517C346.807 224.731 346.655 224.06 346.351 223.503C346.047 222.92 345.617 222.451 345.059 222.097C344.502 221.742 343.831 221.476 343.045 221.299C342.285 221.121 341.437 221.033 340.499 221.033C339.967 221.033 339.448 221.033 338.941 221.033C338.435 221.033 338.08 221.045 337.877 221.071V218.183C338.08 218.208 338.435 218.221 338.941 218.221C339.473 218.221 339.993 218.221 340.499 218.221C341.285 218.221 342.032 218.145 342.741 217.993C343.476 217.815 344.109 217.562 344.641 217.233C345.173 216.878 345.591 216.447 345.895 215.941C346.225 215.409 346.389 214.775 346.389 214.041C346.389 213.331 346.237 212.711 345.933 212.179C345.629 211.647 345.224 211.203 344.717 210.849C344.211 210.469 343.603 210.19 342.893 210.013C342.209 209.81 341.487 209.709 340.727 209.709C339.334 209.709 338.105 209.975 337.041 210.507C335.977 211.013 334.976 211.773 334.039 212.787L332.291 210.811C333.203 209.696 334.381 208.771 335.825 208.037C337.269 207.277 338.979 206.897 340.955 206.897C342.171 206.897 343.299 207.049 344.337 207.353C345.401 207.657 346.313 208.1 347.073 208.683C347.833 209.24 348.429 209.949 348.859 210.811C349.315 211.647 349.543 212.597 349.543 213.661C349.543 214.573 349.366 215.371 349.011 216.055C348.682 216.739 348.251 217.321 347.719 217.803C347.187 218.284 346.592 218.677 345.933 218.981C345.3 219.259 344.679 219.449 344.071 219.551C344.654 219.601 345.287 219.766 345.971 220.045C346.655 220.323 347.289 220.716 347.871 221.223C348.454 221.729 348.935 222.363 349.315 223.123C349.721 223.883 349.923 224.769 349.923 225.783C349.923 226.847 349.721 227.822 349.315 228.709C348.91 229.595 348.315 230.368 347.529 231.027C346.769 231.66 345.832 232.167 344.717 232.547C343.603 232.901 342.349 233.079 340.955 233.079ZM363.628 233.079C361.88 233.079 360.398 232.686 359.182 231.901C357.966 231.115 356.965 230.102 356.18 228.861C355.394 227.594 354.824 226.188 354.47 224.643C354.115 223.072 353.938 221.514 353.938 219.969C353.938 218.423 354.115 216.878 354.47 215.333C354.824 213.762 355.394 212.356 356.18 211.115C356.965 209.873 357.966 208.86 359.182 208.075C360.398 207.289 361.88 206.897 363.628 206.897C365.35 206.897 366.82 207.289 368.036 208.075C369.277 208.86 370.278 209.873 371.038 211.115C371.823 212.356 372.393 213.762 372.748 215.333C373.128 216.878 373.318 218.423 373.318 219.969C373.318 221.514 373.128 223.072 372.748 224.643C372.393 226.188 371.823 227.594 371.038 228.861C370.278 230.102 369.277 231.115 368.036 231.901C366.82 232.686 365.35 233.079 363.628 233.079ZM363.628 230.267C364.844 230.267 365.857 229.975 366.668 229.393C367.504 228.785 368.175 227.999 368.682 227.037C369.188 226.049 369.543 224.947 369.746 223.731C369.974 222.489 370.088 221.235 370.088 219.969C370.088 218.702 369.974 217.461 369.746 216.245C369.543 215.003 369.188 213.901 368.682 212.939C368.175 211.976 367.504 211.203 366.668 210.621C365.857 210.013 364.844 209.709 363.628 209.709C362.412 209.709 361.386 210.013 360.55 210.621C359.739 211.203 359.08 211.976 358.574 212.939C358.067 213.901 357.7 215.003 357.472 216.245C357.269 217.461 357.168 218.702 357.168 219.969C357.168 221.235 357.269 222.489 357.472 223.731C357.7 224.947 358.067 226.049 358.574 227.037C359.08 227.999 359.739 228.785 360.55 229.393C361.386 229.975 362.412 230.267 363.628 230.267Z" fill="white"/>
<path d="M332.019 70.5804C332.019 71.0071 332.127 71.3285 332.343 71.5446C332.565 71.7552 332.886 71.8605 333.308 71.8605C333.54 71.8605 333.768 71.8439 333.989 71.8106C334.211 71.7774 334.41 71.7303 334.588 71.6693V69.134H335.278V74.6785H334.588V72.2845C334.405 72.3343 334.203 72.3787 333.981 72.4175C333.759 72.4562 333.515 72.4756 333.249 72.4756C332.923 72.4756 332.637 72.4313 332.393 72.3426C332.155 72.2484 331.955 72.1182 331.795 71.952C331.64 71.7857 331.523 71.5862 331.446 71.3534C331.368 71.1152 331.329 70.8547 331.329 70.5721V69.134H332.019V70.5804ZM339.204 74.7782C338.805 74.7782 338.431 74.7089 338.082 74.5704C337.738 74.4319 337.436 74.2379 337.176 73.9885C336.921 73.7336 336.719 73.4316 336.569 73.0825C336.425 72.7278 336.353 72.3371 336.353 71.9104C336.353 71.4837 336.425 71.0958 336.569 70.7466C336.719 70.392 336.921 70.0899 337.176 69.8406C337.436 69.5856 337.738 69.3889 338.082 69.2504C338.431 69.1118 338.805 69.0426 339.204 69.0426C339.448 69.0426 339.672 69.0703 339.877 69.1257C340.088 69.1811 340.279 69.2587 340.451 69.3584C340.628 69.4582 340.786 69.5746 340.925 69.7076C341.069 69.8406 341.196 69.9846 341.307 70.1398L340.725 70.464C340.564 70.2313 340.348 70.0401 340.077 69.8904C339.811 69.7353 339.52 69.6577 339.204 69.6577C338.899 69.6577 338.617 69.7131 338.356 69.8239C338.096 69.9348 337.868 70.0899 337.674 70.2894C337.486 70.4889 337.336 70.7272 337.226 71.0043C337.12 71.2759 337.068 71.5779 337.068 71.9104C337.068 72.2373 337.12 72.5394 337.226 72.8165C337.336 73.0935 337.486 73.3318 337.674 73.5313C337.868 73.7308 338.096 73.886 338.356 73.9968C338.617 74.1077 338.899 74.1631 339.204 74.1631C339.52 74.1631 339.811 74.0883 340.077 73.9387C340.348 73.789 340.564 73.5951 340.725 73.3568L341.315 73.681C341.083 73.9968 340.794 74.2601 340.451 74.4707C340.113 74.6757 339.697 74.7782 339.204 74.7782ZM344.821 74.7782C344.422 74.7782 344.048 74.7089 343.699 74.5704C343.356 74.4319 343.054 74.2379 342.793 73.9885C342.538 73.7336 342.336 73.4316 342.186 73.0825C342.042 72.7278 341.97 72.3371 341.97 71.9104C341.97 71.4837 342.042 71.0958 342.186 70.7466C342.336 70.392 342.538 70.0899 342.793 69.8406C343.054 69.5856 343.356 69.3889 343.699 69.2504C344.048 69.1118 344.422 69.0426 344.821 69.0426C345.065 69.0426 345.29 69.0703 345.495 69.1257C345.705 69.1811 345.897 69.2587 346.068 69.3584C346.246 69.4582 346.404 69.5746 346.542 69.7076C346.686 69.8406 346.814 69.9846 346.925 70.1398L346.343 70.464C346.182 70.2313 345.966 70.0401 345.694 69.8904C345.428 69.7353 345.137 69.6577 344.821 69.6577C344.517 69.6577 344.234 69.7131 343.974 69.8239C343.713 69.9348 343.486 70.0899 343.292 70.2894C343.104 70.4889 342.954 70.7272 342.843 71.0043C342.738 71.2759 342.685 71.5779 342.685 71.9104C342.685 72.2373 342.738 72.5394 342.843 72.8165C342.954 73.0935 343.104 73.3318 343.292 73.5313C343.486 73.7308 343.713 73.886 343.974 73.9968C344.234 74.1077 344.517 74.1631 344.821 74.1631C345.137 74.1631 345.428 74.0883 345.694 73.9387C345.966 73.789 346.182 73.5951 346.343 73.3568L346.933 73.681C346.7 73.9968 346.412 74.2601 346.068 74.4707C345.73 74.6757 345.315 74.7782 344.821 74.7782Z" fill="white"/>
<path d="M300.026 306.364C299.627 306.364 299.253 306.295 298.904 306.157C298.56 306.018 298.258 305.824 297.998 305.575C297.743 305.32 297.54 305.018 297.391 304.669C297.247 304.314 297.175 303.923 297.175 303.497C297.175 303.07 297.247 302.682 297.391 302.333C297.54 301.978 297.743 301.676 297.998 301.427C298.258 301.172 298.56 300.975 298.904 300.837C299.253 300.698 299.627 300.629 300.026 300.629C300.27 300.629 300.494 300.656 300.699 300.712C300.91 300.767 301.101 300.845 301.273 300.945C301.45 301.044 301.608 301.161 301.747 301.294C301.891 301.427 302.018 301.571 302.129 301.726L301.547 302.05C301.386 301.817 301.17 301.626 300.899 301.477C300.633 301.321 300.342 301.244 300.026 301.244C299.721 301.244 299.438 301.299 299.178 301.41C298.918 301.521 298.69 301.676 298.496 301.876C298.308 302.075 298.158 302.313 298.047 302.591C297.942 302.862 297.89 303.164 297.89 303.497C297.89 303.824 297.942 304.126 298.047 304.403C298.158 304.68 298.308 304.918 298.496 305.118C298.69 305.317 298.918 305.472 299.178 305.583C299.438 305.694 299.721 305.749 300.026 305.749C300.342 305.749 300.633 305.674 300.899 305.525C301.17 305.375 301.386 305.181 301.547 304.943L302.137 305.267C301.905 305.583 301.616 305.846 301.273 306.057C300.935 306.262 300.519 306.364 300.026 306.364ZM304.388 306.265V301.335H302.634V300.72H306.84V301.335H305.078V306.265H304.388ZM310.057 306.364C309.647 306.364 309.273 306.292 308.935 306.148C308.597 306.004 308.306 305.805 308.062 305.55C307.824 305.289 307.638 304.985 307.505 304.635C307.372 304.286 307.306 303.907 307.306 303.497C307.306 303.086 307.372 302.707 307.505 302.358C307.638 302.009 307.824 301.707 308.062 301.452C308.306 301.191 308.597 300.989 308.935 300.845C309.273 300.701 309.647 300.629 310.057 300.629C310.467 300.629 310.841 300.701 311.179 300.845C311.517 300.989 311.805 301.191 312.044 301.452C312.288 301.707 312.476 302.009 312.609 302.358C312.742 302.707 312.808 303.086 312.808 303.497C312.808 303.907 312.742 304.286 312.609 304.635C312.476 304.985 312.288 305.289 312.044 305.55C311.805 305.805 311.517 306.004 311.179 306.148C310.841 306.292 310.467 306.364 310.057 306.364ZM310.057 305.749C310.367 305.749 310.647 305.694 310.897 305.583C311.146 305.467 311.359 305.309 311.537 305.109C311.714 304.904 311.85 304.666 311.944 304.394C312.044 304.117 312.094 303.818 312.094 303.497C312.094 303.175 312.044 302.876 311.944 302.599C311.85 302.322 311.714 302.083 311.537 301.884C311.359 301.684 311.146 301.529 310.897 301.418C310.647 301.302 310.367 301.244 310.057 301.244C309.747 301.244 309.464 301.302 309.209 301.418C308.96 301.529 308.746 301.684 308.569 301.884C308.392 302.083 308.256 302.322 308.162 302.599C308.068 302.876 308.02 303.175 308.02 303.497C308.02 303.818 308.068 304.117 308.162 304.394C308.256 304.666 308.392 304.904 308.569 305.109C308.746 305.309 308.96 305.467 309.209 305.583C309.464 305.694 309.747 305.749 310.057 305.749ZM317.818 306.265V301.335H314.576V306.265H313.886V300.72H318.508V306.265H317.818Z" fill="black"/>
<path d="M229.38 305.708C229.547 305.697 229.693 305.663 229.821 305.608C229.954 305.553 230.073 305.447 230.178 305.292C230.284 305.137 230.372 304.918 230.444 304.635C230.522 304.353 230.591 303.976 230.652 303.505L230.993 300.72H234.384V305.65H234.891V307.287H234.202V306.265H230.07V307.287H229.38V305.708ZM231.334 303.555C231.262 304.142 231.154 304.599 231.01 304.926C230.865 305.253 230.691 305.494 230.486 305.65H233.694V301.335H231.608L231.334 303.555ZM239.727 306.265L239.236 305.034H236.476L235.986 306.265H235.196L237.424 300.72H238.28L240.516 306.265H239.727ZM237.856 301.435L236.676 304.419H239.028L237.856 301.435ZM241.241 306.265V300.72H243.71C243.948 300.72 244.164 300.756 244.358 300.828C244.552 300.895 244.716 300.992 244.849 301.119C244.982 301.241 245.084 301.391 245.156 301.568C245.228 301.74 245.264 301.928 245.264 302.133C245.264 302.311 245.237 302.471 245.181 302.615C245.131 302.76 245.059 302.887 244.965 302.998C244.876 303.103 244.774 303.192 244.658 303.264C244.541 303.33 244.419 303.377 244.292 303.405C244.441 303.427 244.58 303.48 244.707 303.563C244.84 303.646 244.954 303.749 245.048 303.871C245.148 303.993 245.226 304.131 245.281 304.286C245.342 304.441 245.372 304.602 245.372 304.768C245.372 304.99 245.336 305.192 245.264 305.375C245.192 305.558 245.087 305.716 244.948 305.849C244.81 305.982 244.641 306.085 244.441 306.157C244.247 306.229 244.023 306.265 243.768 306.265H241.241ZM243.594 303.123C243.909 303.123 244.148 303.039 244.308 302.873C244.469 302.701 244.549 302.488 244.549 302.233C244.549 301.984 244.469 301.773 244.308 301.601C244.148 301.424 243.909 301.335 243.594 301.335H241.931V303.123H243.594ZM243.627 305.65C243.954 305.65 244.206 305.566 244.383 305.4C244.566 305.228 244.658 304.993 244.658 304.694C244.658 304.566 244.635 304.444 244.591 304.328C244.547 304.211 244.48 304.112 244.392 304.029C244.308 303.94 244.203 303.871 244.076 303.821C243.948 303.765 243.799 303.738 243.627 303.738H241.931V305.65H243.627ZM246.087 305.749C246.253 305.749 246.4 305.722 246.527 305.666C246.66 305.605 246.779 305.494 246.885 305.334C246.99 305.167 247.078 304.94 247.151 304.652C247.228 304.358 247.297 303.976 247.358 303.505L247.699 300.72H251.091V306.265H250.401V301.335H248.314L248.04 303.555C247.962 304.164 247.863 304.655 247.741 305.026C247.624 305.392 247.483 305.674 247.317 305.874C247.156 306.073 246.973 306.204 246.768 306.265C246.563 306.331 246.336 306.364 246.087 306.364V305.749ZM252.387 306.265V300.72H256.019V301.335H253.077V303.123H255.961V303.738H253.077V305.65H256.019V306.265H252.387ZM261.051 306.265V303.721H257.809V306.265H257.119V300.72H257.809V303.106H261.051V300.72H261.741V306.265H261.051ZM263.037 306.265V300.72H263.727V305.051L266.919 300.72H267.626V306.265H266.936V301.842L263.702 306.265H263.037ZM268.923 306.265V300.72H272.555V301.335H269.612V303.123H272.497V303.738H269.612V305.65H272.555V306.265H268.923Z" fill="black"/>
<path d="M333.291 135.381C332.803 135.381 332.385 135.301 332.036 135.14C331.687 134.974 331.396 134.76 331.163 134.5L331.57 133.976C331.659 134.076 331.764 134.176 331.886 134.275C332.008 134.37 332.141 134.453 332.285 134.525C332.435 134.597 332.596 134.655 332.767 134.699C332.939 134.744 333.122 134.766 333.316 134.766C333.565 134.766 333.773 134.735 333.939 134.674C334.106 134.613 334.239 134.539 334.338 134.45C334.438 134.356 334.51 134.253 334.555 134.142C334.599 134.026 334.621 133.915 334.621 133.81C334.621 133.633 334.574 133.486 334.48 133.369C334.386 133.253 334.261 133.156 334.106 133.078C333.956 132.995 333.781 132.929 333.582 132.879C333.388 132.824 333.186 132.768 332.975 132.713C332.77 132.652 332.568 132.585 332.368 132.513C332.174 132.441 332 132.35 331.845 132.239C331.695 132.122 331.573 131.981 331.479 131.815C331.385 131.649 331.338 131.441 331.338 131.191C331.338 130.964 331.385 130.756 331.479 130.568C331.579 130.38 331.712 130.219 331.878 130.086C332.05 129.947 332.252 129.842 332.485 129.77C332.717 129.692 332.97 129.654 333.241 129.654C333.668 129.654 334.045 129.72 334.372 129.853C334.699 129.986 334.978 130.177 335.211 130.427L334.796 130.934C334.585 130.701 334.341 130.532 334.064 130.427C333.787 130.321 333.496 130.269 333.191 130.269C332.859 130.269 332.584 130.349 332.368 130.51C332.158 130.671 332.052 130.884 332.052 131.15C332.052 131.305 332.1 131.433 332.194 131.532C332.288 131.632 332.41 131.718 332.56 131.79C332.715 131.862 332.889 131.926 333.083 131.981C333.283 132.031 333.485 132.086 333.69 132.147C333.901 132.203 334.103 132.269 334.297 132.347C334.496 132.425 334.671 132.524 334.821 132.646C334.976 132.768 335.1 132.918 335.195 133.095C335.289 133.272 335.336 133.491 335.336 133.752C335.336 133.951 335.3 134.151 335.228 134.35C335.156 134.544 335.037 134.719 334.87 134.874C334.71 135.024 334.499 135.145 334.239 135.24C333.978 135.334 333.662 135.381 333.291 135.381ZM338.32 135.381C338.043 135.381 337.788 135.32 337.555 135.198C337.322 135.076 337.125 134.902 336.965 134.674V136.811H336.341V131.266H336.965V131.865C337.109 131.66 337.3 131.493 337.538 131.366C337.777 131.233 338.037 131.167 338.32 131.167C338.586 131.167 338.827 131.216 339.043 131.316C339.264 131.41 339.453 131.549 339.608 131.732C339.769 131.909 339.891 132.128 339.974 132.388C340.062 132.649 340.107 132.943 340.107 133.27C340.107 133.597 340.062 133.89 339.974 134.151C339.891 134.411 339.769 134.633 339.608 134.816C339.453 134.999 339.264 135.14 339.043 135.24C338.827 135.334 338.586 135.381 338.32 135.381ZM338.162 134.824C338.361 134.824 338.541 134.785 338.702 134.708C338.863 134.63 338.998 134.522 339.109 134.383C339.22 134.245 339.303 134.081 339.359 133.893C339.42 133.699 339.45 133.491 339.45 133.27C339.45 133.048 339.42 132.843 339.359 132.654C339.303 132.466 339.22 132.303 339.109 132.164C338.998 132.026 338.863 131.917 338.702 131.84C338.541 131.762 338.361 131.723 338.162 131.723C337.912 131.723 337.677 131.787 337.455 131.915C337.239 132.037 337.075 132.186 336.965 132.364V134.176C337.075 134.353 337.239 134.505 337.455 134.633C337.677 134.76 337.912 134.824 338.162 134.824ZM343.018 135.381C342.636 135.381 342.312 135.295 342.046 135.123C341.78 134.952 341.561 134.73 341.389 134.458C341.217 134.181 341.093 133.874 341.015 133.536C340.937 133.192 340.899 132.851 340.899 132.513C340.899 132.175 340.937 131.837 341.015 131.499C341.093 131.155 341.217 130.848 341.389 130.576C341.561 130.305 341.78 130.083 342.046 129.911C342.312 129.74 342.636 129.654 343.018 129.654C343.395 129.654 343.717 129.74 343.983 129.911C344.254 130.083 344.473 130.305 344.639 130.576C344.811 130.848 344.936 131.155 345.013 131.499C345.097 131.837 345.138 132.175 345.138 132.513C345.138 132.851 345.097 133.192 345.013 133.536C344.936 133.874 344.811 134.181 344.639 134.458C344.473 134.73 344.254 134.952 343.983 135.123C343.717 135.295 343.395 135.381 343.018 135.381ZM343.018 134.766C343.284 134.766 343.506 134.702 343.683 134.575C343.866 134.442 344.013 134.27 344.124 134.059C344.235 133.843 344.312 133.602 344.357 133.336C344.407 133.065 344.432 132.79 344.432 132.513C344.432 132.236 344.407 131.965 344.357 131.699C344.312 131.427 344.235 131.186 344.124 130.975C344.013 130.765 343.866 130.596 343.683 130.468C343.506 130.335 343.284 130.269 343.018 130.269C342.752 130.269 342.528 130.335 342.345 130.468C342.168 130.596 342.024 130.765 341.913 130.975C341.802 131.186 341.722 131.427 341.672 131.699C341.627 131.965 341.605 132.236 341.605 132.513C341.605 132.79 341.627 133.065 341.672 133.336C341.722 133.602 341.802 133.843 341.913 134.059C342.024 134.27 342.168 134.442 342.345 134.575C342.528 134.702 342.752 134.766 343.018 134.766ZM346.013 135.281V134.733C346.512 134.339 346.953 133.984 347.335 133.669C347.718 133.347 348.039 133.051 348.299 132.779C348.56 132.502 348.757 132.244 348.89 132.006C349.023 131.762 349.089 131.521 349.089 131.283C349.089 131.106 349.056 130.953 348.989 130.826C348.923 130.698 348.834 130.593 348.723 130.51C348.618 130.427 348.496 130.366 348.358 130.327C348.219 130.288 348.078 130.269 347.934 130.269C347.601 130.269 347.307 130.333 347.053 130.46C346.798 130.587 346.59 130.756 346.429 130.967L346.005 130.526C346.216 130.244 346.49 130.028 346.828 129.878C347.172 129.728 347.54 129.654 347.934 129.654C348.166 129.654 348.394 129.687 348.615 129.753C348.837 129.82 349.034 129.92 349.205 130.053C349.383 130.186 349.524 130.355 349.629 130.56C349.74 130.765 349.796 131.006 349.796 131.283C349.796 131.566 349.726 131.845 349.588 132.122C349.455 132.394 349.266 132.668 349.023 132.945C348.784 133.217 348.502 133.497 348.175 133.785C347.848 134.068 347.49 134.361 347.102 134.666H349.821V135.281H346.013Z" fill="white"/>
<path d="M336.81 200.853C336.411 200.853 336.037 200.784 335.687 200.645C335.344 200.507 335.042 200.313 334.781 200.063C334.526 199.809 334.324 199.507 334.174 199.157C334.03 198.803 333.958 198.412 333.958 197.985C333.958 197.559 334.03 197.171 334.174 196.822C334.324 196.467 334.526 196.165 334.781 195.916C335.042 195.661 335.344 195.464 335.687 195.325C336.037 195.187 336.411 195.118 336.81 195.118C337.053 195.118 337.278 195.145 337.483 195.201C337.693 195.256 337.885 195.334 338.056 195.433C338.234 195.533 338.392 195.65 338.53 195.783C338.674 195.916 338.802 196.06 338.913 196.215L338.331 196.539C338.17 196.306 337.954 196.115 337.682 195.965C337.416 195.81 337.125 195.733 336.81 195.733C336.505 195.733 336.222 195.788 335.962 195.899C335.701 196.01 335.474 196.165 335.28 196.364C335.092 196.564 334.942 196.802 334.831 197.079C334.726 197.351 334.673 197.653 334.673 197.985C334.673 198.312 334.726 198.614 334.831 198.891C334.942 199.168 335.092 199.407 335.28 199.606C335.474 199.806 335.701 199.961 335.962 200.072C336.222 200.183 336.505 200.238 336.81 200.238C337.125 200.238 337.416 200.163 337.682 200.014C337.954 199.864 338.17 199.67 338.331 199.432L338.921 199.756C338.688 200.072 338.4 200.335 338.056 200.546C337.718 200.751 337.303 200.853 336.81 200.853ZM342.327 200.853C341.917 200.853 341.543 200.781 341.205 200.637C340.867 200.493 340.576 200.293 340.332 200.039C340.094 199.778 339.908 199.473 339.775 199.124C339.642 198.775 339.576 198.395 339.576 197.985C339.576 197.575 339.642 197.196 339.775 196.847C339.908 196.497 340.094 196.195 340.332 195.94C340.576 195.68 340.867 195.478 341.205 195.334C341.543 195.19 341.917 195.118 342.327 195.118C342.737 195.118 343.111 195.19 343.449 195.334C343.788 195.478 344.076 195.68 344.314 195.94C344.558 196.195 344.746 196.497 344.879 196.847C345.012 197.196 345.079 197.575 345.079 197.985C345.079 198.395 345.012 198.775 344.879 199.124C344.746 199.473 344.558 199.778 344.314 200.039C344.076 200.293 343.788 200.493 343.449 200.637C343.111 200.781 342.737 200.853 342.327 200.853ZM342.327 200.238C342.638 200.238 342.917 200.183 343.167 200.072C343.416 199.955 343.63 199.797 343.807 199.598C343.984 199.393 344.12 199.155 344.214 198.883C344.314 198.606 344.364 198.307 344.364 197.985C344.364 197.664 344.314 197.365 344.214 197.088C344.12 196.811 343.984 196.572 343.807 196.373C343.63 196.173 343.416 196.018 343.167 195.907C342.917 195.791 342.638 195.733 342.327 195.733C342.017 195.733 341.734 195.791 341.479 195.907C341.23 196.018 341.017 196.173 340.839 196.373C340.662 196.572 340.526 196.811 340.432 197.088C340.338 197.365 340.291 197.664 340.291 197.985C340.291 198.307 340.338 198.606 340.432 198.883C340.526 199.155 340.662 199.393 340.839 199.598C341.017 199.797 341.23 199.955 341.479 200.072C341.734 200.183 342.017 200.238 342.327 200.238ZM345.957 200.753V200.205C346.456 199.811 346.896 199.457 347.279 199.141C347.661 198.819 347.982 198.523 348.243 198.251C348.503 197.974 348.7 197.717 348.833 197.478C348.966 197.234 349.033 196.993 349.033 196.755C349.033 196.578 348.999 196.425 348.933 196.298C348.866 196.17 348.778 196.065 348.667 195.982C348.562 195.899 348.44 195.838 348.301 195.799C348.163 195.76 348.021 195.741 347.877 195.741C347.545 195.741 347.251 195.805 346.996 195.932C346.741 196.06 346.533 196.229 346.373 196.439L345.949 195.999C346.159 195.716 346.434 195.5 346.772 195.35C347.115 195.201 347.484 195.126 347.877 195.126C348.11 195.126 348.337 195.159 348.559 195.226C348.78 195.292 348.977 195.392 349.149 195.525C349.326 195.658 349.468 195.827 349.573 196.032C349.684 196.237 349.739 196.478 349.739 196.755C349.739 197.038 349.67 197.318 349.531 197.595C349.398 197.866 349.21 198.141 348.966 198.418C348.728 198.689 348.445 198.969 348.118 199.257C347.791 199.54 347.434 199.833 347.046 200.138H349.764V200.753H345.957Z" fill="white"/>
<path d="M60.8417 237.328H65.9821C67.8655 224.972 78.1568 208.649 83.0266 210.543C87.8965 212.437 88.1113 234.06 100.071 237.328C104.759 238.608 106.564 237.328 112.516 237.328C118.468 237.328 122.527 208.383 128.749 209.191C134.972 209.998 142.547 236.24 145.794 237.328C149.04 238.415 153.64 238.956 157.427 237.328C161.215 235.699 169.873 208.384 176.366 209.191C182.859 209.997 180.239 234.469 192.599 237.328C196.407 238.208 202.609 237.328 202.609 237.328C202.609 237.328 213.433 198.625 220.194 209.191C226.956 219.756 231.558 233.275 237.51 236.245C243.462 239.216 251.578 236.245 251.578 236.245C251.578 236.245 263.753 208.655 267.54 209.191C271.328 209.726 282.691 234.898 284.855 236.245C287.02 237.593 300.818 237.874 301.9 236.245C302.982 234.617 311.099 209.456 316.239 211.896" stroke="#C8CFE8" stroke-width="0.541096"/>
<circle cx="376.825" cy="319.909" r="21.6439" fill="black"/>
<circle cx="308.651" cy="318.29" r="7.57535" stroke="black" stroke-width="1.08219"/>
<circle cx="251.834" cy="318.29" r="7.57535" stroke="black" stroke-width="1.08219"/>
<circle cx="55.4274" cy="319.909" r="16.2329" fill="#C8CFE8"/>
</svg>
