<svg width="1160" height="751" viewBox="0 0 1160 751" fill="none" xmlns="http://www.w3.org/2000/svg">
<rect x="398.81" y="1.47536" width="361.647" height="441.864" stroke="white" stroke-width="2.00345"/>
<rect x="398.81" y="532.433" width="361.647" height="217.256" stroke="white" stroke-width="2.00345"/>
<rect x="760.681" y="158.09" width="398.318" height="541.944" stroke="white" stroke-width="2.00345"/>
<rect x="1.00172" y="158.09" width="397.554" height="541.944" stroke="white" stroke-width="2.00345"/>
<rect x="474.439" y="566.05" width="111.064" height="133.984" stroke="white" stroke-width="2.00345"/>
<rect x="586.736" y="566.05" width="111.828" height="133.984" stroke="white" stroke-width="2.00345"/>
<rect x="514.166" y="59.5359" width="131.692" height="143.915" stroke="white" stroke-width="2.00345"/>
<rect x="514.166" y="240.596" width="131.692" height="143.915" stroke="white" stroke-width="2.00345"/>
<rect x="133.697" y="243.654" width="104.189" height="101.897" stroke="white" stroke-width="2.00345"/>
<rect x="133.697" y="436.94" width="104.189" height="101.897" stroke="white" stroke-width="2.00345"/>
<rect x="922.873" y="436.94" width="104.189" height="101.897" stroke="white" stroke-width="2.00345"/>
<rect x="922.873" y="243.654" width="104.189" height="101.897" stroke="white" stroke-width="2.00345"/>
<rect x="794.521" y="532.433" width="41.5429" height="191.281" stroke="white" stroke-width="2.00345"/>
<rect x="324.693" y="532.433" width="41.5429" height="191.281" stroke="white" stroke-width="2.00345"/>
<rect x="324.947" y="444.579" width="511.386" height="86.6173" fill="black" stroke="white" stroke-width="2.00345"/>
</svg>
