<svg width="379" height="152" viewBox="0 0 379 152" fill="none" xmlns="http://www.w3.org/2000/svg">
<path fill-rule="evenodd" clip-rule="evenodd" d="M43.9921 1.11667C39.5447 1.92185 35.9859 4.90925 34.674 8.93934C34.0834 10.7536 33.9682 12.21 33.9915 17.5521C34.0174 23.4667 34.0999 24.2277 35.0256 27.0566C36.2294 30.7361 38.1548 33.77 44.236 41.5677C46.7505 44.7919 49.3513 48.5319 50.0162 49.879C51.2061 52.2916 51.2245 52.4096 51.2245 57.6983C51.2245 62.5623 51.1502 63.1686 50.4361 64.1364C49.8117 64.9836 49.3029 65.2282 47.9851 65.3171C46.5955 65.4105 46.1696 65.2657 45.3959 64.4367C44.4859 63.4613 44.4668 63.3081 44.2825 55.437L44.0949 47.4298H38.6539H33.2128L33.1029 54.6156C33.0421 58.5678 33.1704 63.1629 33.3873 64.827C34.3532 72.2242 38.321 75.7259 46.3021 76.2244C54.9503 76.7645 60.1433 73.6273 62.3235 66.5448C63.3141 63.3259 63.668 56.4858 63.0751 52.0181C62.2481 45.7888 61.0266 43.4701 53.288 33.4364C47.4244 25.8343 46.2953 24.0378 45.5659 21.1544C44.7959 18.1099 44.9756 13.3571 45.916 11.9109C46.4345 11.1129 46.8424 10.9347 48.1374 10.9393C51.1637 10.9506 51.4122 11.5939 51.4122 19.4181V25.6834H56.89H62.3678L62.2034 17.4575C62.0691 10.7403 61.9137 8.88942 61.3572 7.36603C60.4225 4.80638 58.1211 2.57803 55.5398 1.73275C53.0992 0.933617 46.8477 0.600046 43.9921 1.11667ZM0.0956872 38.4476L0.191374 75.4166L5.72622 75.5213L11.2611 75.6257V59.3533V43.0805H15.0135H18.7659V59.3533V75.6257L24.3008 75.5213L29.8356 75.4166L29.9313 38.4476L30.027 1.4786H24.3965H18.7659V16.2023V30.9263L15.1681 31.0466C13.1894 31.1132 11.5008 31.0961 11.4157 31.0095C11.3309 30.9229 11.2611 24.2432 11.2611 16.1652V1.4786H5.63053H0L0.0956872 38.4476ZM66.5138 38.4476L66.6095 75.4166L79.4616 75.516L92.3137 75.6155V69.9376V64.2597H84.9965H77.6792V53.481V42.7023L83.2141 42.7019L88.7489 42.7016V37.2177V31.7342H83.2141L77.6792 31.7345V22.0988V12.463L84.715 12.3602L91.7509 12.2573L91.8548 6.86794L91.9591 1.4786H79.1888H66.4182L66.5138 38.4476ZM111.826 1.73237C111.826 2.0459 106.004 50.1252 104.162 65.0161C103.481 70.5283 102.994 75.1658 103.081 75.322C103.169 75.4782 105.425 75.6057 108.096 75.6057C111.731 75.6057 112.952 75.4869 112.951 75.1329C112.951 74.274 114.105 63.3312 114.288 62.4632C114.46 61.6467 114.625 61.6123 118.393 61.6123C123.003 61.6123 122.403 60.6857 123.252 69.1195C123.573 72.3123 123.93 75.0777 124.045 75.2653C124.296 75.6741 134.228 75.7282 134.455 75.322C134.542 75.1658 132.475 58.53 129.861 38.353L125.11 1.6677L118.468 1.56445C114.815 1.50772 111.826 1.58336 111.826 1.73237ZM136.392 1.94379C136.284 2.2282 136.242 18.8758 136.3 38.9389L136.405 75.4166L141.94 75.5213L147.475 75.6257V58.9233V42.2205L149.914 42.4179C152.819 42.6528 154.041 43.3596 154.364 44.9931C154.497 45.6572 154.604 52.2265 154.604 59.5916C154.604 70.4296 154.708 73.2325 155.148 74.2941L155.692 75.6057H161.152C164.155 75.6057 166.612 75.5289 166.612 75.4351C166.612 75.3413 166.359 74.2842 166.049 73.0865C165.595 71.3309 165.485 68.0061 165.478 55.9544C165.471 42.2644 165.412 40.8711 164.781 39.4721C164.153 38.0781 162.49 36.3066 161.279 35.7419C160.906 35.568 160.924 35.4602 161.359 35.27C162.567 34.7405 164.243 32.5015 164.85 30.6083C165.759 27.7714 165.785 10.9567 164.885 7.88227C164.176 5.45839 161.972 3.08595 159.663 2.25883C157.477 1.47558 136.677 1.1942 136.392 1.94379ZM167.738 6.96249V12.4464H172.428H177.119V44.026V75.6057H182.56H188.001V44.026V12.4464H192.691H197.382V6.96249V1.4786H182.56H167.738V6.96249ZM216.732 1.95135C216.656 2.21155 215.291 13.3162 213.698 26.6289C212.106 39.9415 210.151 56.1946 209.353 62.7469C208.555 69.2992 207.899 74.878 207.896 75.1439C207.89 75.5179 209.015 75.6038 212.857 75.5221L217.826 75.4166L218.464 69.3654C218.815 66.0372 219.112 62.9314 219.124 62.4632C219.146 61.6338 219.25 61.6123 223.274 61.6123C226.327 61.6123 227.401 61.7352 227.399 62.085C227.395 62.8664 228.561 73.8372 228.746 74.7547C228.913 75.5883 229.023 75.6057 234.163 75.6057C238.748 75.6057 239.409 75.5285 239.409 74.9934C239.409 74.6568 237.299 58.0697 234.719 38.1337C232.139 18.198 230.028 1.79478 230.028 1.68245C230.028 1.57051 227.068 1.4786 223.45 1.4786C218.511 1.4786 216.837 1.5966 216.732 1.95135ZM241.286 38.5531V75.6276L246.258 75.5221L251.229 75.4166L251.352 54.6156L251.475 33.8146L253.851 43.0805C255.157 48.1768 257.532 57.5799 259.127 63.976L262.028 75.6057H266.479H270.93V38.5421V1.4786H265.864H260.798L260.78 20.8613L260.761 40.244L258.946 32.8691C257.947 28.813 255.828 20.0909 254.237 13.4864L251.346 1.4786H246.316H241.286V38.5531ZM275.149 38.417L275.245 75.4166L283.688 75.5221C295.947 75.6752 298.591 75.1049 301.6 71.6592C304.596 68.2289 304.514 69.1668 304.514 38.1639C304.514 12.2671 304.475 10.6306 303.806 8.69427C302.907 6.09037 300.732 3.70468 298.22 2.5663C296.337 1.71309 295.835 1.67224 285.656 1.54744L275.054 1.41696L275.149 38.417ZM153.364 12.6022L154.417 13.514L154.539 20.4895C154.717 30.5814 154.214 31.792 149.808 31.8805L147.662 31.9236L147.562 21.8068L147.462 11.69H149.887C151.908 11.69 152.486 11.8416 153.364 12.6022ZM291.829 12.2565C292.33 12.6101 292.784 13.542 293.038 14.7337C293.545 17.1183 293.583 59.227 293.08 61.4232C292.554 63.7162 291.254 64.6379 288.545 64.6379H286.315V38.1639V11.69H288.67C290.156 11.69 291.322 11.8995 291.829 12.2565ZM121.183 49.9827C121.204 50.5564 120.833 50.6445 118.393 50.6445C115.756 50.6445 115.579 50.5927 115.579 49.8246C115.579 48.6866 117.809 26.9326 118.092 25.3052C118.243 24.4379 118.812 28.3508 119.741 36.6511C120.521 43.6195 121.17 49.6185 121.183 49.9827ZM224.777 37.7857C225.425 44.13 225.984 49.5761 226.021 49.8881C226.075 50.3419 225.497 50.4777 223.13 50.5666L220.171 50.6782L220.372 49.6211C220.483 49.0402 221.138 43.0544 221.829 36.3202C222.622 28.5853 223.18 24.4765 223.343 25.1633C223.485 25.7613 224.13 31.4414 224.777 37.7857ZM70.6569 76.8934C66.4834 78.2538 64.0751 80.7049 62.7967 84.8939C61.889 87.868 61.8803 96.899 62.7813 100.619C63.9498 105.441 65.0222 107.163 74.9377 120.135C78.379 124.638 79.196 126.392 79.6646 130.289C80.1183 134.06 79.599 138.806 78.6125 139.905C77.0514 141.643 74.221 141.059 73.0832 138.765C72.5267 137.642 72.4269 136.335 72.4266 130.161L72.4258 122.881H66.9848H61.5437V131.949C61.5437 140.21 61.6158 141.239 62.3509 143.496C63.4117 146.754 65.3086 148.908 68.3702 150.333C70.6145 151.378 70.9999 151.435 75.803 151.435C81.9176 151.435 83.882 150.877 86.6693 148.352C88.8472 146.378 90.543 143.122 91.1565 139.735C91.74 136.516 91.6529 128.096 91.0041 125.009C90.1306 120.854 88.2138 117.548 81.7679 109.081C73.8611 98.6943 73.8071 98.5866 73.6217 92.7404C73.478 88.2084 73.4922 88.1116 74.4345 87.1619C75.737 85.8492 77.6045 85.853 78.8335 87.1706C79.7145 88.1154 79.7461 88.3495 79.8361 94.6401L79.9288 101.134L85.2141 101.239L90.499 101.344L90.3692 92.7298C90.2484 84.698 90.1808 83.9839 89.3733 82.1742C88.3118 79.7961 87.0716 78.5579 84.6212 77.4301C82.9964 76.682 82.0414 76.5538 77.4916 76.4721C73.8491 76.4067 71.7534 76.536 70.6569 76.8934ZM118.768 76.8734C113.641 78.5681 110.811 82.3372 109.972 88.5862C109.727 90.4099 109.578 100.709 109.581 115.438C109.587 134.948 109.689 139.811 110.137 141.944C111.094 146.499 113.064 149.37 116.276 150.892C118.558 151.972 122.299 152.011 124.601 150.978C126.599 150.081 129.232 147.512 130.285 145.43C131.193 143.636 131.333 143.807 132.324 147.936L133.028 150.867L136.123 150.867L139.219 150.867V128.364V105.862H131.527H123.834V111.535V117.208H126.273H128.712L128.707 127.324C128.701 138.561 128.638 138.903 126.366 140.024C125.173 140.613 124.763 140.649 123.612 140.266C121.153 139.448 121.208 140.058 121.208 113.219V89.1626L122.304 88.0571C123.679 86.6718 125.265 86.6022 126.721 87.8635C127.772 88.7734 127.775 88.7882 127.962 94.5765L128.15 100.378L133.537 100.483L138.924 100.588L138.751 93.2971C138.556 85.1314 138.149 83.1591 136.098 80.4485C135.338 79.444 134.033 78.3953 132.664 77.6895C130.566 76.6075 130.204 76.547 125.363 76.4642C121.954 76.4059 119.773 76.5413 118.768 76.8734ZM195.775 76.7546C191.205 77.9044 188.256 81.2711 187.234 86.5042C186.61 89.7 186.962 98.8955 187.816 101.701C188.914 105.312 190.866 108.537 195.951 115.142C202.169 123.218 203.609 125.462 204.158 127.936C204.75 130.602 204.48 138.291 203.756 139.42C202.978 140.631 201.283 141.142 199.743 140.63C197.594 139.915 197.382 139.001 197.382 130.463V122.881H191.711H186.041L186.208 132.241C186.401 143.081 186.758 144.644 189.785 147.905C192.428 150.753 194.51 151.41 200.947 151.423C205.637 151.433 206.399 151.342 208.056 150.572C212.035 148.723 214.032 146.315 215.497 141.601C216.211 139.307 216.317 138.122 216.297 132.714C216.264 123.531 215.265 120.569 209.736 113.255C208.313 111.373 205.602 107.79 203.711 105.294C201.82 102.798 199.863 99.8607 199.361 98.7666C197.773 95.3011 197.729 88.4932 199.285 86.9244C200.337 85.8647 202.438 85.9619 203.59 87.1237C204.498 88.0386 204.512 88.146 204.512 94.6979V101.344L209.859 101.239L215.206 101.134L215.316 94.5156C215.47 85.2044 214.79 81.9265 212.148 79.2326C210.064 77.1071 208.254 76.5962 202.448 76.4918C199.558 76.44 196.556 76.5583 195.775 76.7546ZM227.964 76.8738C223.929 78.2069 221.712 80.4504 220.064 84.8715C219.405 86.6377 219.35 88.4077 219.228 111.724C219.137 128.978 219.228 137.619 219.522 139.71C220.282 145.113 222.402 148.496 226.207 150.379C228.253 151.392 228.568 151.435 233.968 151.435C239.086 151.435 239.776 151.353 241.564 150.538C243.745 149.544 245.711 147.571 246.942 145.141C248.35 142.358 248.763 138.559 248.777 128.27L248.79 118.72H243.349H237.908L237.899 127.514C237.894 132.35 237.734 136.987 237.542 137.819C237.106 139.718 235.986 140.656 234.156 140.656C231.988 140.656 231.182 139.756 230.77 136.874C230.342 133.879 230.326 92.8065 230.752 90.1909C231.218 87.3314 233.236 86.2009 235.786 87.3714C237.463 88.1414 237.694 89.2587 237.834 97.2576L237.965 104.727H243.378H248.79L248.787 97.0685C248.784 86.0712 248.034 82.5218 245.109 79.6494C242.568 77.1551 240.685 76.5791 234.719 76.4721C231.164 76.4082 228.98 76.5383 227.964 76.8738ZM295.302 76.8772C290.509 78.1801 287.272 82.2283 286.337 88.0862C286.095 89.6081 285.947 99.5479 285.949 114.182C285.953 139.439 286.047 140.944 287.853 144.704C290.36 149.924 294.303 151.806 302.206 151.554C305.935 151.435 307.107 151.253 308.642 150.552C312.347 148.86 314.785 145.504 315.794 140.705C316.466 137.511 316.583 91.2869 315.928 87.5012C314.994 82.0929 311.854 78.2394 307.342 76.9634C304.785 76.2403 297.829 76.1904 295.302 76.8772ZM329.2 76.8896C325.208 78.2001 322.773 80.5419 321.117 84.6643L320.274 86.7625V113.615V140.467L321.151 143.025C322.27 146.29 324.865 149.264 327.678 150.507C330.631 151.811 337.763 152.03 341.365 150.927C344.494 149.969 346.75 148.136 348.12 145.436C350.228 141.284 350.23 141.254 350.383 115.917C350.468 101.751 350.376 91.2866 350.15 89.4243C349.408 83.3107 346.954 79.2795 342.869 77.4656C341.204 76.7259 340.158 76.5799 335.847 76.4838C332.299 76.4044 330.307 76.5262 329.2 76.8896ZM0.159479 77.0871C0.0739231 77.1737 0.00375252 93.8216 0.00375252 114.083V150.921L10.4168 150.779C19.3795 150.657 21.0853 150.54 22.6659 149.942C26.1192 148.634 28.4656 145.318 29.2728 140.605C29.5531 138.968 29.6488 129.845 29.5726 112.102L29.4604 86.0061L28.5651 83.7369C27.3917 80.7628 25.2006 78.6082 22.4947 77.7667C20.8429 77.2531 18.537 77.1128 10.3849 77.0307C4.84665 76.9751 0.245034 77.0005 0.159479 77.0871ZM44.9373 77.0292L33.3967 77.1294L33.4924 113.904L33.5881 150.678H46.534H59.4799V145.194V139.71L52.0688 139.608L44.6578 139.505V128.924V118.342H50.2864H55.9151V112.669V106.996H50.2864H44.6578V97.3521V87.708H51.7874H58.917V82.4132C58.917 78.4463 58.7996 77.1105 58.448 77.0871C58.1902 77.0697 57.6412 77.0269 57.2284 76.9925C56.8157 76.9577 51.2846 76.9744 44.9373 77.0292ZM99.9105 77.0231L94.5614 77.1393L94.6571 113.909L94.7528 150.678L100.288 150.783L105.823 150.887V113.814C105.823 93.4234 105.696 76.7777 105.541 76.8235C105.386 76.8692 102.852 76.9592 99.9105 77.0231ZM143.719 77.0553C143.476 77.1377 143.347 90.0166 143.347 114.024V150.867H148.225H153.103V130.003C153.103 118.528 153.208 109.245 153.336 109.374C153.464 109.503 155.885 118.849 158.717 130.144L163.864 150.678L168.427 150.784L172.991 150.891V114.005V77.1185L171.772 77.0927C171.101 77.0787 168.863 77.0682 166.8 77.0697L163.047 77.0719L162.86 96.4777C162.712 111.673 162.583 115.515 162.26 114.182C162.033 113.246 159.942 104.566 157.613 94.8938C155.284 85.2214 153.337 77.2576 153.287 77.1967C153.156 77.0371 144.164 76.9048 143.719 77.0553ZM252.44 76.9706C252.29 77.1211 252.168 93.8095 252.168 114.056V150.867H257.796H263.425V134.605V118.342H267.177H270.93V134.605V150.867H276.56H282.191L282.095 113.981L281.999 77.0954L276.464 77.0122L270.929 76.9294L270.929 91.7737L270.93 106.618H267.177H263.425V91.8682V77.1185L258.828 77.1132C256.3 77.1105 253.89 77.0156 253.472 76.9021C253.054 76.789 252.589 76.8197 252.44 76.9706ZM354.234 113.898L354.234 150.867H366.617H379V145.194V139.521H372.246H365.491V108.339V77.1563L359.862 77.0428L354.233 76.9294L354.234 113.898ZM16.8792 88.0174C17.8128 88.9584 17.9667 89.4568 18.1937 92.2721C18.3352 94.0262 18.3941 104.822 18.3247 116.262C18.1918 138.165 18.1742 138.389 16.483 139.454C16.0822 139.706 14.7433 140.019 13.5077 140.149L11.2611 140.386V113.668V86.9516H13.5414C15.5422 86.9516 15.9512 87.0825 16.8792 88.0174ZM303.325 87.7251C303.862 88.1509 304.474 89.1293 304.687 89.8997C305.214 91.8145 305.213 136.177 304.685 138.092C304.211 139.814 303.097 140.656 301.292 140.656C299.528 140.656 298.082 139.506 297.587 137.708C297.061 135.798 297.061 91.8092 297.587 89.8997C298.064 88.171 299.532 86.9516 301.137 86.9516C301.804 86.9516 302.788 87.2996 303.325 87.7251ZM337.466 87.865C338.004 88.3672 338.54 89.1755 338.659 89.6614C338.777 90.147 338.826 101.38 338.767 114.624L338.661 138.704L337.752 139.68C336.758 140.746 334.585 141.014 333.164 140.247C331.375 139.282 331.344 138.837 331.344 113.872C331.344 97.7488 331.473 90.0949 331.759 89.2685C332.548 86.9876 335.697 86.213 337.466 87.865Z" fill="black"/>
</svg>
