<svg width="901" height="897" viewBox="0 0 901 897" fill="none" xmlns="http://www.w3.org/2000/svg">
<circle cx="389.804" cy="364.914" r="313.5" transform="rotate(10 389.804 364.914)" stroke="black" stroke-width="3"/>
<circle cx="393.743" cy="365.608" r="248.5" transform="rotate(10 393.743 365.608)" stroke="black" stroke-width="3"/>
<path fill-rule="evenodd" clip-rule="evenodd" d="M519.186 650.455L667.784 862.674C685.524 888.009 720.442 894.166 745.777 876.426L754.512 870.31C779.847 852.57 786.004 817.652 768.264 792.317L619.667 580.098L617.209 581.819L765.807 794.038C782.596 818.015 776.769 851.063 752.791 867.853L744.056 873.969C720.079 890.758 687.031 884.931 670.241 860.953L521.644 648.734L519.186 650.455Z" fill="black"/>
<path d="M566.07 712.807L663.269 644.507" stroke="black" stroke-width="3"/>
</svg>
