<svg width="335" height="262" viewBox="0 0 335 262" fill="none" xmlns="http://www.w3.org/2000/svg">
<path d="M127.08 165.833C129.262 140.082 94.2475 143.093 78.0423 151.761C76.1248 152.787 46.0929 183.768 60.5593 184.026C71.6727 184.225 93.7822 169.148 98.3681 165.833C138.822 136.586 182.161 98.6087 205.682 53.6856C216.834 32.3888 218.591 17.3224 189.194 26.253C135.777 42.481 87.7375 85.4121 42.9342 116.937C30.7684 125.497 20.0355 137.088 5.97827 141.953C-13.1905 148.589 40.053 119.909 57.5744 109.688C88.4956 91.6507 106.968 81.3473 138.593 63.7775C164.28 49.5068 195.725 36.2093 218.901 17.4404C222.43 14.5831 230.487 6.65776 219.754 4.07941C193.714 -2.17615 160.089 10.2662 137.598 21.2781C101.857 38.7782 65.3121 65.349 39.5229 95.9007C25.9878 111.935 16.5782 133.994 46.2034 133.994C100.456 133.994 155.934 107.312 206.962 91.3523C233.127 83.1683 216.493 92.742 208.241 102.581C204.867 106.604 205.962 108.014 211.794 107.84C232.465 107.223 254.013 97.6771 273.482 91.9208C278.352 90.4811 328.483 83.0011 331.191 76.5699C334.438 68.8561 332.814 52.0573 331.759 43.8781C331.361 40.7913 272.792 98.0357 271.208 99.5963C221.37 148.708 171.487 198.694 114.572 239.745C108.102 244.411 101.381 248.736 94.5304 252.821C90.3138 255.336 82.7084 262.923 80.8851 258.365C78.4356 252.241 92.8942 252.906 98.9367 250.263" stroke="#FFCC97" stroke-width="3" stroke-linecap="round"/>
</svg>
