<svg width="343" height="335" viewBox="0 0 343 335" fill="none" xmlns="http://www.w3.org/2000/svg">
<path d="M342.555 333.621L255.409 297.788L256.269 282.169L222.73 245.524M250.536 235.009L216.423 247.909L2 33.1989C17.225 20.8845 25.7611 13.9804 40.9861 1.66602L250.536 235.009Z" stroke="black" stroke-width="1.71997"/>
<path d="M342.27 333.621L245.664 237.016" stroke="black" stroke-width="1.71997"/>
<path d="M176.289 152.45L158.803 190.29" stroke="black" stroke-width="1.71997"/>
<path d="M175.484 151L157.998 188.839" stroke="black" stroke-width="1.71997"/>
<path d="M174.484 150L156.998 187.839" stroke="black" stroke-width="1.71997"/>
<path d="M173.484 149L155.998 186.839" stroke="black" stroke-width="1.71997"/>
<path d="M172.484 148L154.998 185.839" stroke="black" stroke-width="1.71997"/>
<path d="M171.484 147L153.998 184.839" stroke="black" stroke-width="1.71997"/>
<path d="M171.129 146.43L153.356 184.556" stroke="black" stroke-width="1.71997"/>
<path d="M165.973 140.984L148.2 179.11" stroke="black" stroke-width="1.71997"/>
<path d="M130.711 133.817L55.3188 52.6917" stroke="black" stroke-width="3"/>
</svg>
