<svg width="1440" height="1097" viewBox="0 0 1440 1097" fill="none" xmlns="http://www.w3.org/2000/svg">
<rect width="1440" height="1097" fill="#FFCC97"/>
<path d="M636.3 273.85H700.65V574H317.7V273.85H381.6V517.75H477V273.85H541.35V517.75H636.3V273.85ZM875.366 273.85H1094.52V330.1H939.266V383.2H1017.12C1081.02 383.2 1116.57 426.85 1116.57 478.6C1116.57 530.35 1081.47 574 1017.12 574H875.366V273.85ZM1008.57 439.45H939.266V517.75H1008.57C1033.32 517.75 1051.32 502.45 1051.32 478.6C1051.32 454.3 1033.32 439.45 1008.57 439.45Z" fill="black"/>
<path d="M485.25 849H449.5V732.25L402.5 849H387L340 732.25V849H304.5V682.25H354.25L394.75 783L435.25 682.25H485.25V849ZM807.332 849H771.582V779H692.832V849H657.332V682.25H692.832V747.75H771.582V682.25H807.332V849ZM1121.91 849H1078.16L1027.66 782.25L1014.66 797.75V849H979.158V682.25H1014.66V756.75L1073.66 682.25H1117.41L1051.16 760.5L1121.91 849Z" fill="black"/>
<circle cx="910.804" cy="490.914" r="313.5" transform="rotate(10 910.804 490.914)" stroke="black" stroke-width="3"/>
<circle cx="914.743" cy="491.608" r="248.5" transform="rotate(10 914.743 491.608)" stroke="black" stroke-width="3"/>
<path fill-rule="evenodd" clip-rule="evenodd" d="M1040.19 776.455L1188.78 988.674C1206.52 1014.01 1241.44 1020.17 1266.78 1002.43L1275.51 996.31C1300.85 978.57 1307 943.652 1289.26 918.317L1140.67 706.098L1138.21 707.819L1286.81 920.038C1303.6 944.015 1297.77 977.063 1273.79 993.853L1265.06 999.969C1241.08 1016.76 1208.03 1010.93 1191.24 986.953L1042.64 774.734L1040.19 776.455Z" fill="black"/>
<path d="M1087.07 838.807L1184.27 770.507" stroke="black" stroke-width="3"/>
<path d="M141.95 451V434.325H147.65C148.95 434.325 150.125 434.542 151.175 434.975C152.225 435.392 153.117 435.975 153.85 436.725C154.6 437.475 155.175 438.358 155.575 439.375C155.992 440.392 156.2 441.492 156.2 442.675C156.2 443.858 155.992 444.958 155.575 445.975C155.175 446.992 154.6 447.875 153.85 448.625C153.117 449.358 152.225 449.942 151.175 450.375C150.125 450.792 148.95 451 147.65 451H141.95ZM147.65 449.15C148.667 449.15 149.567 448.983 150.35 448.65C151.15 448.3 151.825 447.833 152.375 447.25C152.925 446.667 153.342 445.983 153.625 445.2C153.908 444.417 154.05 443.575 154.05 442.675C154.05 441.775 153.908 440.933 153.625 440.15C153.342 439.35 152.925 438.658 152.375 438.075C151.842 437.492 151.175 437.033 150.375 436.7C149.592 436.35 148.683 436.175 147.65 436.175H144.025V449.15H147.65ZM158.23 440.9V439.575H169.255V440.9H158.23ZM158.23 445.725V444.425H169.255V445.725H158.23ZM177.505 451.3C176.089 451.3 174.914 451.067 173.98 450.6C173.047 450.117 172.264 449.458 171.63 448.625L172.905 447.25C173.455 447.95 174.097 448.492 174.83 448.875C175.58 449.258 176.472 449.45 177.505 449.45C178.072 449.45 178.589 449.358 179.055 449.175C179.539 448.992 179.947 448.742 180.28 448.425C180.614 448.108 180.872 447.733 181.055 447.3C181.255 446.85 181.355 446.375 181.355 445.875C181.355 445.325 181.255 444.833 181.055 444.4C180.872 443.95 180.614 443.567 180.28 443.25C179.947 442.933 179.547 442.692 179.08 442.525C178.614 442.358 178.097 442.275 177.53 442.275C176.78 442.275 176.089 442.4 175.455 442.65C174.839 442.9 174.247 443.3 173.68 443.85L172.155 443.325V434.325H182.355V436.175H174.23V441.975C174.63 441.575 175.164 441.225 175.83 440.925C176.514 440.625 177.28 440.475 178.13 440.475C178.83 440.475 179.497 440.592 180.13 440.825C180.764 441.058 181.322 441.4 181.805 441.85C182.305 442.3 182.697 442.858 182.98 443.525C183.28 444.192 183.43 444.95 183.43 445.8C183.43 446.65 183.28 447.417 182.98 448.1C182.68 448.783 182.264 449.367 181.73 449.85C181.197 450.317 180.564 450.675 179.83 450.925C179.114 451.175 178.339 451.3 177.505 451.3ZM192.377 451.3C191.227 451.3 190.252 451.042 189.452 450.525C188.652 450.008 187.993 449.342 187.477 448.525C186.96 447.692 186.585 446.767 186.352 445.75C186.118 444.717 186.002 443.692 186.002 442.675C186.002 441.658 186.118 440.642 186.352 439.625C186.585 438.592 186.96 437.667 187.477 436.85C187.993 436.033 188.652 435.367 189.452 434.85C190.252 434.333 191.227 434.075 192.377 434.075C193.51 434.075 194.477 434.333 195.277 434.85C196.093 435.367 196.752 436.033 197.252 436.85C197.768 437.667 198.143 438.592 198.377 439.625C198.627 440.642 198.752 441.658 198.752 442.675C198.752 443.692 198.627 444.717 198.377 445.75C198.143 446.767 197.768 447.692 197.252 448.525C196.752 449.342 196.093 450.008 195.277 450.525C194.477 451.042 193.51 451.3 192.377 451.3ZM192.377 449.45C193.177 449.45 193.843 449.258 194.377 448.875C194.927 448.475 195.368 447.958 195.702 447.325C196.035 446.675 196.268 445.95 196.402 445.15C196.552 444.333 196.627 443.508 196.627 442.675C196.627 441.842 196.552 441.025 196.402 440.225C196.268 439.408 196.035 438.683 195.702 438.05C195.368 437.417 194.927 436.908 194.377 436.525C193.843 436.125 193.177 435.925 192.377 435.925C191.577 435.925 190.902 436.125 190.352 436.525C189.818 436.908 189.385 437.417 189.052 438.05C188.718 438.683 188.477 439.408 188.327 440.225C188.193 441.025 188.127 441.842 188.127 442.675C188.127 443.508 188.193 444.333 188.327 445.15C188.477 445.95 188.718 446.675 189.052 447.325C189.385 447.958 189.818 448.475 190.352 448.875C190.902 449.258 191.577 449.45 192.377 449.45ZM203.653 450.4C203.653 451.167 203.453 451.883 203.053 452.55C202.67 453.217 202.186 453.758 201.603 454.175L200.678 453.4C201.078 453.133 201.436 452.783 201.753 452.35C202.07 451.917 202.253 451.492 202.303 451.075C202.236 451.108 202.12 451.125 201.953 451.125C201.603 451.125 201.311 451.008 201.078 450.775C200.861 450.542 200.753 450.233 200.753 449.85C200.753 449.483 200.878 449.167 201.128 448.9C201.378 448.633 201.695 448.5 202.078 448.5C202.495 448.5 202.861 448.667 203.178 449C203.495 449.333 203.653 449.8 203.653 450.4ZM211.883 451.3C210.733 451.3 209.758 451.042 208.958 450.525C208.158 450.008 207.5 449.342 206.983 448.525C206.467 447.692 206.092 446.767 205.858 445.75C205.625 444.717 205.508 443.692 205.508 442.675C205.508 441.658 205.625 440.642 205.858 439.625C206.092 438.592 206.467 437.667 206.983 436.85C207.5 436.033 208.158 435.367 208.958 434.85C209.758 434.333 210.733 434.075 211.883 434.075C213.017 434.075 213.983 434.333 214.783 434.85C215.6 435.367 216.258 436.033 216.758 436.85C217.275 437.667 217.65 438.592 217.883 439.625C218.133 440.642 218.258 441.658 218.258 442.675C218.258 443.692 218.133 444.717 217.883 445.75C217.65 446.767 217.275 447.692 216.758 448.525C216.258 449.342 215.6 450.008 214.783 450.525C213.983 451.042 213.017 451.3 211.883 451.3ZM211.883 449.45C212.683 449.45 213.35 449.258 213.883 448.875C214.433 448.475 214.875 447.958 215.208 447.325C215.542 446.675 215.775 445.95 215.908 445.15C216.058 444.333 216.133 443.508 216.133 442.675C216.133 441.842 216.058 441.025 215.908 440.225C215.775 439.408 215.542 438.683 215.208 438.05C214.875 437.417 214.433 436.908 213.883 436.525C213.35 436.125 212.683 435.925 211.883 435.925C211.083 435.925 210.408 436.125 209.858 436.525C209.325 436.908 208.892 437.417 208.558 438.05C208.225 438.683 207.983 439.408 207.833 440.225C207.7 441.025 207.633 441.842 207.633 442.675C207.633 443.508 207.7 444.333 207.833 445.15C207.983 445.95 208.225 446.675 208.558 447.325C208.892 447.958 209.325 448.475 209.858 448.875C210.408 449.258 211.083 449.45 211.883 449.45Z" fill="black"/>
<path d="M1254.93 450L1248.23 433.325H1250.6L1256.23 447.725L1261.85 433.325H1264.23L1257.5 450H1254.93ZM1265.18 439.9V438.575H1276.21V439.9H1265.18ZM1265.18 444.725V443.425H1276.21V444.725H1265.18ZM1284.58 450.3C1283.43 450.3 1282.46 450.042 1281.66 449.525C1280.86 449.008 1280.2 448.342 1279.68 447.525C1279.16 446.692 1278.79 445.767 1278.56 444.75C1278.32 443.717 1278.21 442.692 1278.21 441.675C1278.21 440.658 1278.32 439.642 1278.56 438.625C1278.79 437.592 1279.16 436.667 1279.68 435.85C1280.2 435.033 1280.86 434.367 1281.66 433.85C1282.46 433.333 1283.43 433.075 1284.58 433.075C1285.71 433.075 1286.68 433.333 1287.48 433.85C1288.3 434.367 1288.96 435.033 1289.46 435.85C1289.97 436.667 1290.35 437.592 1290.58 438.625C1290.83 439.642 1290.96 440.658 1290.96 441.675C1290.96 442.692 1290.83 443.717 1290.58 444.75C1290.35 445.767 1289.97 446.692 1289.46 447.525C1288.96 448.342 1288.3 449.008 1287.48 449.525C1286.68 450.042 1285.71 450.3 1284.58 450.3ZM1284.58 448.45C1285.38 448.45 1286.05 448.258 1286.58 447.875C1287.13 447.475 1287.57 446.958 1287.91 446.325C1288.24 445.675 1288.47 444.95 1288.61 444.15C1288.76 443.333 1288.83 442.508 1288.83 441.675C1288.83 440.842 1288.76 440.025 1288.61 439.225C1288.47 438.408 1288.24 437.683 1287.91 437.05C1287.57 436.417 1287.13 435.908 1286.58 435.525C1286.05 435.125 1285.38 434.925 1284.58 434.925C1283.78 434.925 1283.11 435.125 1282.56 435.525C1282.02 435.908 1281.59 436.417 1281.26 437.05C1280.92 437.683 1280.68 438.408 1280.53 439.225C1280.4 440.025 1280.33 440.842 1280.33 441.675C1280.33 442.508 1280.4 443.333 1280.53 444.15C1280.68 444.95 1280.92 445.675 1281.26 446.325C1281.59 446.958 1282.02 447.475 1282.56 447.875C1283.11 448.258 1283.78 448.45 1284.58 448.45ZM1295.86 449.4C1295.86 450.167 1295.66 450.883 1295.26 451.55C1294.87 452.217 1294.39 452.758 1293.81 453.175L1292.88 452.4C1293.28 452.133 1293.64 451.783 1293.96 451.35C1294.27 450.917 1294.46 450.492 1294.51 450.075C1294.44 450.108 1294.32 450.125 1294.16 450.125C1293.81 450.125 1293.52 450.008 1293.28 449.775C1293.07 449.542 1292.96 449.233 1292.96 448.85C1292.96 448.483 1293.08 448.167 1293.33 447.9C1293.58 447.633 1293.9 447.5 1294.28 447.5C1294.7 447.5 1295.07 447.667 1295.38 448C1295.7 448.333 1295.86 448.8 1295.86 449.4ZM1299.72 450V436.075L1297.04 438.9L1295.79 437.625L1299.97 433.325H1301.79V450H1299.72Z" fill="black"/>
<path d="M1241.93 769L1235.23 752.325H1237.6L1243.23 766.725L1248.85 752.325H1251.23L1244.5 769H1241.93ZM1252.18 758.9V757.575H1263.21V758.9H1252.18ZM1252.18 763.725V762.425H1263.21V763.725H1252.18ZM1271.58 769.3C1270.43 769.3 1269.46 769.042 1268.66 768.525C1267.86 768.008 1267.2 767.342 1266.68 766.525C1266.16 765.692 1265.79 764.767 1265.56 763.75C1265.32 762.717 1265.21 761.692 1265.21 760.675C1265.21 759.658 1265.32 758.642 1265.56 757.625C1265.79 756.592 1266.16 755.667 1266.68 754.85C1267.2 754.033 1267.86 753.367 1268.66 752.85C1269.46 752.333 1270.43 752.075 1271.58 752.075C1272.71 752.075 1273.68 752.333 1274.48 752.85C1275.3 753.367 1275.96 754.033 1276.46 754.85C1276.97 755.667 1277.35 756.592 1277.58 757.625C1277.83 758.642 1277.96 759.658 1277.96 760.675C1277.96 761.692 1277.83 762.717 1277.58 763.75C1277.35 764.767 1276.97 765.692 1276.46 766.525C1275.96 767.342 1275.3 768.008 1274.48 768.525C1273.68 769.042 1272.71 769.3 1271.58 769.3ZM1271.58 767.45C1272.38 767.45 1273.05 767.258 1273.58 766.875C1274.13 766.475 1274.57 765.958 1274.91 765.325C1275.24 764.675 1275.47 763.95 1275.61 763.15C1275.76 762.333 1275.83 761.508 1275.83 760.675C1275.83 759.842 1275.76 759.025 1275.61 758.225C1275.47 757.408 1275.24 756.683 1274.91 756.05C1274.57 755.417 1274.13 754.908 1273.58 754.525C1273.05 754.125 1272.38 753.925 1271.58 753.925C1270.78 753.925 1270.11 754.125 1269.56 754.525C1269.02 754.908 1268.59 755.417 1268.26 756.05C1267.92 756.683 1267.68 757.408 1267.53 758.225C1267.4 759.025 1267.33 759.842 1267.33 760.675C1267.33 761.508 1267.4 762.333 1267.53 763.15C1267.68 763.95 1267.92 764.675 1268.26 765.325C1268.59 765.958 1269.02 766.475 1269.56 766.875C1270.11 767.258 1270.78 767.45 1271.58 767.45ZM1282.86 768.4C1282.86 769.167 1282.66 769.883 1282.26 770.55C1281.87 771.217 1281.39 771.758 1280.81 772.175L1279.88 771.4C1280.28 771.133 1280.64 770.783 1280.96 770.35C1281.27 769.917 1281.46 769.492 1281.51 769.075C1281.44 769.108 1281.32 769.125 1281.16 769.125C1280.81 769.125 1280.52 769.008 1280.28 768.775C1280.07 768.542 1279.96 768.233 1279.96 767.85C1279.96 767.483 1280.08 767.167 1280.33 766.9C1280.58 766.633 1280.9 766.5 1281.28 766.5C1281.7 766.5 1282.07 766.667 1282.38 767C1282.7 767.333 1282.86 767.8 1282.86 768.4ZM1285.57 769V767.35C1287.07 766.167 1288.39 765.1 1289.54 764.15C1290.69 763.183 1291.66 762.292 1292.44 761.475C1293.23 760.642 1293.82 759.867 1294.22 759.15C1294.62 758.417 1294.82 757.692 1294.82 756.975C1294.82 756.442 1294.72 755.983 1294.52 755.6C1294.32 755.217 1294.05 754.9 1293.72 754.65C1293.4 754.4 1293.04 754.217 1292.62 754.1C1292.2 753.983 1291.78 753.925 1291.34 753.925C1290.34 753.925 1289.46 754.117 1288.69 754.5C1287.93 754.883 1287.3 755.392 1286.82 756.025L1285.54 754.7C1286.18 753.85 1287 753.2 1288.02 752.75C1289.05 752.3 1290.16 752.075 1291.34 752.075C1292.04 752.075 1292.73 752.175 1293.39 752.375C1294.06 752.575 1294.65 752.875 1295.17 753.275C1295.7 753.675 1296.13 754.183 1296.44 754.8C1296.78 755.417 1296.94 756.142 1296.94 756.975C1296.94 757.825 1296.74 758.667 1296.32 759.5C1295.92 760.317 1295.35 761.142 1294.62 761.975C1293.9 762.792 1293.05 763.633 1292.07 764.5C1291.09 765.35 1290.01 766.233 1288.84 767.15H1297.02V769H1285.57Z" fill="black"/>
<path d="M142.95 771V754.325H148.65C149.95 754.325 151.125 754.542 152.175 754.975C153.225 755.392 154.117 755.975 154.85 756.725C155.6 757.475 156.175 758.358 156.575 759.375C156.992 760.392 157.2 761.492 157.2 762.675C157.2 763.858 156.992 764.958 156.575 765.975C156.175 766.992 155.6 767.875 154.85 768.625C154.117 769.358 153.225 769.942 152.175 770.375C151.125 770.792 149.95 771 148.65 771H142.95ZM148.65 769.15C149.667 769.15 150.567 768.983 151.35 768.65C152.15 768.3 152.825 767.833 153.375 767.25C153.925 766.667 154.342 765.983 154.625 765.2C154.908 764.417 155.05 763.575 155.05 762.675C155.05 761.775 154.908 760.933 154.625 760.15C154.342 759.35 153.925 758.658 153.375 758.075C152.842 757.492 152.175 757.033 151.375 756.7C150.592 756.35 149.683 756.175 148.65 756.175H145.025V769.15H148.65ZM159.23 760.9V759.575H170.255V760.9H159.23ZM159.23 765.725V764.425H170.255V765.725H159.23ZM172.33 771V769.35C173.83 768.167 175.155 767.1 176.305 766.15C177.455 765.183 178.422 764.292 179.205 763.475C179.989 762.642 180.58 761.867 180.98 761.15C181.38 760.417 181.58 759.692 181.58 758.975C181.58 758.442 181.48 757.983 181.28 757.6C181.08 757.217 180.814 756.9 180.48 756.65C180.164 756.4 179.797 756.217 179.38 756.1C178.964 755.983 178.539 755.925 178.105 755.925C177.105 755.925 176.222 756.117 175.455 756.5C174.689 756.883 174.064 757.392 173.58 758.025L172.305 756.7C172.939 755.85 173.764 755.2 174.78 754.75C175.814 754.3 176.922 754.075 178.105 754.075C178.805 754.075 179.489 754.175 180.155 754.375C180.822 754.575 181.414 754.875 181.93 755.275C182.464 755.675 182.889 756.183 183.205 756.8C183.539 757.417 183.705 758.142 183.705 758.975C183.705 759.825 183.497 760.667 183.08 761.5C182.68 762.317 182.114 763.142 181.38 763.975C180.664 764.792 179.814 765.633 178.83 766.5C177.847 767.35 176.772 768.233 175.605 769.15H183.78V771H172.33ZM193.328 771.3C192.178 771.3 191.203 771.042 190.403 770.525C189.603 770.008 188.944 769.342 188.428 768.525C187.911 767.692 187.536 766.767 187.303 765.75C187.069 764.717 186.953 763.692 186.953 762.675C186.953 761.658 187.069 760.642 187.303 759.625C187.536 758.592 187.911 757.667 188.428 756.85C188.944 756.033 189.603 755.367 190.403 754.85C191.203 754.333 192.178 754.075 193.328 754.075C194.461 754.075 195.428 754.333 196.228 754.85C197.044 755.367 197.703 756.033 198.203 756.85C198.719 757.667 199.094 758.592 199.328 759.625C199.578 760.642 199.703 761.658 199.703 762.675C199.703 763.692 199.578 764.717 199.328 765.75C199.094 766.767 198.719 767.692 198.203 768.525C197.703 769.342 197.044 770.008 196.228 770.525C195.428 771.042 194.461 771.3 193.328 771.3ZM193.328 769.45C194.128 769.45 194.794 769.258 195.328 768.875C195.878 768.475 196.319 767.958 196.653 767.325C196.986 766.675 197.219 765.95 197.353 765.15C197.503 764.333 197.578 763.508 197.578 762.675C197.578 761.842 197.503 761.025 197.353 760.225C197.219 759.408 196.986 758.683 196.653 758.05C196.319 757.417 195.878 756.908 195.328 756.525C194.794 756.125 194.128 755.925 193.328 755.925C192.528 755.925 191.853 756.125 191.303 756.525C190.769 756.908 190.336 757.417 190.003 758.05C189.669 758.683 189.428 759.408 189.278 760.225C189.144 761.025 189.078 761.842 189.078 762.675C189.078 763.508 189.144 764.333 189.278 765.15C189.428 765.95 189.669 766.675 190.003 767.325C190.336 767.958 190.769 768.475 191.303 768.875C191.853 769.258 192.528 769.45 193.328 769.45ZM204.604 770.4C204.604 771.167 204.404 771.883 204.004 772.55C203.621 773.217 203.137 773.758 202.554 774.175L201.629 773.4C202.029 773.133 202.387 772.783 202.704 772.35C203.021 771.917 203.204 771.492 203.254 771.075C203.187 771.108 203.071 771.125 202.904 771.125C202.554 771.125 202.262 771.008 202.029 770.775C201.812 770.542 201.704 770.233 201.704 769.85C201.704 769.483 201.829 769.167 202.079 768.9C202.329 768.633 202.646 768.5 203.029 768.5C203.446 768.5 203.812 768.667 204.129 769C204.446 769.333 204.604 769.8 204.604 770.4ZM212.835 771.3C211.685 771.3 210.71 771.042 209.91 770.525C209.11 770.008 208.451 769.342 207.935 768.525C207.418 767.692 207.043 766.767 206.81 765.75C206.576 764.717 206.46 763.692 206.46 762.675C206.46 761.658 206.576 760.642 206.81 759.625C207.043 758.592 207.418 757.667 207.935 756.85C208.451 756.033 209.11 755.367 209.91 754.85C210.71 754.333 211.685 754.075 212.835 754.075C213.968 754.075 214.935 754.333 215.735 754.85C216.551 755.367 217.21 756.033 217.71 756.85C218.226 757.667 218.601 758.592 218.835 759.625C219.085 760.642 219.21 761.658 219.21 762.675C219.21 763.692 219.085 764.717 218.835 765.75C218.601 766.767 218.226 767.692 217.71 768.525C217.21 769.342 216.551 770.008 215.735 770.525C214.935 771.042 213.968 771.3 212.835 771.3ZM212.835 769.45C213.635 769.45 214.301 769.258 214.835 768.875C215.385 768.475 215.826 767.958 216.16 767.325C216.493 766.675 216.726 765.95 216.86 765.15C217.01 764.333 217.085 763.508 217.085 762.675C217.085 761.842 217.01 761.025 216.86 760.225C216.726 759.408 216.493 758.683 216.16 758.05C215.826 757.417 215.385 756.908 214.835 756.525C214.301 756.125 213.635 755.925 212.835 755.925C212.035 755.925 211.36 756.125 210.81 756.525C210.276 756.908 209.843 757.417 209.51 758.05C209.176 758.683 208.935 759.408 208.785 760.225C208.651 761.025 208.585 761.842 208.585 762.675C208.585 763.508 208.651 764.333 208.785 765.15C208.935 765.95 209.176 766.675 209.51 767.325C209.843 767.958 210.276 768.475 210.81 768.875C211.36 769.258 212.035 769.45 212.835 769.45Z" fill="black"/>
<path d="M234.775 924.325V926.175H226.025V930.95H230.65C231.467 930.95 232.2 931.083 232.85 931.35C233.5 931.617 234.05 931.983 234.5 932.45C234.95 932.9 235.292 933.433 235.525 934.05C235.758 934.65 235.875 935.292 235.875 935.975C235.875 936.658 235.758 937.308 235.525 937.925C235.292 938.525 234.95 939.058 234.5 939.525C234.067 939.975 233.525 940.333 232.875 940.6C232.225 940.867 231.483 941 230.65 941H223.95V924.325H234.775ZM226.025 932.8V939.15H230.4C231.4 939.15 232.2 938.858 232.8 938.275C233.417 937.692 233.725 936.925 233.725 935.975C233.725 935.025 233.417 934.258 232.8 933.675C232.2 933.092 231.4 932.8 230.4 932.8H226.025ZM238.623 941V924.325H249.548V926.175H240.698V931.55H249.373V933.4H240.698V939.15H249.548V941H238.623ZM257.906 941.3C257.173 941.3 256.481 941.225 255.831 941.075C255.198 940.942 254.606 940.75 254.056 940.5C253.523 940.25 253.048 939.958 252.631 939.625C252.231 939.292 251.898 938.933 251.631 938.55L252.856 937.225C253.356 937.875 254.056 938.408 254.956 938.825C255.856 939.242 256.823 939.45 257.856 939.45C259.173 939.45 260.198 939.175 260.931 938.625C261.681 938.058 262.056 937.292 262.056 936.325C262.056 935.808 261.948 935.367 261.731 935C261.531 934.617 261.24 934.308 260.856 934.075C260.473 933.842 260.015 933.667 259.481 933.55C258.948 933.433 258.365 933.375 257.731 933.375H254.331V931.525H257.731C258.281 931.525 258.798 931.475 259.281 931.375C259.781 931.258 260.215 931.092 260.581 930.875C260.948 930.642 261.24 930.358 261.456 930.025C261.673 929.675 261.781 929.258 261.781 928.775C261.781 928.308 261.673 927.9 261.456 927.55C261.256 927.2 260.973 926.908 260.606 926.675C260.24 926.425 259.815 926.242 259.331 926.125C258.848 925.992 258.331 925.925 257.781 925.925C255.898 925.925 254.323 926.6 253.056 927.95L251.906 926.65C252.54 925.917 253.365 925.308 254.381 924.825C255.415 924.325 256.598 924.075 257.931 924.075C258.748 924.075 259.515 924.175 260.231 924.375C260.965 924.575 261.598 924.867 262.131 925.25C262.681 925.617 263.115 926.083 263.431 926.65C263.748 927.2 263.906 927.825 263.906 928.525C263.906 929.125 263.79 929.65 263.556 930.1C263.323 930.55 263.031 930.933 262.681 931.25C262.331 931.567 261.94 931.825 261.506 932.025C261.09 932.208 260.69 932.333 260.306 932.4C260.69 932.433 261.106 932.542 261.556 932.725C262.006 932.908 262.423 933.167 262.806 933.5C263.19 933.833 263.506 934.25 263.756 934.75C264.023 935.25 264.156 935.833 264.156 936.5C264.156 937.2 264.006 937.842 263.706 938.425C263.406 939.008 262.981 939.517 262.431 939.95C261.881 940.367 261.223 940.7 260.456 940.95C259.69 941.183 258.84 941.3 257.906 941.3ZM278.951 941.3C278.218 941.3 277.526 941.225 276.876 941.075C276.243 940.942 275.651 940.75 275.101 940.5C274.568 940.25 274.093 939.958 273.676 939.625C273.276 939.292 272.943 938.933 272.676 938.55L273.901 937.225C274.401 937.875 275.101 938.408 276.001 938.825C276.901 939.242 277.868 939.45 278.901 939.45C280.218 939.45 281.243 939.175 281.976 938.625C282.726 938.058 283.101 937.292 283.101 936.325C283.101 935.808 282.993 935.367 282.776 935C282.576 934.617 282.285 934.308 281.901 934.075C281.518 933.842 281.06 933.667 280.526 933.55C279.993 933.433 279.41 933.375 278.776 933.375H275.376V931.525H278.776C279.326 931.525 279.843 931.475 280.326 931.375C280.826 931.258 281.26 931.092 281.626 930.875C281.993 930.642 282.285 930.358 282.501 930.025C282.718 929.675 282.826 929.258 282.826 928.775C282.826 928.308 282.718 927.9 282.501 927.55C282.301 927.2 282.018 926.908 281.651 926.675C281.285 926.425 280.86 926.242 280.376 926.125C279.893 925.992 279.376 925.925 278.826 925.925C276.943 925.925 275.368 926.6 274.101 927.95L272.951 926.65C273.585 925.917 274.41 925.308 275.426 924.825C276.46 924.325 277.643 924.075 278.976 924.075C279.793 924.075 280.56 924.175 281.276 924.375C282.01 924.575 282.643 924.867 283.176 925.25C283.726 925.617 284.16 926.083 284.476 926.65C284.793 927.2 284.951 927.825 284.951 928.525C284.951 929.125 284.835 929.65 284.601 930.1C284.368 930.55 284.076 930.933 283.726 931.25C283.376 931.567 282.985 931.825 282.551 932.025C282.135 932.208 281.735 932.333 281.351 932.4C281.735 932.433 282.151 932.542 282.601 932.725C283.051 932.908 283.468 933.167 283.851 933.5C284.235 933.833 284.551 934.25 284.801 934.75C285.068 935.25 285.201 935.833 285.201 936.5C285.201 937.2 285.051 937.842 284.751 938.425C284.451 939.008 284.026 939.517 283.476 939.95C282.926 940.367 282.268 940.7 281.501 940.95C280.735 941.183 279.885 941.3 278.951 941.3ZM300.401 941L298.926 937.3H290.626L289.151 941H286.776L293.476 924.325H296.051L302.776 941H300.401ZM294.776 926.475L291.226 935.45H298.301L294.776 926.475ZM311.928 941.3C310.728 941.3 309.603 941.092 308.553 940.675C307.52 940.258 306.611 939.675 305.828 938.925C305.061 938.158 304.453 937.25 304.003 936.2C303.57 935.133 303.353 933.958 303.353 932.675C303.353 931.392 303.57 930.225 304.003 929.175C304.453 928.108 305.061 927.2 305.828 926.45C306.611 925.683 307.52 925.092 308.553 924.675C309.603 924.258 310.728 924.05 311.928 924.05C312.661 924.05 313.336 924.133 313.953 924.3C314.586 924.467 315.161 924.7 315.678 925C316.211 925.3 316.686 925.65 317.103 926.05C317.536 926.45 317.92 926.883 318.253 927.35L316.503 928.325C316.02 927.625 315.37 927.05 314.553 926.6C313.753 926.133 312.878 925.9 311.928 925.9C311.011 925.9 310.161 926.067 309.378 926.4C308.595 926.733 307.911 927.2 307.328 927.8C306.761 928.4 306.311 929.117 305.978 929.95C305.661 930.767 305.503 931.675 305.503 932.675C305.503 933.658 305.661 934.567 305.978 935.4C306.311 936.233 306.761 936.95 307.328 937.55C307.911 938.15 308.595 938.617 309.378 938.95C310.161 939.283 311.011 939.45 311.928 939.45C312.878 939.45 313.753 939.225 314.553 938.775C315.37 938.325 316.02 937.742 316.503 937.025L318.278 938C317.578 938.95 316.711 939.742 315.678 940.375C314.661 940.992 313.411 941.3 311.928 941.3ZM320.923 941V924.325H331.848V926.175H322.998V931.55H331.673V933.4H322.998V939.15H331.848V941H320.923ZM336.731 928.675C336.731 929.958 337.056 930.925 337.706 931.575C338.373 932.208 339.339 932.525 340.606 932.525C341.306 932.525 341.989 932.475 342.656 932.375C343.323 932.275 343.923 932.133 344.456 931.95V924.325H346.531V941H344.456V933.8C343.906 933.95 343.298 934.083 342.631 934.2C341.964 934.317 341.231 934.375 340.431 934.375C339.448 934.375 338.589 934.242 337.856 933.975C337.139 933.692 336.539 933.3 336.056 932.8C335.589 932.3 335.239 931.7 335.006 931C334.773 930.283 334.656 929.5 334.656 928.65V924.325H336.731V928.675ZM350.439 941V924.325H361.364V926.175H352.514V931.55H361.189V933.4H352.514V939.15H361.364V941H350.439ZM374.748 941L368.423 933.5L366.748 935.4V941H364.673V924.325H366.748V932.95L374.123 924.325H376.723L369.773 932.25L377.323 941H374.748Z" fill="black"/>
<path d="M484.525 197.675C484.525 198.958 484.85 199.925 485.5 200.575C486.167 201.208 487.133 201.525 488.4 201.525C489.1 201.525 489.783 201.475 490.45 201.375C491.117 201.275 491.717 201.133 492.25 200.95V193.325H494.325V210H492.25V202.8C491.7 202.95 491.092 203.083 490.425 203.2C489.758 203.317 489.025 203.375 488.225 203.375C487.242 203.375 486.383 203.242 485.65 202.975C484.933 202.692 484.333 202.3 483.85 201.8C483.383 201.3 483.033 200.7 482.8 200C482.567 199.283 482.45 198.5 482.45 197.65V193.325H484.525V197.675ZM498.233 210V193.325H500.308V206.35L509.908 193.325H512.033V210H509.958V196.7L500.233 210H498.233ZM523.833 210.3C522.633 210.3 521.508 210.092 520.458 209.675C519.425 209.258 518.517 208.675 517.733 207.925C516.967 207.158 516.358 206.25 515.908 205.2C515.475 204.133 515.258 202.958 515.258 201.675C515.258 200.392 515.475 199.225 515.908 198.175C516.358 197.108 516.967 196.2 517.733 195.45C518.517 194.683 519.425 194.092 520.458 193.675C521.508 193.258 522.633 193.05 523.833 193.05C524.567 193.05 525.242 193.133 525.858 193.3C526.492 193.467 527.067 193.7 527.583 194C528.117 194.3 528.592 194.65 529.008 195.05C529.442 195.45 529.825 195.883 530.158 196.35L528.408 197.325C527.925 196.625 527.275 196.05 526.458 195.6C525.658 195.133 524.783 194.9 523.833 194.9C522.917 194.9 522.067 195.067 521.283 195.4C520.5 195.733 519.817 196.2 519.233 196.8C518.667 197.4 518.217 198.117 517.883 198.95C517.567 199.767 517.408 200.675 517.408 201.675C517.408 202.658 517.567 203.567 517.883 204.4C518.217 205.233 518.667 205.95 519.233 206.55C519.817 207.15 520.5 207.617 521.283 207.95C522.067 208.283 522.917 208.45 523.833 208.45C524.783 208.45 525.658 208.225 526.458 207.775C527.275 207.325 527.925 206.742 528.408 206.025L530.183 207C529.483 207.95 528.617 208.742 527.583 209.375C526.567 209.992 525.317 210.3 523.833 210.3ZM536.953 210V195.175H531.678V193.325H544.328V195.175H539.028V210H536.953ZM554.002 210.3C552.769 210.3 551.644 210.083 550.627 209.65C549.61 209.217 548.735 208.617 548.002 207.85C547.285 207.067 546.727 206.15 546.327 205.1C545.927 204.05 545.727 202.908 545.727 201.675C545.727 200.442 545.927 199.3 546.327 198.25C546.727 197.2 547.285 196.292 548.002 195.525C548.735 194.742 549.61 194.133 550.627 193.7C551.644 193.267 552.769 193.05 554.002 193.05C555.235 193.05 556.36 193.267 557.377 193.7C558.394 194.133 559.26 194.742 559.977 195.525C560.71 196.292 561.277 197.2 561.677 198.25C562.077 199.3 562.277 200.442 562.277 201.675C562.277 202.908 562.077 204.05 561.677 205.1C561.277 206.15 560.71 207.067 559.977 207.85C559.26 208.617 558.394 209.217 557.377 209.65C556.36 210.083 555.235 210.3 554.002 210.3ZM554.002 208.45C554.935 208.45 555.777 208.283 556.527 207.95C557.277 207.6 557.919 207.125 558.452 206.525C558.985 205.908 559.394 205.192 559.677 204.375C559.977 203.542 560.127 202.642 560.127 201.675C560.127 200.708 559.977 199.808 559.677 198.975C559.394 198.142 558.985 197.425 558.452 196.825C557.919 196.225 557.277 195.758 556.527 195.425C555.777 195.075 554.935 194.9 554.002 194.9C553.069 194.9 552.219 195.075 551.452 195.425C550.702 195.758 550.06 196.225 549.527 196.825C548.994 197.425 548.585 198.142 548.302 198.975C548.019 199.808 547.877 200.708 547.877 201.675C547.877 202.642 548.019 203.542 548.302 204.375C548.585 205.192 548.994 205.908 549.527 206.525C550.06 207.125 550.702 207.6 551.452 207.95C552.219 208.283 553.069 208.45 554.002 208.45ZM568.96 210V195.175H563.685V193.325H576.335V195.175H571.035V210H568.96ZM589.308 210L587.833 206.3H579.533L578.058 210H575.683L582.383 193.325H584.958L591.683 210H589.308ZM583.683 195.475L580.133 204.45H587.208L583.683 195.475ZM599.158 208.45C599.658 208.45 600.1 208.367 600.483 208.2C600.883 208.017 601.242 207.683 601.558 207.2C601.875 206.7 602.142 206.017 602.358 205.15C602.592 204.267 602.8 203.117 602.983 201.7L604.008 193.325H614.208V210H612.133V195.175H605.858L605.033 201.85C604.8 203.683 604.5 205.158 604.133 206.275C603.783 207.375 603.358 208.225 602.858 208.825C602.375 209.425 601.825 209.817 601.208 210C600.592 210.2 599.908 210.3 599.158 210.3V208.45ZM618.106 210V193.325H620.181V206.35L629.781 193.325H631.906V210H629.831V196.7L620.106 210H618.106ZM647.631 210V202.35H637.881V210H635.806V193.325H637.881V200.5H647.631V193.325H649.706V210H647.631ZM653.604 210V193.325H655.679V206.35L665.279 193.325H667.404V210H665.329V196.7L655.604 210H653.604ZM671.304 210V193.325H673.379V206.35L682.979 193.325H685.104V210H683.029V196.7L673.304 210H671.304ZM682.579 190.175C682.079 190.858 681.446 191.4 680.679 191.8C679.929 192.183 679.104 192.375 678.204 192.375C677.304 192.375 676.471 192.183 675.704 191.8C674.954 191.4 674.321 190.858 673.804 190.175L674.729 189.375C675.129 189.925 675.621 190.367 676.204 190.7C676.788 191.017 677.454 191.175 678.204 191.175C678.938 191.175 679.596 191.017 680.179 190.7C680.779 190.383 681.271 189.942 681.654 189.375L682.579 190.175Z" fill="black"/>
<circle cx="307" cy="849" r="49" stroke="black" stroke-width="2"/>
</svg>
